STARTFONT 2.1
FONT -FontForge-kcchin16-Regular-R-Normal--16-150-75-75-C-160-ISO10646-1
SIZE 15 75 75
FONTBOUNDINGBOX 16 15 0 0
COMMENT "Generated by fontforge, http://fontforge.sourceforge.net"
COMMENT "Copyright (C) 1985-1987  Kuo Chiau Business Computer CO., LTD. Version 5.00 05-01-87; probably in the public domain"
STARTPROPERTIES 29
FOUNDRY "FontForge"
FAMILY_NAME "kcchin16"
WEIGHT_NAME "Regular"
SLANT "R"
SETWIDTH_NAME "Normal"
ADD_STYLE_NAME ""
PIXEL_SIZE 16
POINT_SIZE 150
RESOLUTION_X 75
RESOLUTION_Y 75
SPACING "C"
AVERAGE_WIDTH 160
CHARSET_REGISTRY "ISO10646"
CHARSET_ENCODING "1"
FONTNAME_REGISTRY ""
CHARSET_COLLECTIONS "BIG5 ISO10646-1"
FONT_NAME "kcchin16"
FACE_NAME "kcchin16"
COPYRIGHT "Copyright (C) 1985-1987  Kuo Chiau Business Computer CO., LTD. Version 5.00 05-01-87; probably in the public domain"
FONT_VERSION "1.000"
FONT_ASCENT 16
FONT_DESCENT 0
UNDERLINE_POSITION -2
UNDERLINE_THICKNESS 1
RAW_ASCENT 1000
RAW_DESCENT 0
RELATIVE_WEIGHT 40
RELATIVE_SETWIDTH 50
FIGURE_WIDTH -1
ENDPROPERTIES
CHARS 13098
STARTCHAR SF430000
ENCODING 9552
SWIDTH 1000 0
DWIDTH 16 0
BBX 16 3 0 5
BITMAP
FFFF
0000
FFFF
ENDCHAR
STARTCHAR SF240000
ENCODING 9553
SWIDTH 1000 0
DWIDTH 16 0
BBX 3 14 7 0
BITMAP
A0
A0
A0
A0
A0
A0
A0
A0
A0
A0
A0
A0
A0
A0
ENDCHAR
STARTCHAR SF510000
ENCODING 9554
SWIDTH 1000 0
DWIDTH 16 0
BBX 8 8 8 0
BITMAP
FF
80
FF
80
80
80
80
80
ENDCHAR
STARTCHAR SF520000
ENCODING 9555
SWIDTH 1000 0
DWIDTH 16 0
BBX 9 7 7 0
BITMAP
FF80
A000
A000
A000
A000
A000
A000
ENDCHAR
STARTCHAR SF390000
ENCODING 9556
SWIDTH 1000 0
DWIDTH 16 0
BBX 9 8 7 0
BITMAP
FF80
8000
BF80
A000
A000
A000
A000
A000
ENDCHAR
STARTCHAR SF220000
ENCODING 9557
SWIDTH 1000 0
DWIDTH 16 0
BBX 9 8 0 0
BITMAP
FF80
0080
FF80
0080
0080
0080
0080
0080
ENDCHAR
STARTCHAR SF210000
ENCODING 9558
SWIDTH 1000 0
DWIDTH 16 0
BBX 10 7 0 0
BITMAP
FFC0
0140
0140
0140
0140
0140
0140
ENDCHAR
STARTCHAR SF250000
ENCODING 9559
SWIDTH 1000 0
DWIDTH 16 0
BBX 10 8 0 0
BITMAP
FFC0
0040
FF40
0140
0140
0140
0140
0140
ENDCHAR
STARTCHAR SF500000
ENCODING 9560
SWIDTH 1000 0
DWIDTH 16 0
BBX 8 9 8 5
BITMAP
80
80
80
80
80
80
FF
80
FF
ENDCHAR
STARTCHAR SF490000
ENCODING 9561
SWIDTH 1000 0
DWIDTH 16 0
BBX 9 8 7 6
BITMAP
A000
A000
A000
A000
A000
A000
A000
FF80
ENDCHAR
STARTCHAR SF380000
ENCODING 9562
SWIDTH 1000 0
DWIDTH 16 0
BBX 9 9 7 5
BITMAP
A000
A000
A000
A000
A000
A000
BF80
8000
FF80
ENDCHAR
STARTCHAR SF280000
ENCODING 9563
SWIDTH 1000 0
DWIDTH 16 0
BBX 9 9 0 5
BITMAP
0080
0080
0080
0080
0080
0080
FF80
0080
FF80
ENDCHAR
STARTCHAR SF270000
ENCODING 9564
SWIDTH 1000 0
DWIDTH 16 0
BBX 10 8 0 6
BITMAP
0140
0140
0140
0140
0140
0140
0140
FFC0
ENDCHAR
STARTCHAR SF260000
ENCODING 9565
SWIDTH 1000 0
DWIDTH 16 0
BBX 10 9 0 5
BITMAP
0140
0140
0140
0140
0140
0140
FF40
0040
FFC0
ENDCHAR
STARTCHAR SF360000
ENCODING 9566
SWIDTH 1000 0
DWIDTH 16 0
BBX 8 14 8 0
BITMAP
80
80
80
80
80
80
FF
80
FF
80
80
80
80
80
ENDCHAR
STARTCHAR SF370000
ENCODING 9567
SWIDTH 1000 0
DWIDTH 16 0
BBX 9 14 7 0
BITMAP
A000
A000
A000
A000
A000
A000
A000
BF80
A000
A000
A000
A000
A000
A000
ENDCHAR
STARTCHAR SF420000
ENCODING 9568
SWIDTH 1000 0
DWIDTH 16 0
BBX 9 14 7 0
BITMAP
A000
A000
A000
A000
A000
A000
BF80
8000
BF80
A000
A000
A000
A000
A000
ENDCHAR
STARTCHAR SF190000
ENCODING 9569
SWIDTH 1000 0
DWIDTH 16 0
BBX 9 14 0 0
BITMAP
0080
0080
0080
0080
0080
0080
FF80
0080
FF80
0080
0080
0080
0080
0080
ENDCHAR
STARTCHAR SF200000
ENCODING 9570
SWIDTH 1000 0
DWIDTH 16 0
BBX 10 14 0 0
BITMAP
0140
0140
0140
0140
0140
0140
0140
FF40
0140
0140
0140
0140
0140
0140
ENDCHAR
STARTCHAR SF230000
ENCODING 9571
SWIDTH 1000 0
DWIDTH 16 0
BBX 10 14 0 0
BITMAP
0140
0140
0140
0140
0140
0140
FF40
0040
FF40
0140
0140
0140
0140
0140
ENDCHAR
STARTCHAR SF470000
ENCODING 9572
SWIDTH 1000 0
DWIDTH 16 0
BBX 16 8 0 0
BITMAP
FFFF
0000
FFFF
0080
0080
0080
0080
0080
ENDCHAR
STARTCHAR SF480000
ENCODING 9573
SWIDTH 1000 0
DWIDTH 16 0
BBX 16 7 0 0
BITMAP
FFFF
0140
0140
0140
0140
0140
0140
ENDCHAR
STARTCHAR SF410000
ENCODING 9574
SWIDTH 1000 0
DWIDTH 16 0
BBX 16 8 0 0
BITMAP
FFFF
0000
FF7F
0140
0140
0140
0140
0140
ENDCHAR
STARTCHAR SF450000
ENCODING 9575
SWIDTH 1000 0
DWIDTH 16 0
BBX 16 9 0 5
BITMAP
0080
0080
0080
0080
0080
0080
FFFF
0000
FFFF
ENDCHAR
STARTCHAR SF460000
ENCODING 9576
SWIDTH 1000 0
DWIDTH 16 0
BBX 16 8 0 6
BITMAP
0140
0140
0140
0140
0140
0140
0140
FFFF
ENDCHAR
STARTCHAR SF400000
ENCODING 9577
SWIDTH 1000 0
DWIDTH 16 0
BBX 16 9 0 5
BITMAP
0140
0140
0140
0140
0140
0140
FF7F
0000
FFFF
ENDCHAR
STARTCHAR SF540000
ENCODING 9578
SWIDTH 1000 0
DWIDTH 16 0
BBX 16 14 0 0
BITMAP
0080
0080
0080
0080
0080
0080
FFFF
0000
FFFF
0080
0080
0080
0080
0080
ENDCHAR
STARTCHAR SF530000
ENCODING 9579
SWIDTH 1000 0
DWIDTH 16 0
BBX 16 14 0 0
BITMAP
0140
0140
0140
0140
0140
0140
0140
FF7F
0140
0140
0140
0140
0140
0140
ENDCHAR
STARTCHAR SF440000
ENCODING 9580
SWIDTH 1000 0
DWIDTH 16 0
BBX 16 14 0 0
BITMAP
0140
0140
0140
0140
0140
0140
FF7F
0000
FF7F
0140
0140
0140
0140
0140
ENDCHAR
STARTCHAR uni4E00
ENCODING 19968
SWIDTH 1000 0
DWIDTH 16 0
BBX 15 2 1 6
BITMAP
0004
FFFE
ENDCHAR
STARTCHAR uni4E01
ENCODING 19969
SWIDTH 1000 0
DWIDTH 16 0
BBX 14 14 1 0
BITMAP
0008
FFFC
0200
0200
0200
0200
0200
0200
0200
0200
0200
0200
1E00
0400
ENDCHAR
STARTCHAR uni4E03
ENCODING 19971
SWIDTH 1000 0
DWIDTH 16 0
BBX 15 13 1 1
BITMAP
0400
0400
0400
0400
0404
FFFE
0400
0400
0400
0400
0404
0404
03FC
ENDCHAR
STARTCHAR uni4E07
ENCODING 19975
SWIDTH 1000 0
DWIDTH 16 0
BBX 15 14 1 0
BITMAP
0004
FFFE
0800
0800
0FF8
0808
0808
0808
1008
2008
4008
8010
0120
00C0
ENDCHAR
STARTCHAR uni4E08
ENCODING 19976
SWIDTH 1000 0
DWIDTH 16 0
BBX 15 14 1 0
BITMAP
0040
0040
0044
7FFE
0040
0040
0840
0480
0280
0100
0280
0460
181E
E004
ENDCHAR
STARTCHAR uni4E09
ENCODING 19977
SWIDTH 1000 0
DWIDTH 16 0
BBX 15 12 1 1
BITMAP
0008
7FFC
0000
0000
0000
0010
3FF8
0000
0000
0000
0004
FFFE
ENDCHAR
STARTCHAR uni4E0A
ENCODING 19978
SWIDTH 1000 0
DWIDTH 16 0
BBX 15 13 1 1
BITMAP
0100
0100
0100
0100
0110
01F8
0100
0100
0100
0100
0100
0104
FFFE
ENDCHAR
STARTCHAR uni4E0B
ENCODING 19979
SWIDTH 1000 0
DWIDTH 16 0
BBX 15 14 1 0
BITMAP
0004
FFFE
0200
0200
0280
0240
0230
0210
0200
0200
0200
0200
0200
0200
ENDCHAR
STARTCHAR uni4E0C
ENCODING 19980
SWIDTH 1000 0
DWIDTH 16 0
BBX 15 14 1 0
BITMAP
0004
FFFE
0820
0820
0820
0820
0820
0820
0820
0820
1020
2020
4020
0020
ENDCHAR
STARTCHAR uni4E0D
ENCODING 19981
SWIDTH 1000 0
DWIDTH 16 0
BBX 14 14 2 0
BITMAP
0008
FFFC
0100
0100
0200
0680
0A40
1220
2210
4218
8208
0200
0200
0200
ENDCHAR
STARTCHAR uni4E0E
ENCODING 19982
SWIDTH 1000 0
DWIDTH 16 0
BBX 15 14 1 0
BITMAP
4000
4000
7FF8
4000
8000
FFFE
0002
0002
0042
FFE2
0004
0008
0090
0060
ENDCHAR
STARTCHAR uni4E0F
ENCODING 19983
SWIDTH 1000 0
DWIDTH 16 0
BBX 15 14 1 0
BITMAP
0004
FFFE
0100
0100
21F8
2108
2108
2108
3FF8
0008
0008
0010
0120
00C0
ENDCHAR
STARTCHAR uni4E10
ENCODING 19984
SWIDTH 1000 0
DWIDTH 16 0
BBX 14 14 1 0
BITMAP
0008
FFFC
0200
2220
23F0
2200
2208
7FFC
0008
0008
0008
0090
0060
0040
ENDCHAR
STARTCHAR uni4E11
ENCODING 19985
SWIDTH 1000 0
DWIDTH 16 0
BBX 15 12 1 1
BITMAP
0020
3FF0
0420
0420
0420
0420
3FE0
0820
0820
0820
0824
FFFE
ENDCHAR
STARTCHAR uni4E14
ENCODING 19988
SWIDTH 1000 0
DWIDTH 16 0
BBX 15 13 1 1
BITMAP
0020
1FF0
1020
1020
1020
1FE0
1020
1020
1FE0
1020
1020
1024
FFFE
ENDCHAR
STARTCHAR uni4E15
ENCODING 19989
SWIDTH 1000 0
DWIDTH 16 0
BBX 15 13 1 1
BITMAP
0008
7FFC
0080
0100
0200
0520
0910
1108
210C
4104
0100
0104
FFFE
ENDCHAR
STARTCHAR uni4E16
ENCODING 19990
SWIDTH 1000 0
DWIDTH 16 0
BBX 15 13 1 1
BITMAP
0220
2220
2220
2224
FFFE
2220
2220
2220
23E0
2220
2000
2008
1FFC
ENDCHAR
STARTCHAR uni4E18
ENCODING 19992
SWIDTH 1000 0
DWIDTH 16 0
BBX 15 13 1 1
BITMAP
0020
0070
0180
3E00
1000
1010
1FF8
1040
1040
1040
1040
1044
FFFE
ENDCHAR
STARTCHAR uni4E19
ENCODING 19993
SWIDTH 1000 0
DWIDTH 16 0
BBX 15 14 1 0
BITMAP
0004
FFFE
0100
0100
0104
7FFE
4104
4184
4244
4424
4824
4004
401C
4008
ENDCHAR
STARTCHAR uni4E1E
ENCODING 19998
SWIDTH 1000 0
DWIDTH 16 0
BBX 15 13 1 1
BITMAP
0020
3FF0
0080
0304
010C
7D10
05E0
0920
1110
610E
8104
0300
3FFC
ENDCHAR
STARTCHAR uni4E1F
ENCODING 19999
SWIDTH 1000 0
DWIDTH 16 0
BBX 15 14 1 0
BITMAP
00F0
3F00
0100
0110
3FF8
0100
0104
FFFE
0200
0400
0810
1008
7FFC
2004
ENDCHAR
STARTCHAR uni4E26
ENCODING 20006
SWIDTH 1000 0
DWIDTH 16 0
BBX 15 13 1 1
BITMAP
1030
0C20
0440
0008
7FFC
0440
0440
2448
1448
1450
0440
0444
FFFE
ENDCHAR
STARTCHAR uni4E2B
ENCODING 20011
SWIDTH 1000 0
DWIDTH 16 0
BBX 12 14 2 0
BITMAP
8010
4030
2040
1880
0900
0200
0200
0200
0200
0200
0200
0200
0200
0200
ENDCHAR
STARTCHAR uni4E2D
ENCODING 20013
SWIDTH 1000 0
DWIDTH 16 0
BBX 14 14 2 0
BITMAP
0200
0200
0208
FFFC
8208
8208
8208
FFF8
8208
0200
0200
0200
0200
0200
ENDCHAR
STARTCHAR uni4E2E
ENCODING 20014
SWIDTH 1000 0
DWIDTH 16 0
BBX 14 14 2 0
BITMAP
0010
FFF8
0010
0410
0410
7FD0
0410
0410
0410
7FD0
0414
0414
040C
0404
ENDCHAR
STARTCHAR uni4E30
ENCODING 20016
SWIDTH 1000 0
DWIDTH 16 0
BBX 15 14 1 0
BITMAP
0100
0108
7FFC
0100
0110
3FF8
0100
0100
0104
FFFE
0100
0100
0100
0100
ENDCHAR
STARTCHAR uni4E31
ENCODING 20017
SWIDTH 1000 0
DWIDTH 16 0
BBX 15 14 1 0
BITMAP
0440
0440
8442
8442
8442
8442
8442
FC7E
0440
0440
0840
1040
2040
4040
ENDCHAR
STARTCHAR uni4E32
ENCODING 20018
SWIDTH 1000 0
DWIDTH 16 0
BBX 14 14 2 0
BITMAP
0200
0220
7FF0
4220
7FE0
4220
0208
FFFC
8208
8208
FFF8
8208
0200
0200
ENDCHAR
STARTCHAR uni4E33
ENCODING 20019
SWIDTH 1000 0
DWIDTH 16 0
BBX 13 14 2 0
BITMAP
0880
0880
7FF0
4890
4890
7FF0
0880
FFF8
8888
8888
FFF8
1080
2080
4080
ENDCHAR
STARTCHAR uni4E38
ENCODING 20024
SWIDTH 1000 0
DWIDTH 16 0
BBX 15 14 1 0
BITMAP
0400
0400
0440
FFE0
0440
1440
0C40
0640
0940
0944
1044
1044
2024
401E
ENDCHAR
STARTCHAR uni4E39
ENCODING 20025
SWIDTH 1000 0
DWIDTH 16 0
BBX 15 14 1 0
BITMAP
0020
1FF0
0820
0A20
0920
0920
0824
FFFE
0820
0820
1020
10A0
2060
4040
ENDCHAR
STARTCHAR uni4E3B
ENCODING 20027
SWIDTH 1000 0
DWIDTH 16 0
BBX 15 13 1 1
BITMAP
0200
0100
0108
7FFC
0100
0100
0110
3FF8
0100
0100
0100
0104
FFFE
ENDCHAR
STARTCHAR uni4E3C
ENCODING 20028
SWIDTH 1000 0
DWIDTH 16 0
BBX 15 14 1 0
BITMAP
0820
0820
0820
7FFC
0A20
0920
08A0
0820
FFFE
0820
0820
1020
2020
4020
ENDCHAR
STARTCHAR uni4E42
ENCODING 20034
SWIDTH 1000 0
DWIDTH 16 0
BBX 15 14 1 0
BITMAP
0008
0008
4008
2008
1010
0820
0440
0280
0100
0280
0440
0820
1010
E00E
ENDCHAR
STARTCHAR uni4E43
ENCODING 20035
SWIDTH 1000 0
DWIDTH 16 0
BBX 15 14 1 0
BITMAP
0020
7FF0
0820
0840
0884
08FE
0804
0804
1004
1004
2004
4048
8030
0020
ENDCHAR
STARTCHAR uni4E45
ENCODING 20037
SWIDTH 1000 0
DWIDTH 16 0
BBX 15 14 1 0
BITMAP
0400
0420
07F0
0820
1020
2040
0040
0080
0140
0220
0420
0810
300E
C004
ENDCHAR
STARTCHAR uni4E47
ENCODING 20039
SWIDTH 1000 0
DWIDTH 16 0
BBX 15 14 1 0
BITMAP
0010
03F8
7E00
0200
0200
0208
03FC
FE00
0200
0200
0200
0202
0202
01FE
ENDCHAR
STARTCHAR uni4E48
ENCODING 20040
SWIDTH 1000 0
DWIDTH 16 0
BBX 13 14 2 0
BITMAP
0200
0200
0400
0800
1080
6100
8100
0200
0400
0820
1010
FFF8
4008
0008
ENDCHAR
STARTCHAR uni4E4B
ENCODING 20043
SWIDTH 1000 0
DWIDTH 16 0
BBX 14 13 2 1
BITMAP
0400
0200
0220
7FF0
0040
0080
0100
0200
2400
2800
5000
8800
07FC
ENDCHAR
STARTCHAR uni4E4D
ENCODING 20045
SWIDTH 1000 0
DWIDTH 16 0
BBX 15 14 1 0
BITMAP
0800
0804
0FFE
1200
2200
4210
83F8
0200
0208
03FC
0200
0200
0200
0200
ENDCHAR
STARTCHAR uni4E4E
ENCODING 20046
SWIDTH 1000 0
DWIDTH 16 0
BBX 15 14 1 0
BITMAP
0078
3F80
0100
1110
0D30
0540
0104
FFFE
0100
0100
0100
0100
0700
0200
ENDCHAR
STARTCHAR uni4E4F
ENCODING 20047
SWIDTH 1000 0
DWIDTH 16 0
BBX 14 14 2 0
BITMAP
01F0
7E00
0400
0200
0210
7FF8
0020
0040
0080
0300
2C00
3000
4800
87FC
ENDCHAR
STARTCHAR uni4E52
ENCODING 20050
SWIDTH 1000 0
DWIDTH 16 0
BBX 15 14 1 0
BITMAP
00F0
1F00
0800
0808
0FFC
0820
0820
0824
FFFE
0000
0200
0600
0800
1000
ENDCHAR
STARTCHAR uni4E53
ENCODING 20051
SWIDTH 1000 0
DWIDTH 16 0
BBX 15 14 1 0
BITMAP
0070
1F80
0800
0808
0FFC
0820
0820
0824
FFFE
0000
0040
0030
0018
0008
ENDCHAR
STARTCHAR uni4E56
ENCODING 20054
SWIDTH 1000 0
DWIDTH 16 0
BBX 15 14 1 0
BITMAP
0070
1F80
0100
0104
FFFE
0100
0924
792C
0930
0922
1922
E91E
0100
0100
ENDCHAR
STARTCHAR uni4E58
ENCODING 20056
SWIDTH 1000 0
DWIDTH 16 0
BBX 15 14 1 0
BITMAP
00F0
1F00
0104
FFFE
0540
3D58
0560
0D44
753C
0380
0540
0930
710E
0100
ENDCHAR
STARTCHAR uni4E59
ENCODING 20057
SWIDTH 1000 0
DWIDTH 16 0
BBX 14 12 2 1
BITMAP
0040
7FE0
0080
0100
0200
0400
0800
1000
2008
4008
8008
7FFC
ENDCHAR
STARTCHAR uni4E5C
ENCODING 20060
SWIDTH 1000 0
DWIDTH 16 0
BBX 15 14 1 0
BITMAP
2000
2000
2000
2000
FFFC
2008
2010
2020
2040
2000
2002
2002
2002
3FFE
ENDCHAR
STARTCHAR uni4E5D
ENCODING 20061
SWIDTH 1000 0
DWIDTH 16 0
BBX 15 14 1 0
BITMAP
0800
0800
0840
FFE0
0840
0840
0840
0840
0840
1044
1044
2044
403E
8000
ENDCHAR
STARTCHAR uni4E5E
ENCODING 20062
SWIDTH 1000 0
DWIDTH 16 0
BBX 14 14 2 0
BITMAP
1000
1010
3FF8
4000
8040
1FE0
0080
0100
0200
0400
0808
1008
2008
1FFC
ENDCHAR
STARTCHAR uni4E5F
ENCODING 20063
SWIDTH 1000 0
DWIDTH 16 0
BBX 15 14 1 0
BITMAP
0100
0110
1138
11D0
1310
1D10
F110
1110
1170
1120
1104
1004
1004
0FFE
ENDCHAR
STARTCHAR uni4E69
ENCODING 20073
SWIDTH 1000 0
DWIDTH 16 0
BBX 14 14 2 0
BITMAP
2080
2080
2480
3E80
2080
2080
2480
FE80
8480
8488
8488
8488
FC88
847C
ENDCHAR
STARTCHAR uni4E73
ENCODING 20083
SWIDTH 1000 0
DWIDTH 16 0
BBX 15 14 1 0
BITMAP
0F20
F020
4920
2920
2220
FF20
0420
1820
0B20
1C24
E824
0824
3824
101E
ENDCHAR
STARTCHAR uni4E7E
ENCODING 20094
SWIDTH 1000 0
DWIDTH 16 0
BBX 15 14 1 0
BITMAP
1040
1044
FEFE
1080
7D08
46FC
7C10
4420
7C40
1040
FE80
1084
1084
107E
ENDCHAR
STARTCHAR uni4E7F
ENCODING 20095
SWIDTH 1000 0
DWIDTH 16 0
BBX 15 14 1 0
BITMAP
00A0
FF20
2A20
4920
1020
2120
7E20
04A0
7FA0
2A20
4920
88A2
2822
101E
ENDCHAR
STARTCHAR uni4E82
ENCODING 20098
SWIDTH 1000 0
DWIDTH 16 0
BBX 15 14 1 0
BITMAP
0720
3820
9120
4A20
7F20
1620
FFA0
92A0
BEA0
80A4
BEA4
A4A4
98A4
A69E
ENDCHAR
STARTCHAR uni4E83
ENCODING 20099
SWIDTH 1000 0
DWIDTH 16 0
BBX 15 14 1 0
BITMAP
2A20
2A20
1C20
FFA0
2A20
4920
0920
2120
77A0
9520
67A0
4122
8122
013E
ENDCHAR
STARTCHAR uni4E84
ENCODING 20100
SWIDTH 1000 0
DWIDTH 16 0
BBX 15 14 1 0
BITMAP
0820
FFA0
0820
7F20
0020
FFA0
80A0
BEA0
0020
7F20
4120
7F22
2222
FFBE
ENDCHAR
STARTCHAR uni4E86
ENCODING 20102
SWIDTH 1000 0
DWIDTH 16 0
BBX 14 14 2 0
BITMAP
0008
FFFC
0020
0040
0080
0300
0100
0100
0100
0100
0100
0900
0600
0400
ENDCHAR
STARTCHAR uni4E88
ENCODING 20104
SWIDTH 1000 0
DWIDTH 16 0
BBX 15 14 1 0
BITMAP
0020
3FF0
0040
0680
0104
FFFE
0104
0108
0100
0100
0100
0100
0F00
0200
ENDCHAR
STARTCHAR uni4E8B
ENCODING 20107
SWIDTH 1000 0
DWIDTH 16 0
BBX 15 14 1 0
BITMAP
0100
7FFC
0100
1FF0
1110
1FF0
0108
3FFC
0108
FFFE
0108
3FF8
0100
0700
ENDCHAR
STARTCHAR uni4E8C
ENCODING 20108
SWIDTH 1000 0
DWIDTH 16 0
BBX 15 11 1 1
BITMAP
0010
3FF8
0000
0000
0000
0000
0000
0000
0000
0004
FFFE
ENDCHAR
STARTCHAR uni4E8D
ENCODING 20109
SWIDTH 1000 0
DWIDTH 16 0
BBX 15 14 1 0
BITMAP
0010
3FF8
0000
0004
FFFE
0100
0100
0100
0100
0100
0100
0100
0500
0200
ENDCHAR
STARTCHAR uni4E8E
ENCODING 20110
SWIDTH 1000 0
DWIDTH 16 0
BBX 15 14 1 0
BITMAP
0010
3FF8
0100
0100
0104
FFFE
0100
0100
0100
0100
0100
0100
0F00
0200
ENDCHAR
STARTCHAR uni4E91
ENCODING 20113
SWIDTH 1000 0
DWIDTH 16 0
BBX 15 14 1 0
BITMAP
0020
1FF0
0000
0000
0004
FFFE
0200
0400
0420
0810
1008
7FFC
2002
0002
ENDCHAR
STARTCHAR uni4E92
ENCODING 20114
SWIDTH 1000 0
DWIDTH 16 0
BBX 15 13 1 1
BITMAP
0008
7FFC
0400
0420
0FF0
0820
0820
1020
1FE0
1040
0040
0084
FFFE
ENDCHAR
STARTCHAR uni4E93
ENCODING 20115
SWIDTH 1000 0
DWIDTH 16 0
BBX 15 14 1 0
BITMAP
0010
3FF8
0000
0004
FFFE
0440
0440
0440
0440
0440
0840
0840
1040
2040
ENDCHAR
STARTCHAR uni4E94
ENCODING 20116
SWIDTH 1000 0
DWIDTH 16 0
BBX 15 13 1 1
BITMAP
0010
7FF8
0400
0400
0400
0420
7FF0
0420
0420
0420
0820
0824
FFFE
ENDCHAR
STARTCHAR uni4E95
ENCODING 20117
SWIDTH 1000 0
DWIDTH 16 0
BBX 15 14 1 0
BITMAP
0840
0840
0848
7FFC
0840
0840
0844
FFFE
0840
0840
1040
1040
2040
4040
ENDCHAR
STARTCHAR uni4E99
ENCODING 20121
SWIDTH 1000 0
DWIDTH 16 0
BBX 15 13 1 1
BITMAP
0010
7FF8
0400
0420
07F0
0820
0B20
08A0
1420
1320
0120
0044
FFFE
ENDCHAR
STARTCHAR uni4E9B
ENCODING 20123
SWIDTH 1000 0
DWIDTH 16 0
BBX 15 13 1 1
BITMAP
0440
0440
244C
2770
2440
2442
2742
FC3E
4000
0FF0
0000
0008
3FFC
ENDCHAR
STARTCHAR uni4E9E
ENCODING 20126
SWIDTH 1000 0
DWIDTH 16 0
BBX 15 13 1 1
BITMAP
0008
7FFC
0440
0440
0444
7C7E
4004
4004
7C7C
4444
0440
0444
FFFE
ENDCHAR
STARTCHAR uni4E9F
ENCODING 20127
SWIDTH 1000 0
DWIDTH 16 0
BBX 15 13 1 1
BITMAP
0010
FFF8
0800
0810
1EF8
0210
7A90
4A50
4A20
7A50
4A90
0404
FFFE
ENDCHAR
STARTCHAR uni4EA1
ENCODING 20129
SWIDTH 1000 0
DWIDTH 16 0
BBX 15 13 1 1
BITMAP
0200
0100
0100
0004
FFFE
1000
1000
1000
1000
1000
1000
1008
0FFC
ENDCHAR
STARTCHAR uni4EA2
ENCODING 20130
SWIDTH 1000 0
DWIDTH 16 0
BBX 15 14 1 0
BITMAP
0200
0108
FFFC
0000
0040
1FE0
0840
0840
0840
0840
1044
1044
2044
403E
ENDCHAR
STARTCHAR uni4EA4
ENCODING 20132
SWIDTH 1000 0
DWIDTH 16 0
BBX 15 14 1 0
BITMAP
0100
0104
FFFE
0820
0818
102C
2440
0280
0100
0280
0440
0830
300E
C004
ENDCHAR
STARTCHAR uni4EA5
ENCODING 20133
SWIDTH 1000 0
DWIDTH 16 0
BBX 15 14 1 0
BITMAP
0200
0104
FFFE
0200
0460
1880
0510
0230
0440
18C0
0120
0610
180C
6004
ENDCHAR
STARTCHAR uni4EA6
ENCODING 20134
SWIDTH 1000 0
DWIDTH 16 0
BBX 15 14 1 0
BITMAP
0200
0100
0104
FFFE
0440
0440
2450
2448
4444
8444
0840
0840
11C0
2080
ENDCHAR
STARTCHAR uni4EA8
ENCODING 20136
SWIDTH 1000 0
DWIDTH 16 0
BBX 13 14 2 0
BITMAP
0210
FFF8
0000
3FE0
2020
3FE0
0000
7FE0
0080
0700
0200
0200
0E00
0400
ENDCHAR
STARTCHAR uni4EAB
ENCODING 20139
SWIDTH 1000 0
DWIDTH 16 0
BBX 14 14 2 0
BITMAP
0200
FFF8
0000
1FE0
1020
1FE0
0000
1FE0
0088
FFFC
0100
0100
0700
0200
ENDCHAR
STARTCHAR uni4EAC
ENCODING 20140
SWIDTH 1000 0
DWIDTH 16 0
BBX 15 14 1 0
BITMAP
0200
0104
FFFE
0000
1FF8
1010
1010
1FF0
0100
0920
1918
210C
4704
0200
ENDCHAR
STARTCHAR uni4EAD
ENCODING 20141
SWIDTH 1000 0
DWIDTH 16 0
BBX 15 14 1 0
BITMAP
0100
7FFC
0000
1FF0
1010
1FF0
0000
7FFE
4002
9FF4
0100
0100
0100
0E00
ENDCHAR
STARTCHAR uni4EAE
ENCODING 20142
SWIDTH 1000 0
DWIDTH 16 0
BBX 15 14 1 0
BITMAP
0100
7FFC
0000
1FF0
1010
1FF0
0000
7FFE
4002
8444
0440
0844
1044
203E
ENDCHAR
STARTCHAR uni4EB3
ENCODING 20147
SWIDTH 1000 0
DWIDTH 16 0
BBX 15 14 1 0
BITMAP
0100
7FFC
0000
1FF0
1010
1FF0
0000
FFFE
8022
9FC4
0200
3FF0
0204
03FC
ENDCHAR
STARTCHAR uni4EB6
ENCODING 20150
SWIDTH 1000 0
DWIDTH 16 0
BBX 15 14 1 0
BITMAP
0100
FFFE
3FF8
27C8
2448
27C8
3FF8
0000
1FF0
1010
1FF0
1FF0
1010
FFFE
ENDCHAR
STARTCHAR uni4EB9
ENCODING 20153
SWIDTH 1000 0
DWIDTH 16 0
BBX 15 14 1 0
BITMAP
0100
FFFE
27C0
745C
47C4
775C
4544
FFFE
8002
9FF2
1010
1FD0
1FD0
7FFC
ENDCHAR
STARTCHAR uni4EBA
ENCODING 20154
SWIDTH 1000 0
DWIDTH 16 0
BBX 14 14 2 0
BITMAP
0200
0200
0200
0200
0200
0200
0500
0500
0880
0880
1040
2020
401C
8008
ENDCHAR
STARTCHAR uni4EC0
ENCODING 20160
SWIDTH 1000 0
DWIDTH 16 0
BBX 15 14 1 0
BITMAP
0840
0840
1040
1040
2044
57FE
9040
1040
1040
1040
1040
1040
1040
1040
ENDCHAR
STARTCHAR uni4EC1
ENCODING 20161
SWIDTH 1000 0
DWIDTH 16 0
BBX 15 14 1 0
BITMAP
0800
0800
1008
13FC
2000
5000
9000
1000
1000
1004
17FE
1000
1000
1000
ENDCHAR
STARTCHAR uni4EC2
ENCODING 20162
SWIDTH 1000 0
DWIDTH 16 0
BBX 15 14 1 0
BITMAP
0880
0880
0880
1084
17FE
3084
5084
9084
1084
1104
1104
1248
1428
1810
ENDCHAR
STARTCHAR uni4EC3
ENCODING 20163
SWIDTH 1000 0
DWIDTH 16 0
BBX 15 14 1 0
BITMAP
0800
0804
0BFE
1020
1020
2020
5020
9020
1020
1020
1020
10A0
1060
1040
ENDCHAR
STARTCHAR uni4EC4
ENCODING 20164
SWIDTH 1000 0
DWIDTH 16 0
BBX 15 14 1 0
BITMAP
0008
7FFC
2000
2080
2080
2080
2080
2140
2120
2220
4210
4408
8806
1004
ENDCHAR
STARTCHAR uni4EC6
ENCODING 20166
SWIDTH 1000 0
DWIDTH 16 0
BBX 15 14 1 0
BITMAP
0440
0440
0840
0840
1050
204C
5046
9042
1040
1040
1040
1040
1040
1040
ENDCHAR
STARTCHAR uni4EC7
ENCODING 20167
SWIDTH 1000 0
DWIDTH 16 0
BBX 15 14 1 0
BITMAP
0900
0900
1120
17F0
2120
5120
9120
1120
1120
1124
1224
1224
141E
1000
ENDCHAR
STARTCHAR uni4EC8
ENCODING 20168
SWIDTH 1000 0
DWIDTH 16 0
BBX 15 14 1 0
BITMAP
0800
0800
10F0
2010
6010
A110
2110
2110
2110
2110
2208
2404
2802
2000
ENDCHAR
STARTCHAR uni4EC9
ENCODING 20169
SWIDTH 1000 0
DWIDTH 16 0
BBX 15 14 1 0
BITMAP
0800
0810
09F8
1110
3110
5110
9110
1110
1110
1110
1212
1212
1412
180E
ENDCHAR
STARTCHAR uni4ECA
ENCODING 20170
SWIDTH 1000 0
DWIDTH 16 0
BBX 15 14 1 0
BITMAP
0100
0280
0440
0820
1210
218E
C084
0000
1FF0
0010
0020
0040
0080
0100
ENDCHAR
STARTCHAR uni4ECB
ENCODING 20171
SWIDTH 1000 0
DWIDTH 16 0
BBX 15 14 1 0
BITMAP
0100
0280
0440
0820
1010
244E
C444
0440
0440
0840
0840
0840
1040
2040
ENDCHAR
STARTCHAR uni4ECD
ENCODING 20173
SWIDTH 1000 0
DWIDTH 16 0
BBX 15 14 1 0
BITMAP
1000
1008
27FC
2108
4110
A124
213E
2104
2104
2204
2204
2424
2418
2810
ENDCHAR
STARTCHAR uni4ED4
ENCODING 20180
SWIDTH 1000 0
DWIDTH 16 0
BBX 15 14 1 0
BITMAP
0808
0BFC
1010
1020
30C0
5044
97FE
1020
1020
1020
1020
1020
11E0
1040
ENDCHAR
STARTCHAR uni4ED5
ENCODING 20181
SWIDTH 1000 0
DWIDTH 16 0
BBX 15 14 1 0
BITMAP
0840
0840
1040
1044
2FFE
5040
9040
1040
1040
1040
1048
17FC
1000
1000
ENDCHAR
STARTCHAR uni4ED6
ENCODING 20182
SWIDTH 1000 0
DWIDTH 16 0
BBX 15 14 1 0
BITMAP
0840
0840
1040
1248
227C
53C8
9E48
1248
1250
1240
1244
1204
11FE
1000
ENDCHAR
STARTCHAR uni4ED7
ENCODING 20183
SWIDTH 1000 0
DWIDTH 16 0
BBX 15 14 1 0
BITMAP
0820
0820
1024
17FE
2020
5120
9120
10A0
10A0
1040
10A0
1110
120E
1404
ENDCHAR
STARTCHAR uni4ED8
ENCODING 20184
SWIDTH 1000 0
DWIDTH 16 0
BBX 15 14 1 0
BITMAP
0810
0810
1010
1014
27FE
5010
9010
1210
1110
1110
1010
1010
10F0
1020
ENDCHAR
STARTCHAR uni4ED9
ENCODING 20185
SWIDTH 1000 0
DWIDTH 16 0
BBX 14 14 1 0
BITMAP
1040
1040
2040
2040
4444
A444
2444
2444
2444
2444
2444
27FC
2404
2000
ENDCHAR
STARTCHAR uni4EDA
ENCODING 20186
SWIDTH 1000 0
DWIDTH 16 0
BBX 15 14 1 0
BITMAP
0100
0280
0440
0820
1010
2108
4104
8102
2108
2108
2108
2108
3FF8
2008
ENDCHAR
STARTCHAR uni4EDC
ENCODING 20188
SWIDTH 1000 0
DWIDTH 16 0
BBX 15 14 1 0
BITMAP
0800
0800
1008
27FC
C040
2040
2040
2040
2040
2040
2040
2044
2FFE
2000
ENDCHAR
STARTCHAR uni4EDD
ENCODING 20189
SWIDTH 1000 0
DWIDTH 16 0
BBX 15 14 1 0
BITMAP
0100
0280
0440
0820
1010
200E
C024
1FF0
0100
0100
0100
0100
0108
7FFC
ENDCHAR
STARTCHAR uni4EDE
ENCODING 20190
SWIDTH 1000 0
DWIDTH 16 0
BBX 15 14 1 0
BITMAP
0800
0804
0BFE
1044
3044
5244
9144
1144
1084
1084
1104
1204
1438
1810
ENDCHAR
STARTCHAR uni4EDF
ENCODING 20191
SWIDTH 1000 0
DWIDTH 16 0
BBX 15 14 1 0
BITMAP
0810
0838
0BC0
1040
2040
5044
97FE
1040
1040
1040
1040
1040
1040
1040
ENDCHAR
STARTCHAR uni4EE1
ENCODING 20193
SWIDTH 1000 0
DWIDTH 16 0
BBX 15 14 1 0
BITMAP
1200
1204
13FE
2400
69FC
A008
2010
2020
2040
2080
2102
2202
2202
21FE
ENDCHAR
STARTCHAR uni4EE3
ENCODING 20195
SWIDTH 1000 0
DWIDTH 16 0
BBX 15 14 1 0
BITMAP
0880
08A0
0890
1090
1084
20FE
5780
9040
1040
1020
1024
1014
100C
1006
ENDCHAR
STARTCHAR uni4EE4
ENCODING 20196
SWIDTH 1000 0
DWIDTH 16 0
BBX 15 14 1 0
BITMAP
0100
0280
0440
0A20
1110
210E
C024
0FF0
0020
0040
0480
0300
0100
0100
ENDCHAR
STARTCHAR uni4EE5
ENCODING 20197
SWIDTH 1000 0
DWIDTH 16 0
BBX 15 14 1 0
BITMAP
0410
2210
2310
2110
2010
2010
2010
2210
2410
2820
3030
6048
C18C
8606
ENDCHAR
STARTCHAR uni4EE8
ENCODING 20200
SWIDTH 1000 0
DWIDTH 16 0
BBX 15 14 1 0
BITMAP
0800
0808
0BFC
1000
3000
5008
93FC
1000
1000
1000
1004
1FFE
1000
1000
ENDCHAR
STARTCHAR uni4EE9
ENCODING 20201
SWIDTH 1000 0
DWIDTH 16 0
BBX 15 14 1 0
BITMAP
0800
0880
1080
2080
6080
A088
20FC
2080
2080
2080
2080
2080
2084
2FFE
ENDCHAR
STARTCHAR uni4EF0
ENCODING 20208
SWIDTH 1000 0
DWIDTH 16 0
BBX 15 14 1 0
BITMAP
1000
1080
2104
4E7E
A444
2444
2444
2444
2444
255C
2648
2C40
2040
2040
ENDCHAR
STARTCHAR uni4EF1
ENCODING 20209
SWIDTH 1000 0
DWIDTH 16 0
BBX 15 14 1 0
BITMAP
1040
10A0
2110
4208
8404
4882
5040
4020
47FC
4004
4008
4010
4020
4040
ENDCHAR
STARTCHAR uni4EF2
ENCODING 20210
SWIDTH 1000 0
DWIDTH 16 0
BBX 15 14 1 0
BITMAP
0840
0840
1040
2044
47FE
A444
2444
2444
27FC
2444
2040
2040
2040
2040
ENDCHAR
STARTCHAR uni4EF3
ENCODING 20211
SWIDTH 1000 0
DWIDTH 16 0
BBX 15 14 1 0
BITMAP
0820
0A20
1220
1224
222C
53B0
9220
1220
1220
1224
12A4
1324
161E
1000
ENDCHAR
STARTCHAR uni4EF4
ENCODING 20212
SWIDTH 1000 0
DWIDTH 16 0
BBX 15 14 1 0
BITMAP
0804
11FE
2104
E104
21FC
2104
2104
21FC
2104
2104
2104
2104
2214
2008
ENDCHAR
STARTCHAR uni4EF5
ENCODING 20213
SWIDTH 1000 0
DWIDTH 16 0
BBX 15 14 1 0
BITMAP
0900
0908
13FC
1240
3440
5040
9044
1FFE
1040
1040
1040
1040
1040
1040
ENDCHAR
STARTCHAR uni4EF6
ENCODING 20214
SWIDTH 1000 0
DWIDTH 16 0
BBX 15 14 1 0
BITMAP
1040
1240
2248
23FC
4440
A440
2840
2044
2FFE
2040
2040
2040
2040
2040
ENDCHAR
STARTCHAR uni4EF7
ENCODING 20215
SWIDTH 1000 0
DWIDTH 16 0
BBX 15 14 1 0
BITMAP
1040
20A0
4110
8208
4404
4912
4110
4110
4110
4110
4110
4210
4410
4010
ENDCHAR
STARTCHAR uni4EFB
ENCODING 20219
SWIDTH 1000 0
DWIDTH 16 0
BBX 15 14 1 0
BITMAP
0800
0808
103C
13C0
2040
5040
9044
17FE
1040
1040
1040
1048
13FC
1000
ENDCHAR
STARTCHAR uni4EFD
ENCODING 20221
SWIDTH 1000 0
DWIDTH 16 0
BBX 15 14 1 0
BITMAP
0820
0920
1110
1210
220E
5404
9810
13F8
1110
1110
1210
1210
14E0
1040
ENDCHAR
STARTCHAR uni4EFF
ENCODING 20223
SWIDTH 1000 0
DWIDTH 16 0
BBX 15 14 1 0
BITMAP
0880
0840
1004
17FE
2080
5088
90FC
1088
1088
1088
1108
1108
1270
1420
ENDCHAR
STARTCHAR uni4F00
ENCODING 20224
SWIDTH 1000 0
DWIDTH 16 0
BBX 15 14 1 0
BITMAP
0800
0890
1090
2108
4204
A402
2842
2040
2040
2080
2110
2208
27FC
2002
ENDCHAR
STARTCHAR uni4F01
ENCODING 20225
SWIDTH 1000 0
DWIDTH 16 0
BBX 15 13 1 1
BITMAP
0100
0280
0440
0820
1110
210E
C104
0920
09F0
0900
0900
0904
FFFE
ENDCHAR
STARTCHAR uni4F02
ENCODING 20226
SWIDTH 1000 0
DWIDTH 16 0
BBX 15 14 1 0
BITMAP
0820
0824
13FE
2020
C020
23FE
2222
2222
2222
222A
2224
2020
2020
2020
ENDCHAR
STARTCHAR uni4F04
ENCODING 20228
SWIDTH 1000 0
DWIDTH 16 0
BBX 15 14 1 0
BITMAP
0800
13FC
2044
6044
A7FC
2440
2440
2FFE
2042
2042
2054
2048
2040
2040
ENDCHAR
STARTCHAR uni4F05
ENCODING 20229
SWIDTH 1000 0
DWIDTH 16 0
BBX 15 14 1 0
BITMAP
0840
0840
1048
27FC
C040
2444
2444
2444
27FC
2040
2040
2042
2042
207E
ENDCHAR
STARTCHAR uni4F08
ENCODING 20232
SWIDTH 1000 0
DWIDTH 16 0
BBX 15 14 1 0
BITMAP
1000
1080
2040
4020
8100
4508
4506
4502
4900
5100
4100
4104
4104
40FC
ENDCHAR
STARTCHAR uni4F09
ENCODING 20233
SWIDTH 1000 0
DWIDTH 16 0
BBX 15 14 1 0
BITMAP
0880
0844
13FE
1000
2010
51F8
9110
1110
1110
1110
1112
1212
1212
140E
ENDCHAR
STARTCHAR uni4F0A
ENCODING 20234
SWIDTH 1000 0
DWIDTH 16 0
BBX 15 14 1 0
BITMAP
0808
0BFC
0888
1088
27FE
5088
9088
13F8
1088
1080
1100
1100
1200
1400
ENDCHAR
STARTCHAR uni4F0B
ENCODING 20235
SWIDTH 1000 0
DWIDTH 16 0
BBX 15 14 1 0
BITMAP
1008
17FC
2108
2110
4124
A17E
2104
2284
2248
2230
2430
2448
2886
2102
ENDCHAR
STARTCHAR uni4F0D
ENCODING 20237
SWIDTH 1000 0
DWIDTH 16 0
BBX 15 14 1 0
BITMAP
1000
1010
17F8
2080
4080
A090
27F8
2110
2110
2110
2110
2114
2FFE
2000
ENDCHAR
STARTCHAR uni4F0E
ENCODING 20238
SWIDTH 1000 0
DWIDTH 16 0
BBX 15 14 1 0
BITMAP
0840
0844
17FE
3040
5040
93F8
1208
1110
1110
10A0
1040
10B0
110E
1604
ENDCHAR
STARTCHAR uni4F0F
ENCODING 20239
SWIDTH 1000 0
DWIDTH 16 0
BBX 15 14 1 0
BITMAP
0850
0848
1048
1040
27FE
5040
9040
10A0
10A0
1110
1110
1208
1406
1804
ENDCHAR
STARTCHAR uni4F10
ENCODING 20240
SWIDTH 1000 0
DWIDTH 16 0
BBX 15 14 1 0
BITMAP
0880
08A0
0890
1090
20FC
5780
9088
1090
1060
1040
10A4
1114
120C
1006
ENDCHAR
STARTCHAR uni4F11
ENCODING 20241
SWIDTH 1000 0
DWIDTH 16 0
BBX 15 14 1 0
BITMAP
0840
0840
1044
17FE
3040
50E0
90E0
1150
1150
1248
1446
1844
1040
1040
ENDCHAR
STARTCHAR uni4F12
ENCODING 20242
SWIDTH 1000 0
DWIDTH 16 0
BBX 15 14 1 0
BITMAP
0800
0802
13FC
2100
E104
21FE
2110
2110
2110
2110
2110
2210
2410
2010
ENDCHAR
STARTCHAR uni4F13
ENCODING 20243
SWIDTH 1000 0
DWIDTH 16 0
BBX 15 14 1 0
BITMAP
1004
27FE
4010
8020
4040
4080
4140
4248
4C44
4042
4040
4040
4040
4080
ENDCHAR
STARTCHAR uni4F14
ENCODING 20244
SWIDTH 1000 0
DWIDTH 16 0
BBX 15 14 1 0
BITMAP
1000
17FC
2404
4404
A000
2120
2120
2120
2120
2120
2120
2122
2222
243E
ENDCHAR
STARTCHAR uni4F15
ENCODING 20245
SWIDTH 1000 0
DWIDTH 16 0
BBX 15 14 1 0
BITMAP
1040
1040
2048
23FC
4040
A040
2044
27FE
20A0
2090
2110
2208
2406
2804
ENDCHAR
STARTCHAR uni4F18
ENCODING 20248
SWIDTH 1000 0
DWIDTH 16 0
BBX 15 14 1 0
BITMAP
1088
1084
2082
4080
8FFE
4080
40A0
40A0
40A0
4120
4220
4422
4822
503E
ENDCHAR
STARTCHAR uni4F19
ENCODING 20249
SWIDTH 1000 0
DWIDTH 16 0
BBX 15 14 1 0
BITMAP
0840
0840
1040
2244
424C
A248
2450
2040
20A0
2110
2110
2208
240E
2804
ENDCHAR
STARTCHAR uni4F1D
ENCODING 20253
SWIDTH 1000 0
DWIDTH 16 0
BBX 15 14 1 0
BITMAP
1000
1008
27FC
4000
8000
4004
4FFE
4040
4040
4080
4108
4204
4FFE
4002
ENDCHAR
STARTCHAR uni4F22
ENCODING 20258
SWIDTH 1000 0
DWIDTH 16 0
BBX 15 14 1 0
BITMAP
0808
0BFC
1010
3110
5214
93FE
1030
1050
1090
1110
1210
1410
1050
1020
ENDCHAR
STARTCHAR uni4F2C
ENCODING 20268
SWIDTH 1000 0
DWIDTH 16 0
BBX 15 14 1 0
BITMAP
1000
17FC
2404
4404
8404
47FC
4500
4480
4440
4420
4410
4408
4804
5002
ENDCHAR
STARTCHAR uni4F2D
ENCODING 20269
SWIDTH 1000 0
DWIDTH 16 0
BBX 15 14 1 0
BITMAP
1080
2040
4FFE
A000
2080
2108
2210
27E0
2040
2080
2108
2208
2FFC
2004
ENDCHAR
STARTCHAR uni4F2F
ENCODING 20271
SWIDTH 1000 0
DWIDTH 16 0
BBX 15 14 1 0
BITMAP
0880
0880
1104
13FE
2504
5104
9104
11FC
1104
1104
1104
1104
11FC
1104
ENDCHAR
STARTCHAR uni4F30
ENCODING 20272
SWIDTH 1000 0
DWIDTH 16 0
BBX 15 14 1 0
BITMAP
0840
0840
1044
17FE
2040
5040
9048
13FC
1208
1208
1208
1208
13F8
1208
ENDCHAR
STARTCHAR uni4F33
ENCODING 20275
SWIDTH 1000 0
DWIDTH 16 0
BBX 15 14 1 0
BITMAP
0A00
1248
2248
6248
AFFE
2248
2248
2248
2248
2278
2200
2200
2200
21FE
ENDCHAR
STARTCHAR uni4F34
ENCODING 20276
SWIDTH 1000 0
DWIDTH 16 0
BBX 15 14 1 0
BITMAP
0840
0A48
0948
1150
2040
33F8
5040
9044
17FE
1040
1040
1040
1040
1040
ENDCHAR
STARTCHAR uni4F36
ENCODING 20278
SWIDTH 1000 0
DWIDTH 16 0
BBX 15 14 1 0
BITMAP
0840
08A0
10A0
1110
2288
544E
9844
1000
13F8
1008
1090
1060
1040
1040
ENDCHAR
STARTCHAR uni4F38
ENCODING 20280
SWIDTH 1000 0
DWIDTH 16 0
BBX 15 14 1 0
BITMAP
0840
0840
0844
17FE
3444
5444
97FC
1444
1444
17FC
1444
1040
1040
1040
ENDCHAR
STARTCHAR uni4F3A
ENCODING 20282
SWIDTH 1000 0
DWIDTH 16 0
BBX 15 14 1 0
BITMAP
0804
0BFE
1004
1024
23F4
5004
93F4
1224
1224
13E4
1224
1004
101C
1008
ENDCHAR
STARTCHAR uni4F3B
ENCODING 20283
SWIDTH 1000 0
DWIDTH 16 0
BBX 15 14 1 0
BITMAP
0804
0BFE
1020
2222
6124
A0A8
2020
27FE
2020
2020
2020
2020
2020
2020
ENDCHAR
STARTCHAR uni4F3C
ENCODING 20284
SWIDTH 1000 0
DWIDTH 16 0
BBX 15 14 1 0
BITMAP
0800
0808
1088
1248
2248
6248
A208
2208
2288
2318
2214
2C22
2042
2080
ENDCHAR
STARTCHAR uni4F3D
ENCODING 20285
SWIDTH 1000 0
DWIDTH 16 0
BBX 15 14 1 0
BITMAP
2400
2400
4400
4484
9FFE
44A4
44A4
44A4
44A4
44A4
48A4
48BC
53A4
4100
ENDCHAR
STARTCHAR uni4F3E
ENCODING 20286
SWIDTH 1000 0
DWIDTH 16 0
BBX 15 14 1 0
BITMAP
0800
1008
27FC
4020
C060
40C0
4140
4250
4448
4844
4044
4040
4040
4FFE
ENDCHAR
STARTCHAR uni4F3F
ENCODING 20287
SWIDTH 1000 0
DWIDTH 16 0
BBX 15 14 1 0
BITMAP
0800
13FC
2204
C204
2204
2204
23FC
2204
2000
2108
2204
2402
2802
2000
ENDCHAR
STARTCHAR uni4F41
ENCODING 20289
SWIDTH 1000 0
DWIDTH 16 0
BBX 15 14 1 0
BITMAP
0840
1040
2080
6108
A204
27FE
2002
2000
23FC
2204
2204
2204
23FC
2204
ENDCHAR
STARTCHAR uni4F43
ENCODING 20291
SWIDTH 1000 0
DWIDTH 16 0
BBX 15 14 1 0
BITMAP
1000
1000
1004
27FE
2444
4444
A444
27FC
2444
2444
2444
27FC
2404
2000
ENDCHAR
STARTCHAR uni4F46
ENCODING 20294
SWIDTH 1000 0
DWIDTH 16 0
BBX 15 14 1 0
BITMAP
1000
1008
13FC
2208
4208
A3F8
2208
2208
23F8
2208
2000
2004
2FFE
2000
ENDCHAR
STARTCHAR uni4F47
ENCODING 20295
SWIDTH 1000 0
DWIDTH 16 0
BBX 15 14 1 0
BITMAP
1040
1040
27FE
4402
A404
2010
27FC
2040
2040
2040
2040
2040
23C0
2080
ENDCHAR
STARTCHAR uni4F48
ENCODING 20296
SWIDTH 1000 0
DWIDTH 16 0
BBX 15 14 1 0
BITMAP
1080
1084
17FE
2100
4140
A244
27FE
2A44
3244
2244
2244
225C
2248
2040
ENDCHAR
STARTCHAR uni4F49
ENCODING 20297
SWIDTH 1000 0
DWIDTH 16 0
BBX 15 14 1 0
BITMAP
1040
1040
2040
47FC
C040
4040
4040
4FFE
4040
4080
4100
4208
4FFC
4004
ENDCHAR
STARTCHAR uni4F4C
ENCODING 20300
SWIDTH 1000 0
DWIDTH 16 0
BBX 15 14 1 0
BITMAP
1220
2220
4220
8220
4220
43BE
4220
4A20
4A20
4A20
4A20
4A22
4BA2
5C3E
ENDCHAR
STARTCHAR uni4F4D
ENCODING 20301
SWIDTH 1000 0
DWIDTH 16 0
BBX 15 14 1 0
BITMAP
0880
0840
1048
17FC
2000
5208
9108
1110
1130
1020
1044
17FE
1000
1000
ENDCHAR
STARTCHAR uni4F4E
ENCODING 20302
SWIDTH 1000 0
DWIDTH 16 0
BBX 15 14 1 0
BITMAP
1008
103C
17C0
2440
4440
A448
27FC
2440
2440
2420
2524
2614
2C0C
25E6
ENDCHAR
STARTCHAR uni4F4F
ENCODING 20303
SWIDTH 1000 0
DWIDTH 16 0
BBX 15 14 1 0
BITMAP
0880
0840
0844
13FE
2040
5040
9048
13FC
1040
1040
1040
1044
17FE
1000
ENDCHAR
STARTCHAR uni4F50
ENCODING 20304
SWIDTH 1000 0
DWIDTH 16 0
BBX 15 14 1 0
BITMAP
0880
0884
17FE
1080
3080
5100
9108
11FC
1220
1420
1820
1024
17FE
1000
ENDCHAR
STARTCHAR uni4F51
ENCODING 20305
SWIDTH 1000 0
DWIDTH 16 0
BBX 15 14 1 0
BITMAP
0880
0880
1084
17FE
2100
5100
9208
13FC
1508
1908
1108
1108
11F8
1108
ENDCHAR
STARTCHAR uni4F52
ENCODING 20306
SWIDTH 1000 0
DWIDTH 16 0
BBX 15 14 1 0
BITMAP
1040
1040
1040
27FC
4444
C444
4444
5FFE
40A0
4110
4208
4404
4802
5002
ENDCHAR
STARTCHAR uni4F53
ENCODING 20307
SWIDTH 1000 0
DWIDTH 16 0
BBX 15 14 1 0
BITMAP
1080
1080
2088
2FFC
62A0
A2A0
2490
2490
2888
2BEE
3084
2080
2080
2080
ENDCHAR
STARTCHAR uni4F54
ENCODING 20308
SWIDTH 1000 0
DWIDTH 16 0
BBX 15 14 1 0
BITMAP
0840
0840
1048
107C
2040
5040
9044
13FE
1204
1204
1204
1204
13FC
1204
ENDCHAR
STARTCHAR uni4F55
ENCODING 20309
SWIDTH 1000 0
DWIDTH 16 0
BBX 15 14 1 0
BITMAP
1000
1004
17FE
2008
6048
A7E8
2448
2448
2448
27C8
2448
2008
2038
2010
ENDCHAR
STARTCHAR uni4F56
ENCODING 20310
SWIDTH 1000 0
DWIDTH 16 0
BBX 15 14 1 0
BITMAP
0800
1080
2044
6124
A504
2508
2510
2524
2942
2182
2100
2304
2504
20FC
ENDCHAR
STARTCHAR uni4F57
ENCODING 20311
SWIDTH 1000 0
DWIDTH 16 0
BBX 15 14 1 0
BITMAP
0840
0844
17FE
1404
2408
5100
9108
1110
1120
11C0
1104
1104
1104
10FE
ENDCHAR
STARTCHAR uni4F58
ENCODING 20312
SWIDTH 1000 0
DWIDTH 16 0
BBX 15 14 1 0
BITMAP
0100
0280
0440
0830
300E
CFE4
0000
7FFC
0100
0920
1918
210C
4504
0200
ENDCHAR
STARTCHAR uni4F59
ENCODING 20313
SWIDTH 1000 0
DWIDTH 16 0
BBX 15 14 1 0
BITMAP
0100
0280
0440
0820
1010
2FEE
C104
0110
3FF8
0100
1120
2118
4708
0200
ENDCHAR
STARTCHAR uni4F5A
ENCODING 20314
SWIDTH 1000 0
DWIDTH 16 0
BBX 15 14 1 0
BITMAP
1040
1240
2248
23FC
4240
A440
2044
27FE
2040
20A0
2090
2108
2206
2404
ENDCHAR
STARTCHAR uni4F5B
ENCODING 20315
SWIDTH 1000 0
DWIDTH 16 0
BBX 15 14 1 0
BITMAP
1120
1128
27FC
2128
4128
A7F8
2520
2524
2FFE
2124
2224
222C
2428
2820
ENDCHAR
STARTCHAR uni4F5C
ENCODING 20316
SWIDTH 1000 0
DWIDTH 16 0
BBX 15 14 1 0
BITMAP
0900
0904
11FE
1240
2240
5448
907C
1040
1040
1044
107E
1040
1040
1040
ENDCHAR
STARTCHAR uni4F5D
ENCODING 20317
SWIDTH 1000 0
DWIDTH 16 0
BBX 15 14 1 0
BITMAP
0900
0904
13FE
1204
2424
5BF4
9224
1224
1224
13E4
1224
1004
1038
1010
ENDCHAR
STARTCHAR uni4F5E
ENCODING 20318
SWIDTH 1000 0
DWIDTH 16 0
BBX 15 14 1 0
BITMAP
0810
0BF8
1000
17FC
2080
5084
9FFE
1110
1210
1120
10C0
10A0
1118
1208
ENDCHAR
STARTCHAR uni4F5F
ENCODING 20319
SWIDTH 1000 0
DWIDTH 16 0
BBX 15 14 1 0
BITMAP
0900
09F8
1210
1520
38A0
5040
90A0
139E
1C64
1020
1180
1060
1030
1010
ENDCHAR
STARTCHAR uni4F60
ENCODING 20320
SWIDTH 1000 0
DWIDTH 16 0
BBX 15 14 1 0
BITMAP
1100
1104
23FE
2204
4448
A840
2040
2250
2248
2244
2444
2044
21C0
2080
ENDCHAR
STARTCHAR uni4F61
ENCODING 20321
SWIDTH 1000 0
DWIDTH 16 0
BBX 15 14 1 0
BITMAP
0840
1040
2040
60A0
A110
2208
2C46
2040
2444
2444
2444
2444
27FC
2404
ENDCHAR
STARTCHAR uni4F62
ENCODING 20322
SWIDTH 1000 0
DWIDTH 16 0
BBX 15 14 1 0
BITMAP
0800
0BFE
1200
2200
6200
A3FC
2204
2204
2204
23FC
2200
2200
2200
23FE
ENDCHAR
STARTCHAR uni4F63
ENCODING 20323
SWIDTH 1000 0
DWIDTH 16 0
BBX 15 14 1 0
BITMAP
1000
1004
27FE
4444
A444
27FC
2444
2444
27FC
2444
2444
2444
2844
300C
ENDCHAR
STARTCHAR uni4F64
ENCODING 20324
SWIDTH 1000 0
DWIDTH 16 0
BBX 15 14 1 0
BITMAP
0804
0FFE
1100
1110
31F8
5110
9110
1190
1250
1210
13D2
1612
100E
1000
ENDCHAR
STARTCHAR uni4F67
ENCODING 20327
SWIDTH 1000 0
DWIDTH 16 0
BBX 15 14 1 0
BITMAP
0880
0890
10F8
1080
3080
5084
9FFE
1080
10C0
10A0
1098
1088
1080
1080
ENDCHAR
STARTCHAR uni4F69
ENCODING 20329
SWIDTH 1000 0
DWIDTH 16 0
BBX 15 14 1 0
BITMAP
1008
1FFC
2808
2BE8
4888
A888
2BE8
2AA8
2AA8
2AA8
2AAA
2AEA
3086
2082
ENDCHAR
STARTCHAR uni4F6A
ENCODING 20330
SWIDTH 1000 0
DWIDTH 16 0
BBX 15 14 1 0
BITMAP
1000
1000
2FFE
4802
8802
49F2
4912
4912
4912
49F2
4802
4802
4FFE
4802
ENDCHAR
STARTCHAR uni4F6B
ENCODING 20331
SWIDTH 1000 0
DWIDTH 16 0
BBX 15 14 1 0
BITMAP
0900
13F8
2510
C8A0
2040
20A0
2110
2E0E
23F8
2208
2208
2208
23F8
2208
ENDCHAR
STARTCHAR uni4F6C
ENCODING 20332
SWIDTH 1000 0
DWIDTH 16 0
BBX 15 14 1 0
BITMAP
0880
0884
17EC
1090
20A0
50C4
9FFE
1100
1300
1538
19C0
1104
1104
10FE
ENDCHAR
STARTCHAR uni4F6E
ENCODING 20334
SWIDTH 1000 0
DWIDTH 16 0
BBX 15 14 1 0
BITMAP
0840
08A0
1110
2208
4404
A9F2
2000
2000
23F8
2208
2208
2208
23F8
2208
ENDCHAR
STARTCHAR uni4F6F
ENCODING 20335
SWIDTH 1000 0
DWIDTH 16 0
BBX 15 14 1 0
BITMAP
1118
1090
10A0
27FC
6040
A050
23F8
2040
2044
2FFE
2040
2040
2040
2040
ENDCHAR
STARTCHAR uni4F70
ENCODING 20336
SWIDTH 1000 0
DWIDTH 16 0
BBX 15 14 1 0
BITMAP
0800
0804
0BFE
1040
1040
2088
53FC
9208
1208
13F8
1208
1208
13F8
1208
ENDCHAR
STARTCHAR uni4F73
ENCODING 20339
SWIDTH 1000 0
DWIDTH 16 0
BBX 15 14 1 0
BITMAP
0840
0840
13FC
1040
2044
57FE
9040
1040
13FC
1040
1040
1044
17FE
1000
ENDCHAR
STARTCHAR uni4F74
ENCODING 20340
SWIDTH 1000 0
DWIDTH 16 0
BBX 15 14 1 0
BITMAP
0FFE
0908
1108
11F8
3108
5108
91F8
1108
1108
117E
1788
1008
1008
1008
ENDCHAR
STARTCHAR uni4F75
ENCODING 20341
SWIDTH 1000 0
DWIDTH 16 0
BBX 15 14 1 0
BITMAP
1218
1110
2120
47FC
A110
2110
2114
2FFE
2110
2110
2210
2210
2410
2810
ENDCHAR
STARTCHAR uni4F76
ENCODING 20342
SWIDTH 1000 0
DWIDTH 16 0
BBX 15 14 1 0
BITMAP
0840
0844
1FFE
1040
3048
57FC
9000
1008
13FC
1208
1208
1208
13F8
1208
ENDCHAR
STARTCHAR uni4F77
ENCODING 20343
SWIDTH 1000 0
DWIDTH 16 0
BBX 15 14 1 0
BITMAP
1008
13FC
2208
63F8
A208
23F8
2200
2244
2248
2230
2250
2288
2304
2E02
ENDCHAR
STARTCHAR uni4F78
ENCODING 20344
SWIDTH 1000 0
DWIDTH 16 0
BBX 15 14 1 0
BITMAP
1008
2070
4FC0
C040
4040
4FFE
4040
4040
47FC
4404
4404
4404
47FC
4404
ENDCHAR
STARTCHAR uni4F79
ENCODING 20345
SWIDTH 1000 0
DWIDTH 16 0
BBX 15 14 1 0
BITMAP
1100
23F8
4410
8020
47FE
4400
45FC
4484
4484
44B8
4480
4482
4882
40FE
ENDCHAR
STARTCHAR uni4F7A
ENCODING 20346
SWIDTH 1000 0
DWIDTH 16 0
BBX 15 14 1 0
BITMAP
1040
10A0
2110
420E
AC04
23F8
2040
2040
23F8
2040
2040
2044
2FFE
2000
ENDCHAR
STARTCHAR uni4F7B
ENCODING 20347
SWIDTH 1000 0
DWIDTH 16 0
BBX 15 14 1 0
BITMAP
0920
0920
1124
112C
2530
5320
9130
132C
1D24
1120
1222
1222
141E
1000
ENDCHAR
STARTCHAR uni4F7C
ENCODING 20348
SWIDTH 1000 0
DWIDTH 16 0
BBX 15 14 1 0
BITMAP
0880
0844
17FE
1120
3110
520C
9514
1110
10A0
1040
10A0
1110
120E
1C04
ENDCHAR
STARTCHAR uni4F7D
ENCODING 20349
SWIDTH 1000 0
DWIDTH 16 0
BBX 15 14 1 0
BITMAP
1100
2100
41FE
9122
4922
4424
4020
4020
4420
4850
5088
4104
4202
4402
ENDCHAR
STARTCHAR uni4F7E
ENCODING 20350
SWIDTH 1000 0
DWIDTH 16 0
BBX 15 14 1 0
BITMAP
0800
0920
1110
220E
4C10
A3F8
2210
23F0
2210
23F0
2210
2210
2270
2220
ENDCHAR
STARTCHAR uni4F7F
ENCODING 20351
SWIDTH 1000 0
DWIDTH 16 0
BBX 15 14 1 0
BITMAP
1040
1044
17FE
2040
4044
A7FE
2444
27FC
2444
2140
20C0
2130
220E
2C04
ENDCHAR
STARTCHAR uni4F80
ENCODING 20352
SWIDTH 1000 0
DWIDTH 16 0
BBX 15 14 1 0
BITMAP
1002
2FC2
4482
848A
448A
448A
5FEA
448A
448A
4482
4482
4882
408A
4084
ENDCHAR
STARTCHAR uni4F81
ENCODING 20353
SWIDTH 1000 0
DWIDTH 16 0
BBX 15 14 1 0
BITMAP
1040
2448
47FC
8440
4840
4044
4FFE
4120
4120
4120
4220
4422
4822
503E
ENDCHAR
STARTCHAR uni4F82
ENCODING 20354
SWIDTH 1000 0
DWIDTH 16 0
BBX 15 14 1 0
BITMAP
1020
2FFE
4800
8808
4870
4BC0
4840
4840
4BFE
4840
4840
4842
5042
407E
ENDCHAR
STARTCHAR uni4F83
ENCODING 20355
SWIDTH 1000 0
DWIDTH 16 0
BBX 15 14 1 0
BITMAP
0808
0BFC
0A08
1208
23F8
5000
9150
1150
1150
1252
1252
1452
184E
1000
ENDCHAR
STARTCHAR uni4F84
ENCODING 20356
SWIDTH 1000 0
DWIDTH 16 0
BBX 15 14 1 0
BITMAP
0800
0808
0FFC
1100
3208
57FC
9044
1040
1048
17FC
1040
1044
1FFE
1000
ENDCHAR
STARTCHAR uni4F85
ENCODING 20357
SWIDTH 1000 0
DWIDTH 16 0
BBX 15 14 1 0
BITMAP
1080
2044
4FFE
8080
4110
4220
47C8
4090
4120
4260
4490
4108
4204
4C02
ENDCHAR
STARTCHAR uni4F86
ENCODING 20358
SWIDTH 1000 0
DWIDTH 16 0
BBX 15 14 1 0
BITMAP
0100
0104
FFFE
1120
1120
2930
4D4C
0380
0540
0920
1110
210E
4704
0200
ENDCHAR
STARTCHAR uni4F87
ENCODING 20359
SWIDTH 1000 0
DWIDTH 16 0
BBX 15 14 1 0
BITMAP
1080
2FF8
4080
87F8
4088
4FF8
4880
4FFE
4082
4142
4224
4410
4808
5006
ENDCHAR
STARTCHAR uni4F88
ENCODING 20360
SWIDTH 1000 0
DWIDTH 16 0
BBX 15 14 1 0
BITMAP
0888
08FC
1110
1720
20C0
5090
9124
167E
1084
1348
1030
1020
10C0
1300
ENDCHAR
STARTCHAR uni4F89
ENCODING 20361
SWIDTH 1000 0
DWIDTH 16 0
BBX 15 14 1 0
BITMAP
0840
0884
1FFE
1120
3210
54EE
9804
13F8
1100
11F8
1008
1090
1050
1020
ENDCHAR
STARTCHAR uni4F8B
ENCODING 20363
SWIDTH 1000 0
DWIDTH 16 0
BBX 15 14 1 0
BITMAP
1002
1042
17E2
2202
43D2
A252
2452
2C92
2292
2112
2202
2402
280E
2004
ENDCHAR
STARTCHAR uni4F8D
ENCODING 20365
SWIDTH 1000 0
DWIDTH 16 0
BBX 15 14 1 0
BITMAP
0840
0848
13FC
1040
2044
57FE
9010
1014
17FE
1210
1110
1110
1010
1030
ENDCHAR
STARTCHAR uni4F8F
ENCODING 20367
SWIDTH 1000 0
DWIDTH 16 0
BBX 15 14 1 0
BITMAP
0840
0A40
1248
13FC
2440
5044
97FE
10C0
10E0
1150
1248
144E
1844
1040
ENDCHAR
STARTCHAR uni4F90
ENCODING 20368
SWIDTH 1000 0
DWIDTH 16 0
BBX 15 14 1 0
BITMAP
0800
1080
2100
6204
A7FE
2CA4
24A4
24A4
24A4
24A4
24A4
24A4
2FFE
2000
ENDCHAR
STARTCHAR uni4F91
ENCODING 20369
SWIDTH 1000 0
DWIDTH 16 0
BBX 15 14 1 0
BITMAP
0880
0884
17FE
1100
2108
53FC
9508
19F8
1108
11F8
1108
1108
1138
1110
ENDCHAR
STARTCHAR uni4F92
ENCODING 20370
SWIDTH 1000 0
DWIDTH 16 0
BBX 15 14 1 0
BITMAP
0820
13FE
2202
C282
2088
23FE
2088
2088
2088
2050
2020
2050
2088
2306
ENDCHAR
STARTCHAR uni4F94
ENCODING 20372
SWIDTH 1000 0
DWIDTH 16 0
BBX 15 14 1 0
BITMAP
0880
0910
1208
17FC
3244
5240
93F8
1440
1044
1FFE
1040
1040
1040
1040
ENDCHAR
STARTCHAR uni4F95
ENCODING 20373
SWIDTH 1000 0
DWIDTH 16 0
BBX 15 14 1 0
BITMAP
1004
17FE
2040
4080
A7FE
2492
2492
2492
2492
2492
2492
2492
2402
2404
ENDCHAR
STARTCHAR uni4F96
ENCODING 20374
SWIDTH 1000 0
DWIDTH 16 0
BBX 14 14 2 0
BITMAP
0700
0880
1040
2020
5FDC
8000
0010
7FF8
4910
4910
7FF0
4910
4970
4020
ENDCHAR
STARTCHAR uni4F97
ENCODING 20375
SWIDTH 1000 0
DWIDTH 16 0
BBX 15 14 1 0
BITMAP
0804
0BFE
1204
13FC
3204
5204
92F4
1294
1294
12F4
1204
1204
1214
1208
ENDCHAR
STARTCHAR uni4F98
ENCODING 20376
SWIDTH 1000 0
DWIDTH 16 0
BBX 15 14 1 0
BITMAP
1080
2040
4FFE
8802
481A
4062
4780
4080
4FFE
4080
4080
4082
4082
40FE
ENDCHAR
STARTCHAR uni4F9A
ENCODING 20378
SWIDTH 1000 0
DWIDTH 16 0
BBX 15 14 1 0
BITMAP
1200
2200
43FE
8402
4002
43E2
4222
43E2
4222
43E2
4222
4004
4048
4030
ENDCHAR
STARTCHAR uni4F9B
ENCODING 20379
SWIDTH 1000 0
DWIDTH 16 0
BBX 15 14 1 0
BITMAP
1110
1110
2110
27FC
4110
A110
2110
2FFE
2000
2110
2108
2208
2204
2404
ENDCHAR
STARTCHAR uni4F9C
ENCODING 20380
SWIDTH 1000 0
DWIDTH 16 0
BBX 15 14 1 0
BITMAP
1100
1108
23FC
4608
8A88
4248
4228
4FFE
4288
4248
4228
4208
4208
4418
ENDCHAR
STARTCHAR uni4F9D
ENCODING 20381
SWIDTH 1000 0
DWIDTH 16 0
BBX 15 14 1 0
BITMAP
0880
0840
0844
17FE
2080
5140
9148
1350
1520
1920
1110
114E
1184
1300
ENDCHAR
STARTCHAR uni4F9E
ENCODING 20382
SWIDTH 1000 0
DWIDTH 16 0
BBX 15 14 1 0
BITMAP
1000
2880
4880
889E
5FD2
4892
4892
4892
4892
4512
4212
451E
4892
5040
ENDCHAR
STARTCHAR uni4FAE
ENCODING 20398
SWIDTH 1000 0
DWIDTH 16 0
BBX 15 14 1 0
BITMAP
0900
09FC
1200
1408
21FC
5148
9128
17FE
1148
1128
1228
13FC
1008
1030
ENDCHAR
STARTCHAR uni4FAF
ENCODING 20399
SWIDTH 1000 0
DWIDTH 16 0
BBX 15 14 1 0
BITMAP
1010
13F8
2010
2010
47FC
A100
2108
23FC
2440
2FFE
20A0
2110
220E
2404
ENDCHAR
STARTCHAR uni4FB2
ENCODING 20402
SWIDTH 1000 0
DWIDTH 16 0
BBX 15 14 1 0
BITMAP
17FE
2400
4400
C5FC
4400
4400
47FE
4480
4492
4494
4490
44A8
48C4
5182
ENDCHAR
STARTCHAR uni4FB3
ENCODING 20403
SWIDTH 1000 0
DWIDTH 16 0
BBX 15 14 1 0
BITMAP
1000
2080
4888
8888
4888
5494
62A2
4080
4080
4FFC
4080
4080
4080
5FFE
ENDCHAR
STARTCHAR uni4FB5
ENCODING 20405
SWIDTH 1000 0
DWIDTH 16 0
BBX 15 14 1 0
BITMAP
09F8
0808
13FE
2008
41F8
A000
27FE
2402
29F4
2110
20A0
20E0
231E
2404
ENDCHAR
STARTCHAR uni4FB6
ENCODING 20406
SWIDTH 1000 0
DWIDTH 16 0
BBX 15 14 1 0
BITMAP
0808
0BFC
1208
1208
23F8
4288
A080
2104
27FE
2404
2404
2404
27FC
2404
ENDCHAR
STARTCHAR uni4FB7
ENCODING 20407
SWIDTH 1000 0
DWIDTH 16 0
BBX 15 14 1 0
BITMAP
1008
17FC
2408
47F8
A404
27FE
2404
25E4
2524
2924
29E4
3104
2038
2010
ENDCHAR
STARTCHAR uni4FB9
ENCODING 20409
SWIDTH 1000 0
DWIDTH 16 0
BBX 15 14 1 0
BITMAP
1004
2F78
4110
8210
4410
48FE
4410
4210
4210
42FE
4A00
4400
4A00
51FE
ENDCHAR
STARTCHAR uni4FBA
ENCODING 20410
SWIDTH 1000 0
DWIDTH 16 0
BBX 15 14 1 0
BITMAP
1040
2842
4FFE
8040
40A0
4318
4C46
4040
47FC
4008
4010
4020
4040
4080
ENDCHAR
STARTCHAR uni4FBB
ENCODING 20411
SWIDTH 1000 0
DWIDTH 16 0
BBX 15 14 1 0
BITMAP
10A0
1110
2208
4404
8BFA
4208
4208
43F8
4120
4120
4120
4220
4422
483E
ENDCHAR
STARTCHAR uni4FBF
ENCODING 20415
SWIDTH 1000 0
DWIDTH 16 0
BBX 15 14 1 0
BITMAP
1004
17FE
1040
27FC
2444
47FC
A444
27FC
2240
2140
2080
2160
221E
2C08
ENDCHAR
STARTCHAR uni4FC0
ENCODING 20416
SWIDTH 1000 0
DWIDTH 16 0
BBX 15 14 1 0
BITMAP
1002
27FC
4484
8248
4000
4110
4FFE
4110
4110
40A0
4040
40A0
4110
4E0E
ENDCHAR
STARTCHAR uni4FC1
ENCODING 20417
SWIDTH 1000 0
DWIDTH 16 0
BBX 15 14 1 0
BITMAP
0808
0BFC
1208
1208
33F8
5000
97FC
1040
1044
1FFE
10A0
1110
120E
1C04
ENDCHAR
STARTCHAR uni4FC2
ENCODING 20418
SWIDTH 1000 0
DWIDTH 16 0
BBX 14 14 1 0
BITMAP
103C
17C0
2080
2320
4140
A090
2108
27FC
2044
2250
2248
2444
29C4
2080
ENDCHAR
STARTCHAR uni4FC3
ENCODING 20419
SWIDTH 1000 0
DWIDTH 16 0
BBX 15 14 1 0
BITMAP
0808
0BFC
0A08
1208
23F8
5248
9040
1248
127C
1240
1540
14C0
187E
1000
ENDCHAR
STARTCHAR uni4FC4
ENCODING 20420
SWIDTH 1000 0
DWIDTH 16 0
BBX 15 14 1 0
BITMAP
10A8
1724
2124
4120
AFFE
2120
2124
21A4
2328
2D10
2132
214A
2706
2202
ENDCHAR
STARTCHAR uni4FC5
ENCODING 20421
SWIDTH 1000 0
DWIDTH 16 0
BBX 15 14 1 0
BITMAP
0850
0848
1048
17FE
3040
5444
9248
1270
1150
1250
144E
1044
1140
1080
ENDCHAR
STARTCHAR uni4FC7
ENCODING 20423
SWIDTH 1000 0
DWIDTH 16 0
BBX 15 14 1 0
BITMAP
1100
2A00
44FE
8A10
5210
4210
4210
46FE
4A10
5210
4210
4210
4AFE
4400
ENDCHAR
STARTCHAR uni4FC9
ENCODING 20425
SWIDTH 1000 0
DWIDTH 16 0
BBX 15 14 1 0
BITMAP
17F8
2080
4080
87F8
4088
4088
4FFE
4000
47FC
4404
4404
4404
47FC
4404
ENDCHAR
STARTCHAR uni4FCA
ENCODING 20426
SWIDTH 1000 0
DWIDTH 16 0
BBX 15 14 1 0
BITMAP
1040
1090
2108
27FC
4110
A208
2516
21F8
2310
24A0
2040
20B0
230E
2C04
ENDCHAR
STARTCHAR uni4FCB
ENCODING 20427
SWIDTH 1000 0
DWIDTH 16 0
BBX 15 14 1 0
BITMAP
1004
17FE
2404
4404
87FC
4000
4FFE
4842
4842
4FFE
4800
4800
4802
4FFE
ENDCHAR
STARTCHAR uni4FCD
ENCODING 20429
SWIDTH 1000 0
DWIDTH 16 0
BBX 15 14 1 0
BITMAP
1080
1040
27FC
4404
C7FC
4404
47FC
4402
4444
4428
4490
4508
4604
4C02
ENDCHAR
STARTCHAR uni4FCE
ENCODING 20430
SWIDTH 1000 0
DWIDTH 16 0
BBX 15 13 1 1
BITMAP
1010
11F8
1110
2910
29F0
4510
9510
1110
11F0
2910
2910
4514
87FE
ENDCHAR
STARTCHAR uni4FCF
ENCODING 20431
SWIDTH 1000 0
DWIDTH 16 0
BBX 14 14 1 0
BITMAP
1040
124C
2148
2150
4048
A3FC
2208
23F8
2208
23F8
2208
2408
2438
2810
ENDCHAR
STARTCHAR uni4FD0
ENCODING 20432
SWIDTH 1000 0
DWIDTH 16 0
BBX 15 14 1 0
BITMAP
11C2
1702
2112
2112
4FD2
A112
2312
2392
2552
2552
2902
3102
210E
2104
ENDCHAR
STARTCHAR uni4FD1
ENCODING 20433
SWIDTH 1000 0
DWIDTH 16 0
BBX 15 14 1 0
BITMAP
0808
0BFC
1010
20A0
4044
A7FE
2444
27FC
2444
27FC
2444
2444
2444
240C
ENDCHAR
STARTCHAR uni4FD3
ENCODING 20435
SWIDTH 1000 0
DWIDTH 16 0
BBX 15 14 1 0
BITMAP
1008
17FC
2000
4124
C248
4490
4248
4124
4000
47FC
4040
4040
4044
4FFE
ENDCHAR
STARTCHAR uni4FD4
ENCODING 20436
SWIDTH 1000 0
DWIDTH 16 0
BBX 15 14 1 0
BITMAP
0BF8
1208
2208
43F8
A208
2208
23F8
2208
2208
23F8
2120
2222
2422
283E
ENDCHAR
STARTCHAR uni4FD6
ENCODING 20438
SWIDTH 1000 0
DWIDTH 16 0
BBX 15 14 1 0
BITMAP
1004
27FE
4040
C0C8
4144
4E42
4040
4040
47FC
4404
4404
4404
47FC
4404
ENDCHAR
STARTCHAR uni4FD7
ENCODING 20439
SWIDTH 1000 0
DWIDTH 16 0
BBX 15 14 1 0
BITMAP
1110
110C
2244
2440
40A0
A110
220E
2404
2BF8
2208
2208
2208
23F8
2208
ENDCHAR
STARTCHAR uni4FD8
ENCODING 20440
SWIDTH 1000 0
DWIDTH 16 0
BBX 15 14 1 0
BITMAP
103C
17C0
2088
2448
4250
A000
23F0
2020
20C4
2FFE
2040
2040
21C0
2080
ENDCHAR
STARTCHAR uni4FD9
ENCODING 20441
SWIDTH 1000 0
DWIDTH 16 0
BBX 15 14 1 0
BITMAP
1110
20A0
4040
80A0
4110
4040
4FFE
4220
45FC
4924
4124
412C
4020
4020
ENDCHAR
STARTCHAR uni4FDA
ENCODING 20442
SWIDTH 1000 0
DWIDTH 16 0
BBX 15 14 1 0
BITMAP
1008
13FC
2248
2248
43F8
A248
2248
23F8
2040
2048
27FC
2040
2044
2FFE
ENDCHAR
STARTCHAR uni4FDB
ENCODING 20443
SWIDTH 1000 0
DWIDTH 16 0
BBX 15 14 1 0
BITMAP
1100
23FC
4408
8810
47FC
4444
4444
47FC
4120
4120
4220
4422
4822
503E
ENDCHAR
STARTCHAR uni4FDC
ENCODING 20444
SWIDTH 1000 0
DWIDTH 16 0
BBX 15 14 1 0
BITMAP
0840
0BF8
1248
13F8
3248
53F8
9000
1FFE
1100
11F8
1008
1088
1050
1020
ENDCHAR
STARTCHAR uni4FDD
ENCODING 20445
SWIDTH 1000 0
DWIDTH 16 0
BBX 15 14 1 0
BITMAP
0808
0BFC
1208
1208
23F8
3040
5044
97FE
1040
10E0
1150
124E
1444
1040
ENDCHAR
STARTCHAR uni4FDE
ENCODING 20446
SWIDTH 1000 0
DWIDTH 16 0
BBX 15 14 1 0
BITMAP
0380
0440
0820
1010
2FEE
C004
3E08
2248
3E48
2248
3E48
2248
2208
2618
ENDCHAR
STARTCHAR uni4FDF
ENCODING 20447
SWIDTH 1000 0
DWIDTH 16 0
BBX 15 14 1 0
BITMAP
0880
0910
1208
27FC
4104
A110
23F8
2440
2044
27FE
20A0
2110
2208
2406
ENDCHAR
STARTCHAR uni4FE0
ENCODING 20448
SWIDTH 1000 0
DWIDTH 16 0
BBX 15 14 1 0
BITMAP
1040
1044
27FE
2040
4248
A248
2554
2952
2040
20A0
2090
2108
2206
2404
ENDCHAR
STARTCHAR uni4FE1
ENCODING 20449
SWIDTH 1000 0
DWIDTH 16 0
BBX 15 14 1 0
BITMAP
1080
1044
2FFE
2000
43F8
A000
23F8
2000
2208
23FC
2208
2208
23F8
2208
ENDCHAR
STARTCHAR uni4FEC
ENCODING 20460
SWIDTH 1000 0
DWIDTH 16 0
BBX 15 14 1 0
BITMAP
1080
2F10
4210
8210
4F90
4210
4310
4690
4A22
4242
42FE
4202
4202
4200
ENDCHAR
STARTCHAR uni4FEE
ENCODING 20462
SWIDTH 1000 0
DWIDTH 16 0
BBX 15 14 1 0
BITMAP
1100
11F8
2110
2AA0
6C40
A9B0
2E2E
28C0
2B10
2860
2888
2310
2060
2180
ENDCHAR
STARTCHAR uni4FEF
ENCODING 20463
SWIDTH 1000 0
DWIDTH 16 0
BBX 15 14 1 0
BITMAP
1080
1044
17FE
2480
4488
A508
25FE
2708
2548
2528
2528
2908
3138
2110
ENDCHAR
STARTCHAR uni4FF1
ENCODING 20465
SWIDTH 1000 0
DWIDTH 16 0
BBX 15 14 1 0
BITMAP
0808
0BFC
1208
13F8
2208
53F8
9208
13F8
1208
1FFE
1000
1110
120C
1404
ENDCHAR
STARTCHAR uni4FF3
ENCODING 20467
SWIDTH 1000 0
DWIDTH 16 0
BBX 15 14 1 0
BITMAP
0890
0890
1090
279E
4090
A090
279E
2090
2090
279E
2090
2110
2210
2410
ENDCHAR
STARTCHAR uni4FF4
ENCODING 20468
SWIDTH 1000 0
DWIDTH 16 0
BBX 15 14 1 0
BITMAP
1090
1088
27FC
6080
A050
2022
21DE
2000
2088
27FE
2080
2050
2022
23DE
ENDCHAR
STARTCHAR uni4FF5
ENCODING 20469
SWIDTH 1000 0
DWIDTH 16 0
BBX 15 14 1 0
BITMAP
1040
1040
27FC
4040
87FC
4040
4FFE
4080
4124
4328
4D10
4108
4144
4782
ENDCHAR
STARTCHAR uni4FF6
ENCODING 20470
SWIDTH 1000 0
DWIDTH 16 0
BBX 15 14 1 0
BITMAP
1400
2400
477C
8444
4444
5F44
4444
4444
4E28
5510
4428
4444
4482
4502
ENDCHAR
STARTCHAR uni4FF7
ENCODING 20471
SWIDTH 1000 0
DWIDTH 16 0
BBX 15 14 1 0
BITMAP
1000
2FBE
48AA
88AA
4FAA
48AA
48BE
4FA0
48A0
48A0
48A0
48A2
48A2
51BE
ENDCHAR
STARTCHAR uni4FF8
ENCODING 20472
SWIDTH 1000 0
DWIDTH 16 0
BBX 15 14 1 0
BITMAP
1040
17FC
2040
23F8
4080
AFFE
2110
2248
25F6
2840
2040
27FC
2040
2040
ENDCHAR
STARTCHAR uni4FFA
ENCODING 20474
SWIDTH 1000 0
DWIDTH 16 0
BBX 15 14 1 0
BITMAP
0840
0844
17FE
20A0
5318
9C46
13F8
1248
13F8
1248
13F8
1248
1042
103E
ENDCHAR
STARTCHAR uni4FFE
ENCODING 20478
SWIDTH 1000 0
DWIDTH 16 0
BBX 15 14 1 0
BITMAP
0880
0908
13FC
2248
43F8
A248
2248
23F8
2120
2224
2FFE
2020
2020
2020
ENDCHAR
STARTCHAR uni5000
ENCODING 20480
SWIDTH 1000 0
DWIDTH 16 0
BBX 15 14 1 0
BITMAP
1008
17FC
2200
23F8
4200
A3F8
2200
2FFE
2204
2248
2230
2208
2386
2E04
ENDCHAR
STARTCHAR uni5005
ENCODING 20485
SWIDTH 1000 0
DWIDTH 16 0
BBX 15 14 1 0
BITMAP
1040
2FFE
4000
C208
4208
4514
48E2
4040
4FFE
4040
4040
4040
4040
4040
ENDCHAR
STARTCHAR uni5006
ENCODING 20486
SWIDTH 1000 0
DWIDTH 16 0
BBX 15 14 1 0
BITMAP
2000
2004
27FE
4040
8040
4FFE
4842
4A52
494A
4AD6
4C62
4842
484E
4844
ENDCHAR
STARTCHAR uni5007
ENCODING 20487
SWIDTH 1000 0
DWIDTH 16 0
BBX 15 14 1 0
BITMAP
1040
1040
2FFE
4802
C200
47BE
48A2
58A2
44A2
433C
4220
4422
4822
503E
ENDCHAR
STARTCHAR uni5009
ENCODING 20489
SWIDTH 1000 0
DWIDTH 16 0
BBX 15 14 1 0
BITMAP
0380
0440
0A20
1118
2FE6
C824
0FE0
0820
0FE0
1010
1FF8
2810
4FF0
0810
ENDCHAR
STARTCHAR uni500B
ENCODING 20491
SWIDTH 1000 0
DWIDTH 16 0
BBX 15 14 1 0
BITMAP
1004
17FE
2444
4444
A5F4
2444
2444
25F4
2514
2514
25F4
2404
27FC
2404
ENDCHAR
STARTCHAR uni500C
ENCODING 20492
SWIDTH 1000 0
DWIDTH 16 0
BBX 15 14 1 0
BITMAP
1040
17FE
1402
2804
43F0
A210
2210
23F0
2208
23FC
2208
2208
23F8
2208
ENDCHAR
STARTCHAR uni500D
ENCODING 20493
SWIDTH 1000 0
DWIDTH 16 0
BBX 15 14 1 0
BITMAP
1080
1040
1048
27FC
4210
A110
2120
2FFE
2000
23F8
2208
2208
23F8
2208
ENDCHAR
STARTCHAR uni500E
ENCODING 20494
SWIDTH 1000 0
DWIDTH 16 0
BBX 15 14 1 0
BITMAP
10A0
20A0
47FC
C4A4
44A4
47FC
44A4
44A4
44A4
4FFE
4000
4110
4208
4404
ENDCHAR
STARTCHAR uni500F
ENCODING 20495
SWIDTH 1000 0
DWIDTH 16 0
BBX 15 14 1 0
BITMAP
1110
11F8
2110
2AA0
4840
A8B0
2B0E
2C40
2848
2FFE
2840
2090
210E
2604
ENDCHAR
STARTCHAR uni5011
ENCODING 20497
SWIDTH 1000 0
DWIDTH 16 0
BBX 15 14 1 0
BITMAP
1004
17BE
24A4
47BC
A4A4
27BC
2404
2404
2404
2404
2404
2404
241C
2408
ENDCHAR
STARTCHAR uni5012
ENCODING 20498
SWIDTH 1000 0
DWIDTH 16 0
BBX 15 14 1 0
BITMAP
2042
2FE2
2202
428A
844A
5FEA
422A
420A
4FCA
420A
43C2
5E02
400E
4004
ENDCHAR
STARTCHAR uni5013
ENCODING 20499
SWIDTH 1000 0
DWIDTH 16 0
BBX 15 14 1 0
BITMAP
1040
2444
4248
8040
40A0
4110
4E0E
4040
4444
4248
40A0
40A0
4110
4E0E
ENDCHAR
STARTCHAR uni5014
ENCODING 20500
SWIDTH 1000 0
DWIDTH 16 0
BBX 15 14 1 0
BITMAP
1004
17FE
2404
27FC
4420
A524
2524
25FC
2420
2524
2924
2924
31FC
2104
ENDCHAR
STARTCHAR uni5015
ENCODING 20501
SWIDTH 1000 0
DWIDTH 16 0
BBX 15 14 1 0
BITMAP
1004
27F8
4040
8040
4FFE
4248
4248
4FFE
4248
4248
4FFE
4040
4040
4FFE
ENDCHAR
STARTCHAR uni5016
ENCODING 20502
SWIDTH 1000 0
DWIDTH 16 0
BBX 15 14 1 0
BITMAP
1040
1048
27FC
2040
4FFE
A208
2110
2FFE
2040
2048
27FC
2040
2040
2040
ENDCHAR
STARTCHAR uni5017
ENCODING 20503
SWIDTH 1000 0
DWIDTH 16 0
BBX 15 14 1 0
BITMAP
2FBE
28A2
48A2
88A2
4FBE
48A2
48A2
4FBE
48A2
48A2
48A2
48A2
48A2
5144
ENDCHAR
STARTCHAR uni5018
ENCODING 20504
SWIDTH 1000 0
DWIDTH 16 0
BBX 15 14 1 0
BITMAP
1248
1148
1150
2044
47FE
A404
25F4
2514
2514
25F4
2514
2404
241C
2408
ENDCHAR
STARTCHAR uni5019
ENCODING 20505
SWIDTH 1000 0
DWIDTH 16 0
BBX 15 14 1 0
BITMAP
1010
23F8
2010
47FE
8900
4908
4BFC
4C40
4844
4FFE
48A0
4110
420E
4404
ENDCHAR
STARTCHAR uni501A
ENCODING 20506
SWIDTH 1000 0
DWIDTH 16 0
BBX 15 14 1 0
BITMAP
0840
0848
13FC
10A0
2118
57FE
9008
13E8
1228
13E8
1228
1008
1038
1010
ENDCHAR
STARTCHAR uni501B
ENCODING 20507
SWIDTH 1000 0
DWIDTH 16 0
BBX 15 14 1 0
BITMAP
1000
2208
4208
8FFE
4208
43F8
4208
43F8
4208
4208
4FFE
4110
4208
4C06
ENDCHAR
STARTCHAR uni501C
ENCODING 20508
SWIDTH 1000 0
DWIDTH 16 0
BBX 15 14 1 0
BITMAP
1004
17FE
2444
25F4
6444
A444
25F4
2404
25F4
2514
25F4
2804
2814
3008
ENDCHAR
STARTCHAR uni501E
ENCODING 20510
SWIDTH 1000 0
DWIDTH 16 0
BBX 15 14 1 0
BITMAP
0820
0BFE
1000
31FC
5104
9104
11FC
1020
10A8
1124
1222
1020
10A0
1040
ENDCHAR
STARTCHAR uni501F
ENCODING 20511
SWIDTH 1000 0
DWIDTH 16 0
BBX 15 14 1 0
BITMAP
1110
1110
17FC
2110
4110
AFFE
2008
23FC
2208
23F8
2208
2208
23F8
2208
ENDCHAR
STARTCHAR uni5020
ENCODING 20512
SWIDTH 1000 0
DWIDTH 16 0
BBX 15 14 1 0
BITMAP
1100
1120
2210
67FE
AA10
2210
23FE
2210
2210
23FE
2210
2210
23FE
2200
ENDCHAR
STARTCHAR uni5021
ENCODING 20513
SWIDTH 1000 0
DWIDTH 16 0
BBX 15 14 1 0
BITMAP
1008
13FC
2208
23F8
4208
A3F8
2004
27FE
2404
27FC
2404
2404
27FC
2404
ENDCHAR
STARTCHAR uni5022
ENCODING 20514
SWIDTH 1000 0
DWIDTH 16 0
BBX 15 14 1 0
BITMAP
2040
2FFE
4040
87FC
4044
4FFE
4044
47FC
4040
4240
427C
4540
48C0
507E
ENDCHAR
STARTCHAR uni5023
ENCODING 20515
SWIDTH 1000 0
DWIDTH 16 0
BBX 15 14 1 0
BITMAP
2420
2220
4224
9FBE
4844
4904
4FA4
4924
4924
4918
5118
5124
6746
4282
ENDCHAR
STARTCHAR uni5025
ENCODING 20517
SWIDTH 1000 0
DWIDTH 16 0
BBX 15 14 1 0
BITMAP
1080
1040
17FE
2402
4914
A208
2404
2000
23F8
2040
2040
2044
2FFE
2000
ENDCHAR
STARTCHAR uni5026
ENCODING 20518
SWIDTH 1000 0
DWIDTH 16 0
BBX 15 14 1 0
BITMAP
1248
1150
17FC
2080
4FFE
A110
2208
25F6
2914
2110
2170
2104
2104
20FE
ENDCHAR
STARTCHAR uni5027
ENCODING 20519
SWIDTH 1000 0
DWIDTH 16 0
BBX 15 14 1 0
BITMAP
1040
1020
23FE
6202
A202
20F8
2000
23FE
2020
20A8
2124
2222
2020
2040
ENDCHAR
STARTCHAR uni5028
ENCODING 20520
SWIDTH 1000 0
DWIDTH 16 0
BBX 15 14 1 0
BITMAP
0804
0BFE
1204
13FC
2224
5220
93FE
1220
1224
13FE
1304
1504
19FC
1104
ENDCHAR
STARTCHAR uni5029
ENCODING 20521
SWIDTH 1000 0
DWIDTH 16 0
BBX 15 14 1 0
BITMAP
1040
17FC
2040
23F8
4040
AFFE
2000
23F8
2208
23F8
2208
23F8
2208
2218
ENDCHAR
STARTCHAR uni502A
ENCODING 20522
SWIDTH 1000 0
DWIDTH 16 0
BBX 15 14 1 0
BITMAP
0840
0884
0B3E
1204
23BC
5204
9204
13FC
1294
1090
1090
1112
1212
140E
ENDCHAR
STARTCHAR uni502B
ENCODING 20523
SWIDTH 1000 0
DWIDTH 16 0
BBX 15 14 1 0
BITMAP
10C0
1120
2210
4408
ABF6
2000
2008
27FC
2548
2548
27F8
2548
2548
2418
ENDCHAR
STARTCHAR uni502C
ENCODING 20524
SWIDTH 1000 0
DWIDTH 16 0
BBX 15 14 1 0
BITMAP
0840
087C
1040
13F8
3208
53F8
9208
13F8
1240
1044
1FFE
1040
1040
1040
ENDCHAR
STARTCHAR uni502D
ENCODING 20525
SWIDTH 1000 0
DWIDTH 16 0
BBX 15 14 1 0
BITMAP
1038
13C0
2040
27FC
40E0
A150
224C
2080
2FFE
2110
20A0
2060
2190
260C
ENDCHAR
STARTCHAR uni502F
ENCODING 20527
SWIDTH 1000 0
DWIDTH 16 0
BBX 15 14 1 0
BITMAP
1400
2410
4428
8444
5F82
4400
4410
4E10
5510
4410
4420
4444
44FE
4402
ENDCHAR
STARTCHAR uni5030
ENCODING 20528
SWIDTH 1000 0
DWIDTH 16 0
BBX 15 14 1 0
BITMAP
2040
2040
47FC
8040
4FFE
4208
448E
49F8
4310
44A0
4840
40A0
4110
4E0E
ENDCHAR
STARTCHAR uni5031
ENCODING 20529
SWIDTH 1000 0
DWIDTH 16 0
BBX 15 14 1 0
BITMAP
17FC
2404
47FC
C404
47FC
4404
4000
4820
4820
4FBE
4820
4820
48A2
4FBE
ENDCHAR
STARTCHAR uni5033
ENCODING 20531
SWIDTH 1000 0
DWIDTH 16 0
BBX 15 14 1 0
BITMAP
1040
17FC
2040
67FC
A444
27FC
2040
27FC
2044
2FFE
2044
27FC
2040
20C0
ENDCHAR
STARTCHAR uni5035
ENCODING 20533
SWIDTH 1000 0
DWIDTH 16 0
BBX 15 14 1 0
BITMAP
2024
2FA2
4020
CFFE
4020
4220
4220
4BA0
4A20
4A90
4B12
5E0A
4006
4002
ENDCHAR
STARTCHAR uni5037
ENCODING 20535
SWIDTH 1000 0
DWIDTH 16 0
BBX 15 14 1 0
BITMAP
2040
2FFE
40A0
8110
4208
4DF6
4000
47FC
4040
4150
4248
4C46
4040
4080
ENDCHAR
STARTCHAR uni503C
ENCODING 20540
SWIDTH 1000 0
DWIDTH 16 0
BBX 15 14 1 0
BITMAP
1040
1044
17FE
2040
63F8
A208
23F8
2208
23F8
2208
23F8
2208
2FFE
2000
ENDCHAR
STARTCHAR uni5040
ENCODING 20544
SWIDTH 1000 0
DWIDTH 16 0
BBX 15 14 1 0
BITMAP
1110
2FFE
4110
C040
47FC
4444
4444
4444
5FFE
40A0
4110
4208
4404
4802
ENDCHAR
STARTCHAR uni5041
ENCODING 20545
SWIDTH 1000 0
DWIDTH 16 0
BBX 15 14 1 0
BITMAP
2002
2FFC
4442
8224
4040
47FC
4444
47FC
4444
5FFE
4404
4404
4414
4408
ENDCHAR
STARTCHAR uni5043
ENCODING 20547
SWIDTH 1000 0
DWIDTH 16 0
BBX 15 14 1 0
BITMAP
1004
17FE
25F8
4508
A5F8
2508
25F8
2440
27FE
2490
2460
2490
2508
27FC
ENDCHAR
STARTCHAR uni5045
ENCODING 20549
SWIDTH 1000 0
DWIDTH 16 0
BBX 15 14 1 0
BITMAP
0808
09F0
0820
13FE
3020
51FC
9124
11FC
1124
11FC
1020
11FC
1020
13FE
ENDCHAR
STARTCHAR uni5046
ENCODING 20550
SWIDTH 1000 0
DWIDTH 16 0
BBX 15 14 1 0
BITMAP
1080
27F8
4080
8FFC
4080
5FFE
4210
4408
4BF4
5212
43F0
4210
43F0
4210
ENDCHAR
STARTCHAR uni5047
ENCODING 20551
SWIDTH 1000 0
DWIDTH 16 0
BBX 15 14 1 0
BITMAP
1004
17BE
2484
24A4
4798
A408
243E
2784
2424
27A8
2410
2428
2446
2484
ENDCHAR
STARTCHAR uni5048
ENCODING 20552
SWIDTH 1000 0
DWIDTH 16 0
BBX 15 14 1 0
BITMAP
0BFC
0A08
13F8
1208
33F8
5100
9104
13FE
1444
1A44
12A4
13E4
1014
1008
ENDCHAR
STARTCHAR uni5049
ENCODING 20553
SWIDTH 1000 0
DWIDTH 16 0
BBX 15 14 1 0
BITMAP
1040
11FC
2044
27FE
4000
A3FC
2204
23FC
2020
23FC
2220
2FFE
2020
2020
ENDCHAR
STARTCHAR uni504A
ENCODING 20554
SWIDTH 1000 0
DWIDTH 16 0
BBX 15 14 1 0
BITMAP
1004
27F8
4040
87FC
4444
4444
47FC
4040
4FFE
484A
4BFA
480A
4802
4804
ENDCHAR
STARTCHAR uni504B
ENCODING 20555
SWIDTH 1000 0
DWIDTH 16 0
BBX 15 14 1 0
BITMAP
17FE
1402
27FE
6484
A448
25FE
2448
2448
27FE
2448
2448
2488
2908
2008
ENDCHAR
STARTCHAR uni504C
ENCODING 20556
SWIDTH 1000 0
DWIDTH 16 0
BBX 15 14 1 0
BITMAP
1110
1110
27FE
2110
4080
A084
2FFE
2100
2208
27FC
2A08
3208
23F8
2208
ENDCHAR
STARTCHAR uni504D
ENCODING 20557
SWIDTH 1000 0
DWIDTH 16 0
BBX 15 14 1 0
BITMAP
13F8
2208
43F8
8208
43F8
4000
4FFE
4040
4240
427C
4240
4540
48C0
507E
ENDCHAR
STARTCHAR uni504E
ENCODING 20558
SWIDTH 1000 0
DWIDTH 16 0
BBX 15 14 1 0
BITMAP
0808
0BFC
1248
23F8
4248
A3F8
2000
2FFE
2288
2250
2220
2290
230E
2E04
ENDCHAR
STARTCHAR uni504F
ENCODING 20559
SWIDTH 1000 0
DWIDTH 16 0
BBX 15 14 1 0
BITMAP
1038
13C0
2204
23FE
4204
A3FC
2204
25FE
2554
2554
29FC
2954
2154
210C
ENDCHAR
STARTCHAR uni5051
ENCODING 20561
SWIDTH 1000 0
DWIDTH 16 0
BBX 15 14 1 0
BITMAP
17FC
140C
25F4
6444
A444
25F4
2554
2554
25F4
2444
244A
25FA
240A
2802
ENDCHAR
STARTCHAR uni5053
ENCODING 20563
SWIDTH 1000 0
DWIDTH 16 0
BBX 15 14 1 0
BITMAP
17FE
2402
47FE
8400
45FC
4440
4484
45FC
4422
4420
49FC
5020
4020
43FE
ENDCHAR
STARTCHAR uni5055
ENCODING 20565
SWIDTH 1000 0
DWIDTH 16 0
BBX 15 14 1 0
BITMAP
1220
1224
23AC
4230
A2A2
231E
2600
2088
23FC
2208
23F8
2208
23F8
2208
ENDCHAR
STARTCHAR uni5057
ENCODING 20567
SWIDTH 1000 0
DWIDTH 16 0
BBX 15 14 1 0
BITMAP
1040
1148
2254
6462
A040
2080
21FC
2304
25FC
2904
21FC
2104
21FC
2104
ENDCHAR
STARTCHAR uni505A
ENCODING 20570
SWIDTH 1000 0
DWIDTH 16 0
BBX 15 14 1 0
BITMAP
2420
2420
4524
9FBE
4424
4544
5F84
5124
5128
5128
5F10
5128
4046
4084
ENDCHAR
STARTCHAR uni505B
ENCODING 20571
SWIDTH 1000 0
DWIDTH 16 0
BBX 15 14 1 0
BITMAP
1004
27F8
4040
8040
4FFE
4040
444E
4842
4842
4F5E
4842
4842
4FFE
4802
ENDCHAR
STARTCHAR uni505C
ENCODING 20572
SWIDTH 1000 0
DWIDTH 16 0
BBX 15 14 1 0
BITMAP
1040
17FC
2000
43F8
A208
23F8
2000
2FFE
2802
2BF4
2040
2040
2040
2180
ENDCHAR
STARTCHAR uni505D
ENCODING 20573
SWIDTH 1000 0
DWIDTH 16 0
BBX 15 14 1 0
BITMAP
1090
1090
279E
6090
A79E
2000
23FC
2204
23FC
2204
23FC
2204
2214
2408
ENDCHAR
STARTCHAR uni505E
ENCODING 20574
SWIDTH 1000 0
DWIDTH 16 0
BBX 15 14 1 0
BITMAP
1490
2490
4FFE
8490
44F0
4400
47FC
4040
4FFE
4150
4248
4444
4842
4040
ENDCHAR
STARTCHAR uni505F
ENCODING 20575
SWIDTH 1000 0
DWIDTH 16 0
BBX 15 14 1 0
BITMAP
1100
1200
27FC
4C04
C7FC
4404
47FC
4000
47FC
4040
47FC
4040
4040
4FFE
ENDCHAR
STARTCHAR uni5060
ENCODING 20576
SWIDTH 1000 0
DWIDTH 16 0
BBX 15 14 1 0
BITMAP
2FFE
20A0
4FFE
C8A2
48A2
4FFE
4100
4110
4FFE
4110
40A0
4040
40A0
4F1C
ENDCHAR
STARTCHAR uni5061
ENCODING 20577
SWIDTH 1000 0
DWIDTH 16 0
BBX 15 14 1 0
BITMAP
1110
1110
2FFE
4110
81F0
4110
41F0
4110
4FFE
44A0
44A0
453C
4400
47FE
ENDCHAR
STARTCHAR uni5062
ENCODING 20578
SWIDTH 1000 0
DWIDTH 16 0
BBX 15 14 1 0
BITMAP
1080
2F10
4210
8254
4254
5FD4
4238
4710
4A90
5210
4228
4244
4282
4282
ENDCHAR
STARTCHAR uni5063
ENCODING 20579
SWIDTH 1000 0
DWIDTH 16 0
BBX 15 14 1 0
BITMAP
2040
2040
4FFE
8208
4208
4110
4FFE
4000
47FC
4404
47FC
4404
47FC
4404
ENDCHAR
STARTCHAR uni5064
ENCODING 20580
SWIDTH 1000 0
DWIDTH 16 0
BBX 15 14 1 0
BITMAP
1208
2110
4FFE
80A0
47FC
44A4
44A4
4524
463C
4404
44E4
4404
47FC
4404
ENDCHAR
STARTCHAR uni5065
ENCODING 20581
SWIDTH 1000 0
DWIDTH 16 0
BBX 15 14 1 0
BITMAP
1020
10FC
2E24
23FE
4224
A4FC
2E20
22FC
2220
2A20
25FE
2A20
3120
20FE
ENDCHAR
STARTCHAR uni5068
ENCODING 20584
SWIDTH 1000 0
DWIDTH 16 0
BBX 15 14 1 0
BITMAP
1220
2220
4220
8BBE
4A20
4A22
5FBE
4040
4040
4FFE
4248
4444
4842
4040
ENDCHAR
STARTCHAR uni5069
ENCODING 20585
SWIDTH 1000 0
DWIDTH 16 0
BBX 15 14 1 0
BITMAP
1200
27F8
4810
8020
47FC
4404
47FC
4404
47FC
4404
47FC
4208
4404
4802
ENDCHAR
STARTCHAR uni506A
ENCODING 20586
SWIDTH 1000 0
DWIDTH 16 0
BBX 15 14 1 0
BITMAP
0BFE
1000
21FC
C104
21FC
2000
23FE
2222
2222
23FE
2222
2222
23FE
2202
ENDCHAR
STARTCHAR uni506B
ENCODING 20587
SWIDTH 1000 0
DWIDTH 16 0
BBX 15 14 1 0
BITMAP
2210
2410
487C
D210
42FE
4400
4C08
54FE
4448
4428
4408
4408
4428
4410
ENDCHAR
STARTCHAR uni506D
ENCODING 20589
SWIDTH 1000 0
DWIDTH 16 0
BBX 15 14 1 0
BITMAP
2004
2FFE
4080
8080
4104
4FFE
4924
4924
49E4
4924
49E4
4924
4FFC
4804
ENDCHAR
STARTCHAR uni506E
ENCODING 20590
SWIDTH 1000 0
DWIDTH 16 0
BBX 15 14 1 0
BITMAP
0808
13F8
2208
63FC
A000
27FE
2208
23F8
2208
23F8
2208
27FC
2008
2008
ENDCHAR
STARTCHAR uni506F
ENCODING 20591
SWIDTH 1000 0
DWIDTH 16 0
BBX 15 14 1 0
BITMAP
1080
1040
27FC
2000
43F8
A208
23F8
2080
2104
2348
2D30
2110
2188
2706
ENDCHAR
STARTCHAR uni5070
ENCODING 20592
SWIDTH 1000 0
DWIDTH 16 0
BBX 15 14 1 0
BITMAP
1200
2FBE
4212
8F92
4212
4FA2
420C
4040
4FFE
4040
40A0
4110
4208
4C06
ENDCHAR
STARTCHAR uni5072
ENCODING 20594
SWIDTH 1000 0
DWIDTH 16 0
BBX 15 14 1 0
BITMAP
17FC
2444
4444
87FC
4444
4444
47FC
4000
4000
4944
4924
4902
4908
41F8
ENDCHAR
STARTCHAR uni5073
ENCODING 20595
SWIDTH 1000 0
DWIDTH 16 0
BBX 15 14 1 0
BITMAP
1040
1442
2442
67FE
A000
27FE
2040
2080
27FE
2492
2492
2492
2492
2404
ENDCHAR
STARTCHAR uni5074
ENCODING 20596
SWIDTH 1000 0
DWIDTH 16 0
BBX 15 14 1 0
BITMAP
1000
1042
27E2
2442
4452
A7D2
2452
27D2
2452
2452
27C2
2282
244E
2844
ENDCHAR
STARTCHAR uni5075
ENCODING 20597
SWIDTH 1000 0
DWIDTH 16 0
BBX 15 14 1 0
BITMAP
0840
0844
107E
2040
47FE
A404
27FC
2404
27FC
2404
27FC
2208
2406
2802
ENDCHAR
STARTCHAR uni5076
ENCODING 20598
SWIDTH 1000 0
DWIDTH 16 0
BBX 15 14 1 0
BITMAP
0808
0BFC
1248
23F8
4248
A248
23F8
2044
27FE
2444
2454
25F4
2404
240C
ENDCHAR
STARTCHAR uni5077
ENCODING 20599
SWIDTH 1000 0
DWIDTH 16 0
BBX 15 14 1 0
BITMAP
1080
1140
2220
2410
4BEE
A004
2788
24A8
27A8
24A8
27A8
24A8
2488
2998
ENDCHAR
STARTCHAR uni507A
ENCODING 20602
SWIDTH 1000 0
DWIDTH 16 0
BBX 15 14 1 0
BITMAP
1108
11C8
2248
464C
A992
2160
221E
2408
23FC
2208
23F8
2208
23F8
2208
ENDCHAR
STARTCHAR uni507D
ENCODING 20605
SWIDTH 1000 0
DWIDTH 16 0
BBX 15 14 1 0
BITMAP
1040
1240
2190
47F8
A090
2110
23F8
2408
2BFE
3004
2AA4
2AA4
2004
2018
ENDCHAR
STARTCHAR uni5080
ENCODING 20608
SWIDTH 1000 0
DWIDTH 16 0
BBX 15 14 1 0
BITMAP
1080
1108
17FC
2448
47F8
A448
27F8
2488
2080
2150
2168
227A
2442
283E
ENDCHAR
STARTCHAR uni5082
ENCODING 20610
SWIDTH 1000 0
DWIDTH 16 0
BBX 15 14 1 0
BITMAP
1002
2FFC
4420
843C
4420
45FE
4522
4578
4520
453C
4500
4528
492A
524E
ENDCHAR
STARTCHAR uni5083
ENCODING 20611
SWIDTH 1000 0
DWIDTH 16 0
BBX 15 14 1 0
BITMAP
1040
17FC
2040
67FC
A040
2FFE
2104
27F8
2022
27FE
2040
2248
2C46
2080
ENDCHAR
STARTCHAR uni5085
ENCODING 20613
SWIDTH 1000 0
DWIDTH 16 0
BBX 15 14 1 0
BITMAP
1048
13FE
2040
23FC
4248
A3F8
2248
23F8
2248
2010
2FFE
2210
2110
2030
ENDCHAR
STARTCHAR uni5087
ENCODING 20615
SWIDTH 1000 0
DWIDTH 16 0
BBX 15 14 1 0
BITMAP
1090
17FE
2090
4000
A7FE
2108
21F8
2108
21F8
2108
2108
27FE
2008
2008
ENDCHAR
STARTCHAR uni508B
ENCODING 20619
SWIDTH 1000 0
DWIDTH 16 0
BBX 15 14 1 0
BITMAP
1110
17FC
2110
67FC
A110
2FFE
2040
27FC
2444
27FC
2444
2FFE
2404
2408
ENDCHAR
STARTCHAR uni508C
ENCODING 20620
SWIDTH 1000 0
DWIDTH 16 0
BBX 15 14 1 0
BITMAP
1000
27FE
4420
87FE
4420
47FE
4420
4420
47FE
4002
4AA2
4AA2
4AA2
401C
ENDCHAR
STARTCHAR uni508D
ENCODING 20621
SWIDTH 1000 0
DWIDTH 16 0
BBX 15 14 1 0
BITMAP
1040
13FC
2108
2090
47FE
A442
2020
27FE
2080
20FC
2088
2108
2238
2410
ENDCHAR
STARTCHAR uni508E
ENCODING 20622
SWIDTH 1000 0
DWIDTH 16 0
BBX 15 14 1 0
BITMAP
1040
27FC
4040
C3F8
4208
43F8
4208
43F8
4208
43F8
4208
4FFE
4208
4404
ENDCHAR
STARTCHAR uni5091
ENCODING 20625
SWIDTH 1000 0
DWIDTH 16 0
BBX 15 14 1 0
BITMAP
2208
2208
47BE
88A8
54A8
437E
4C08
4040
4FFE
4040
4248
4444
49C4
4080
ENDCHAR
STARTCHAR uni5092
ENCODING 20626
SWIDTH 1000 0
DWIDTH 16 0
BBX 15 14 1 0
BITMAP
2FFC
2248
4444
C100
4210
47E0
4040
4084
47FC
4040
4FFE
4110
4208
4C06
ENDCHAR
STARTCHAR uni5094
ENCODING 20628
SWIDTH 1000 0
DWIDTH 16 0
BBX 15 14 1 0
BITMAP
1110
2110
4FFE
80A0
47FC
40A4
4FFE
40A4
47FC
40A0
42A8
44A4
48A2
40A0
ENDCHAR
STARTCHAR uni5095
ENCODING 20629
SWIDTH 1000 0
DWIDTH 16 0
BBX 15 14 1 0
BITMAP
1040
2040
4FFE
8882
4120
4220
47FC
4A20
53FC
4220
43FC
4220
4220
43FC
ENDCHAR
STARTCHAR uni5096
ENCODING 20630
SWIDTH 1000 0
DWIDTH 16 0
BBX 15 14 1 0
BITMAP
10C0
1120
2290
2448
4BF6
A210
23F0
2210
23F0
2408
27FC
2A08
33F8
2208
ENDCHAR
STARTCHAR uni5098
ENCODING 20632
SWIDTH 1000 0
DWIDTH 16 0
BBX 15 14 1 0
BITMAP
0380
0440
0820
1110
2928
C926
1550
2388
0920
1550
2388
FFFE
0100
0100
ENDCHAR
STARTCHAR uni5099
ENCODING 20633
SWIDTH 1000 0
DWIDTH 16 0
BBX 15 14 1 0
BITMAP
1110
1110
27FC
2110
4FFE
A200
23FC
2644
2BFC
3244
23FC
2244
2444
284C
ENDCHAR
STARTCHAR uni509A
ENCODING 20634
SWIDTH 1000 0
DWIDTH 16 0
BBX 15 14 1 0
BITMAP
2410
2210
5F9E
8524
48A4
5144
4924
4924
4514
4608
4A18
4924
5146
6082
ENDCHAR
STARTCHAR uni509B
ENCODING 20635
SWIDTH 1000 0
DWIDTH 16 0
BBX 15 14 1 0
BITMAP
1040
2FFE
4802
88A2
4110
4248
44A4
4110
4208
4404
4BFA
4208
4208
43F8
ENDCHAR
STARTCHAR uni509C
ENCODING 20636
SWIDTH 1000 0
DWIDTH 16 0
BBX 15 14 1 0
BITMAP
1080
11FC
2308
4C90
C060
47C0
4400
47FC
4440
4840
4FFE
4040
4444
47FC
ENDCHAR
STARTCHAR uni509D
ENCODING 20637
SWIDTH 1000 0
DWIDTH 16 0
BBX 15 14 1 0
BITMAP
17FC
2404
47FC
8404
47FC
4000
4000
4FBE
4082
469A
4186
4EBA
4082
471C
ENDCHAR
STARTCHAR uni509E
ENCODING 20638
SWIDTH 1000 0
DWIDTH 16 0
BBX 15 14 1 0
BITMAP
1208
2110
47FC
C040
47FC
4040
47FC
4080
4108
43FC
4C20
4020
4024
47FE
ENDCHAR
STARTCHAR uni50A2
ENCODING 20642
SWIDTH 1000 0
DWIDTH 16 0
BBX 15 14 1 0
BITMAP
2080
2040
4FFC
8804
43F0
4080
4744
40A8
4730
4070
41A8
4E26
40E0
4040
ENDCHAR
STARTCHAR uni50A3
ENCODING 20643
SWIDTH 1000 0
DWIDTH 16 0
BBX 15 14 1 0
BITMAP
2080
2FFC
2080
4FF8
C100
5FFE
4490
4C9E
52A4
41C0
42A0
4490
588E
4104
ENDCHAR
STARTCHAR uni50AC
ENCODING 20652
SWIDTH 1000 0
DWIDTH 16 0
BBX 15 14 1 0
BITMAP
0820
0924
1124
11FC
20A0
5110
93FE
1520
19FC
1120
11FC
1120
11FE
1100
ENDCHAR
STARTCHAR uni50AD
ENCODING 20653
SWIDTH 1000 0
DWIDTH 16 0
BBX 15 14 1 0
BITMAP
1020
17FE
25FC
4424
A7FE
25FC
2420
25FC
2524
25FC
2524
25FC
2924
212C
ENDCHAR
STARTCHAR uni50AE
ENCODING 20654
SWIDTH 1000 0
DWIDTH 16 0
BBX 15 14 1 0
BITMAP
0888
13FE
2088
63FE
A28A
23FE
228A
23FE
2000
21FC
2104
21FC
2104
21FC
ENDCHAR
STARTCHAR uni50AF
ENCODING 20655
SWIDTH 1000 0
DWIDTH 16 0
BBX 15 14 1 0
BITMAP
1100
1108
23FC
2688
4AE8
A328
22C8
2248
23F8
2000
2544
2522
290A
20F8
ENDCHAR
STARTCHAR uni50B0
ENCODING 20656
SWIDTH 1000 0
DWIDTH 16 0
BBX 15 14 1 0
BITMAP
1040
2842
4842
CFFE
4000
4FBE
48A2
4FBE
48A2
4FBE
48A2
48A2
48A2
50C6
ENDCHAR
STARTCHAR uni50B1
ENCODING 20657
SWIDTH 1000 0
DWIDTH 16 0
BBX 15 14 1 0
BITMAP
0944
1244
2444
60AA
A110
2200
2610
2A90
229E
2290
2290
2350
2230
221E
ENDCHAR
STARTCHAR uni50B2
ENCODING 20658
SWIDTH 1000 0
DWIDTH 16 0
BBX 15 14 1 0
BITMAP
1210
1210
2FA0
223E
4FC4
A224
3FA4
2428
2798
2490
2898
28A4
3326
2142
ENDCHAR
STARTCHAR uni50B3
ENCODING 20659
SWIDTH 1000 0
DWIDTH 16 0
BBX 15 14 1 0
BITMAP
1040
17FE
2040
47FC
A444
27FC
2444
27FC
2042
2FFE
2008
2FFE
2208
2038
ENDCHAR
STARTCHAR uni50B4
ENCODING 20660
SWIDTH 1000 0
DWIDTH 16 0
BBX 15 14 1 0
BITMAP
1FFE
2800
48F8
C888
4888
4888
48F8
4800
4BDE
4A52
4A52
4BDE
4800
4FFE
ENDCHAR
STARTCHAR uni50B5
ENCODING 20661
SWIDTH 1000 0
DWIDTH 16 0
BBX 15 14 1 0
BITMAP
0820
0BFE
1020
23FE
4020
A7FE
21FC
2104
21F4
21F4
2104
21FC
2104
2202
ENDCHAR
STARTCHAR uni50B6
ENCODING 20662
SWIDTH 1000 0
DWIDTH 16 0
BBX 15 14 1 0
BITMAP
1014
1012
27FE
6410
A490
24F0
2490
27F0
2490
25D2
26B4
2488
2896
21A2
ENDCHAR
STARTCHAR uni50B7
ENCODING 20663
SWIDTH 1000 0
DWIDTH 16 0
BBX 15 14 1 0
BITMAP
1200
13FC
2400
4BF8
A3E8
2208
23F8
2FFE
2200
27FE
2924
2244
249C
2108
ENDCHAR
STARTCHAR uni50B8
ENCODING 20664
SWIDTH 1000 0
DWIDTH 16 0
BBX 15 14 1 0
BITMAP
0820
0820
13FE
32AA
5124
92AA
1020
12AA
1124
12AA
1050
1088
1104
1202
ENDCHAR
STARTCHAR uni50BA
ENCODING 20666
SWIDTH 1000 0
DWIDTH 16 0
BBX 15 14 1 0
BITMAP
1220
13BC
24A4
66A8
A910
2510
2208
25F6
2800
27FC
2150
224C
2444
20C0
ENDCHAR
STARTCHAR uni50BB
ENCODING 20667
SWIDTH 1000 0
DWIDTH 16 0
BBX 15 14 1 0
BITMAP
1084
17FE
2524
24C4
4534
A7FC
2208
2486
21F8
2690
2060
2090
230E
2C04
ENDCHAR
STARTCHAR uni50BD
ENCODING 20669
SWIDTH 1000 0
DWIDTH 16 0
BBX 15 14 1 0
BITMAP
1040
2FFE
4208
CFFE
4000
47FC
4404
47FC
4404
47FC
4040
4FFE
4040
4040
ENDCHAR
STARTCHAR uni50BE
ENCODING 20670
SWIDTH 1000 0
DWIDTH 16 0
BBX 15 14 1 0
BITMAP
1004
10FE
2410
4424
A47E
2744
247C
2444
247C
2544
267C
2C28
2044
2084
ENDCHAR
STARTCHAR uni50BF
ENCODING 20671
SWIDTH 1000 0
DWIDTH 16 0
BBX 15 14 1 0
BITMAP
1FFE
2040
4278
C240
4FFE
4200
43F8
4200
43FE
4002
4A52
4A52
4002
403C
ENDCHAR
STARTCHAR uni50C1
ENCODING 20673
SWIDTH 1000 0
DWIDTH 16 0
BBX 15 14 1 0
BITMAP
23F8
4842
C444
4FFE
40E0
4150
4248
4CC6
4040
4A00
4A84
4A42
4208
43F8
ENDCHAR
STARTCHAR uni50C2
ENCODING 20674
SWIDTH 1000 0
DWIDTH 16 0
BBX 14 14 1 0
BITMAP
0840
13F8
2248
67FC
A248
23F8
27FC
2444
27FC
2150
27FC
20A0
2040
27BC
ENDCHAR
STARTCHAR uni50C4
ENCODING 20676
SWIDTH 1000 0
DWIDTH 16 0
BBX 15 14 1 0
BITMAP
17FC
20A0
47FC
C4A4
47FC
4000
47FC
4000
4FFE
4248
4444
4842
4140
4080
ENDCHAR
STARTCHAR uni50C5
ENCODING 20677
SWIDTH 1000 0
DWIDTH 16 0
BBX 15 14 1 0
BITMAP
1110
17FC
2110
41F0
A040
23F8
2248
23F8
2040
23F8
2040
23F8
2040
2FFE
ENDCHAR
STARTCHAR uni50C6
ENCODING 20678
SWIDTH 1000 0
DWIDTH 16 0
BBX 15 14 1 0
BITMAP
1020
2BFE
4420
C1FC
5D24
45FC
4924
51FC
4820
47FE
4420
4820
5400
63FE
ENDCHAR
STARTCHAR uni50C7
ENCODING 20679
SWIDTH 1000 0
DWIDTH 16 0
BBX 15 14 1 0
BITMAP
1084
17FE
24A4
4294
A5A4
20CC
2130
264E
20A4
2340
2090
2320
2040
2380
ENDCHAR
STARTCHAR uni50C8
ENCODING 20680
SWIDTH 1000 0
DWIDTH 16 0
BBX 15 14 1 0
BITMAP
17FC
2404
47FC
C404
47FC
4FFE
4912
4FFE
4000
43F8
4110
40A0
4040
47BC
ENDCHAR
STARTCHAR uni50C9
ENCODING 20681
SWIDTH 1000 0
DWIDTH 16 0
BBX 15 14 1 0
BITMAP
0380
0440
0820
1010
2FE8
4004
BEFA
2288
2288
3EF8
0000
0820
1450
628C
ENDCHAR
STARTCHAR uni50CA
ENCODING 20682
SWIDTH 1000 0
DWIDTH 16 0
BBX 15 14 1 0
BITMAP
17FC
20A0
47FC
C4A4
47FC
4100
4FFE
4208
45F4
4912
41E0
4102
4102
41FE
ENDCHAR
STARTCHAR uni50CB
ENCODING 20683
SWIDTH 1000 0
DWIDTH 16 0
BBX 15 14 1 0
BITMAP
0870
1088
2124
6222
A4F8
2010
21FC
2104
21FC
21FC
2104
21FC
2104
2202
ENDCHAR
STARTCHAR uni50CE
ENCODING 20686
SWIDTH 1000 0
DWIDTH 16 0
BBX 15 14 1 0
BITMAP
1004
17BE
24A4
47BC
A420
24A4
279E
2110
27FC
2110
2FFE
2108
2204
2404
ENDCHAR
STARTCHAR uni50CF
ENCODING 20687
SWIDTH 1000 0
DWIDTH 16 0
BBX 15 14 1 0
BITMAP
1110
11F0
2224
27FE
4244
A3FC
20C4
2768
20B0
2768
20A6
2724
20E0
2040
ENDCHAR
STARTCHAR uni50D1
ENCODING 20689
SWIDTH 1000 0
DWIDTH 16 0
BBX 15 14 1 0
BITMAP
1018
13E0
2040
27FC
4110
A3F8
2516
29F0
2004
27FE
25F4
2514
25F4
240C
ENDCHAR
STARTCHAR uni50D3
ENCODING 20691
SWIDTH 1000 0
DWIDTH 16 0
BBX 15 14 1 0
BITMAP
1040
17FC
2444
67FC
A040
2FFE
27FC
2404
27F4
27F4
2404
27FC
2208
2404
ENDCHAR
STARTCHAR uni50D4
ENCODING 20692
SWIDTH 1000 0
DWIDTH 16 0
BBX 15 14 1 0
BITMAP
1110
2FFE
60A0
A7FC
24A4
2514
24E4
2404
27FC
2008
2FFE
2408
2208
2038
ENDCHAR
STARTCHAR uni50D5
ENCODING 20693
SWIDTH 1000 0
DWIDTH 16 0
BBX 15 14 1 0
BITMAP
14A4
12A8
2FFE
2110
40A0
A7FC
2040
23F8
2040
2FFE
2040
2090
230C
2C04
ENDCHAR
STARTCHAR uni50D6
ENCODING 20694
SWIDTH 1000 0
DWIDTH 16 0
BBX 15 14 1 0
BITMAP
0840
0BFC
1040
23F8
4000
A3F8
2208
23F8
2110
2FFE
2110
27FC
2404
27FC
ENDCHAR
STARTCHAR uni50D7
ENCODING 20695
SWIDTH 1000 0
DWIDTH 16 0
BBX 15 14 1 0
BITMAP
1208
2AAA
671C
A208
2514
28A2
2000
2FFE
2882
27FC
2084
2104
2204
2418
ENDCHAR
STARTCHAR uni50DA
ENCODING 20698
SWIDTH 1000 0
DWIDTH 16 0
BBX 15 14 1 0
BITMAP
1080
1FFC
2140
2A28
4410
AFFE
3414
27F0
2410
27F0
22A0
2498
288C
2180
ENDCHAR
STARTCHAR uni50DB
ENCODING 20699
SWIDTH 1000 0
DWIDTH 16 0
BBX 15 14 1 0
BITMAP
28A0
28A0
5FFE
C8A2
488A
4F8A
4888
4888
4F88
4888
4888
5FC8
4514
48A2
ENDCHAR
STARTCHAR uni50DD
ENCODING 20701
SWIDTH 1000 0
DWIDTH 16 0
BBX 15 14 1 0
BITMAP
17FE
1402
27FE
6400
A4F8
2410
25FC
2410
2470
27FE
2444
27FE
2844
20CC
ENDCHAR
STARTCHAR uni50E0
ENCODING 20704
SWIDTH 1000 0
DWIDTH 16 0
BBX 15 14 1 0
BITMAP
13F8
2040
6248
A150
2FFE
2150
2248
2444
2802
27FC
2444
27FC
2444
27FC
ENDCHAR
STARTCHAR uni50E3
ENCODING 20707
SWIDTH 1000 0
DWIDTH 16 0
BBX 15 14 1 0
BITMAP
1208
2FBE
6208
AFBE
2208
2514
28A2
2000
27FC
2404
27FC
2404
27FC
2404
ENDCHAR
STARTCHAR uni50E4
ENCODING 20708
SWIDTH 1000 0
DWIDTH 16 0
BBX 15 14 1 0
BITMAP
2FBE
28A2
6FBE
A000
27FC
2444
27FC
2444
27FC
2040
2FFE
2040
2040
2040
ENDCHAR
STARTCHAR uni50E5
ENCODING 20709
SWIDTH 1000 0
DWIDTH 16 0
BBX 15 14 1 0
BITMAP
1040
13F8
2040
27FC
4110
A7FC
2110
2FFE
2000
27FC
2120
2224
2424
281E
ENDCHAR
STARTCHAR uni50E6
ENCODING 20710
SWIDTH 1000 0
DWIDTH 16 0
BBX 15 14 1 0
BITMAP
1210
1218
3FD4
2010
6FFE
A890
2898
2F98
2228
2B28
2AA8
32CA
264A
2086
ENDCHAR
STARTCHAR uni50E7
ENCODING 20711
SWIDTH 1000 0
DWIDTH 16 0
BBX 15 14 1 0
BITMAP
0910
0890
10A4
27FE
4554
A4E4
27FC
2000
23F8
2208
23F8
2208
23F8
2208
ENDCHAR
STARTCHAR uni50E8
ENCODING 20712
SWIDTH 1000 0
DWIDTH 16 0
BBX 15 14 1 0
BITMAP
1040
17FC
2150
6FFE
A110
27FC
2404
27FC
2404
27FC
2404
27FC
2208
2C06
ENDCHAR
STARTCHAR uni50E9
ENCODING 20713
SWIDTH 1000 0
DWIDTH 16 0
BBX 15 14 1 0
BITMAP
1004
17BE
24A4
47BC
A4A4
27BC
2404
25E4
2524
25E4
2524
25E4
2524
266C
ENDCHAR
STARTCHAR uni50EA
ENCODING 20714
SWIDTH 1000 0
DWIDTH 16 0
BBX 15 14 1 0
BITMAP
13F8
1010
20A0
6FFE
A144
2248
20C0
2FFE
2912
2912
2AEA
28A2
28E2
2806
ENDCHAR
STARTCHAR uni50EC
ENCODING 20716
SWIDTH 1000 0
DWIDTH 16 0
BBX 15 14 1 0
BITMAP
1240
1220
23FE
6620
ABFC
2220
23FC
2220
2220
23FE
2000
2524
2492
2892
ENDCHAR
STARTCHAR uni50ED
ENCODING 20717
SWIDTH 1000 0
DWIDTH 16 0
BBX 15 14 1 0
BITMAP
1000
2FBE
2928
4FBE
A308
251A
29AE
2008
27FC
2408
27F8
2408
27F8
2408
ENDCHAR
STARTCHAR uni50EE
ENCODING 20718
SWIDTH 1000 0
DWIDTH 16 0
BBX 15 14 1 0
BITMAP
1040
17FC
2110
2FFE
4000
A3F8
2248
23F8
2248
23F8
2040
27FC
2040
2FFE
ENDCHAR
STARTCHAR uni50EF
ENCODING 20719
SWIDTH 1000 0
DWIDTH 16 0
BBX 15 14 1 0
BITMAP
0924
10A8
27FE
60A8
A124
2222
2000
2104
23FE
2464
22A4
213E
2204
2404
ENDCHAR
STARTCHAR uni50F0
ENCODING 20720
SWIDTH 1000 0
DWIDTH 16 0
BBX 15 14 1 0
BITMAP
1010
FEFE
1010
FEFE
9292
9292
3838
5454
9292
0100
0100
0280
0440
F83E
ENDCHAR
STARTCHAR uni50F1
ENCODING 20721
SWIDTH 1000 0
DWIDTH 16 0
BBX 15 14 1 0
BITMAP
103C
17C0
23FE
2202
43FE
A250
22FE
2390
22FE
2490
24FE
2890
20FE
2080
ENDCHAR
STARTCHAR uni50F3
ENCODING 20723
SWIDTH 1000 0
DWIDTH 16 0
BBX 15 14 1 0
BITMAP
1FFE
10A0
27FC
24A4
64A4
A7FC
2248
2150
2FFE
2150
2248
2446
2844
2040
ENDCHAR
STARTCHAR uni50F5
ENCODING 20725
SWIDTH 1000 0
DWIDTH 16 0
BBX 15 14 1 0
BITMAP
2000
2FFC
47F8
8488
47F8
4488
47F8
5FFE
47F8
4488
47F8
4488
47F8
5FFE
ENDCHAR
STARTCHAR uni50F6
ENCODING 20726
SWIDTH 1000 0
DWIDTH 16 0
BBX 15 14 1 0
BITMAP
1000
2FFE
28A2
68A2
AFBE
20A0
2FBE
28A2
2FBE
28A2
2FBE
20A0
20A0
20FE
ENDCHAR
STARTCHAR uni50F8
ENCODING 20728
SWIDTH 1000 0
DWIDTH 16 0
BBX 15 14 1 0
BITMAP
1208
2FBE
6208
A71C
2AAA
2208
27FC
2000
2FFE
2040
2150
2E4E
2040
20C0
ENDCHAR
STARTCHAR uni50F9
ENCODING 20729
SWIDTH 1000 0
DWIDTH 16 0
BBX 15 14 1 0
BITMAP
1000
17FE
20A0
47FC
A4A4
27FC
23F8
2208
23F8
2208
23F8
2208
23F8
2404
ENDCHAR
STARTCHAR uni50FB
ENCODING 20731
SWIDTH 1000 0
DWIDTH 16 0
BBX 15 14 1 0
BITMAP
2020
2010
2F7E
4944
8928
4F10
48FE
5010
5F10
697C
4910
4F10
4910
4010
ENDCHAR
STARTCHAR uni50FD
ENCODING 20733
SWIDTH 1000 0
DWIDTH 16 0
BBX 15 14 1 0
BITMAP
1000
1708
222A
6FAA
A208
2708
2A94
2222
2000
2548
2524
2500
2904
20FC
ENDCHAR
STARTCHAR uni50FE
ENCODING 20734
SWIDTH 1000 0
DWIDTH 16 0
BBX 15 14 1 0
BITMAP
17FC
2248
6444
AFFE
2882
2D46
2512
29F0
2080
23F8
24A0
2040
20A0
2F1E
ENDCHAR
STARTCHAR uni50FF
ENCODING 20735
SWIDTH 1000 0
DWIDTH 16 0
BBX 15 14 1 0
BITMAP
1080
1040
2FFE
6912
AFFE
2110
27FC
2110
2FFE
2248
2444
2BFA
2040
2FFE
ENDCHAR
STARTCHAR uni5100
ENCODING 20736
SWIDTH 1000 0
DWIDTH 16 0
BBX 15 14 1 0
BITMAP
1110
17FC
2040
23F8
4040
A7FC
23A8
2124
2FFE
2120
21A4
2F18
212A
2646
ENDCHAR
STARTCHAR uni5102
ENCODING 20738
SWIDTH 1000 0
DWIDTH 16 0
BBX 15 14 1 0
BITMAP
10A0
13F8
22A8
43F8
A2A8
23F8
27FE
27FC
2400
27FC
2548
2530
2990
230E
ENDCHAR
STARTCHAR uni5103
ENCODING 20739
SWIDTH 1000 0
DWIDTH 16 0
BBX 15 14 1 0
BITMAP
1080
1040
2FFE
67FC
A5F4
2514
25F4
27FC
23F8
2208
23F8
2208
23F8
2FFE
ENDCHAR
STARTCHAR uni5104
ENCODING 20740
SWIDTH 1000 0
DWIDTH 16 0
BBX 15 14 1 0
BITMAP
1040
17FC
2110
4FFE
A000
23F8
2208
23F8
2208
23F8
2084
2A42
2A0A
21F8
ENDCHAR
STARTCHAR uni5105
ENCODING 20741
SWIDTH 1000 0
DWIDTH 16 0
BBX 15 14 1 0
BITMAP
1248
1150
27FE
2402
45F4
A110
21F0
2004
27FE
2444
27FC
2444
27FC
2404
ENDCHAR
STARTCHAR uni5106
ENCODING 20742
SWIDTH 1000 0
DWIDTH 16 0
BBX 15 14 1 0
BITMAP
2520
2FA0
2520
403E
C844
4F84
48A4
50A8
4EA8
4A90
4EA8
40A8
42C6
4104
ENDCHAR
STARTCHAR uni5107
ENCODING 20743
SWIDTH 1000 0
DWIDTH 16 0
BBX 15 14 1 0
BITMAP
17FC
14A4
27FC
6000
AFFE
2000
23F8
2208
23F8
20C4
2128
2310
2D8E
2104
ENDCHAR
STARTCHAR uni5108
ENCODING 20744
SWIDTH 1000 0
DWIDTH 16 0
BBX 15 14 1 0
BITMAP
10E0
1110
22E8
4406
A7FC
2554
27FC
2000
23F8
2208
23F8
2208
23F8
2208
ENDCHAR
STARTCHAR uni5109
ENCODING 20745
SWIDTH 1000 0
DWIDTH 16 0
BBX 15 14 1 0
BITMAP
10C0
1120
2218
4406
ABF8
2000
27BC
24A4
27BC
2000
2108
2318
24A6
2842
ENDCHAR
STARTCHAR uni510A
ENCODING 20746
SWIDTH 1000 0
DWIDTH 16 0
BBX 15 14 1 0
BITMAP
1208
1208
2FBE
6208
A71C
2AAA
2208
2FFE
2042
2040
227C
2240
2540
28FE
ENDCHAR
STARTCHAR uni510B
ENCODING 20747
SWIDTH 1000 0
DWIDTH 16 0
BBX 15 14 1 0
BITMAP
0880
09F8
1210
27FE
6C88
A524
27FE
25FC
2400
25FC
2400
29FC
3104
21FC
ENDCHAR
STARTCHAR uni510C
ENCODING 20748
SWIDTH 1000 0
DWIDTH 16 0
BBX 15 14 1 0
BITMAP
1210
1420
2FFE
6884
AF84
2884
2FA4
2224
2FA4
2424
2794
2488
2894
2322
ENDCHAR
STARTCHAR uni5110
ENCODING 20752
SWIDTH 1000 0
DWIDTH 16 0
BBX 15 14 1 0
BITMAP
1040
17FE
2402
27FA
4148
A244
2FF8
2208
23F8
2208
23F8
2208
23F8
2404
ENDCHAR
STARTCHAR uni5111
ENCODING 20753
SWIDTH 1000 0
DWIDTH 16 0
BBX 15 14 1 0
BITMAP
17FC
2404
67FC
A404
27FC
2208
2492
2FBE
2208
2492
2FBE
2000
2524
2892
ENDCHAR
STARTCHAR uni5112
ENCODING 20754
SWIDTH 1000 0
DWIDTH 16 0
BBX 15 14 1 0
BITMAP
13FC
1040
27FE
4552
A8E4
2358
2040
2FFE
2080
27FC
24A4
24A4
24A4
240C
ENDCHAR
STARTCHAR uni5113
ENCODING 20755
SWIDTH 1000 0
DWIDTH 16 0
BBX 15 14 1 0
BITMAP
1040
13F8
2040
63F8
A3F8
2208
23F8
2FFE
2BFA
2892
23F8
2040
23F8
27FC
ENDCHAR
STARTCHAR uni5114
ENCODING 20756
SWIDTH 1000 0
DWIDTH 16 0
BBX 15 14 1 0
BITMAP
1040
17FC
2040
41F0
AFFE
23F2
2044
23F8
2FFE
2008
277E
2528
2708
2018
ENDCHAR
STARTCHAR uni5115
ENCODING 20757
SWIDTH 1000 0
DWIDTH 16 0
BBX 15 14 1 0
BITMAP
1080
1040
27FE
40A4
AF48
2554
2552
2958
2208
23F8
2208
23F8
2208
2408
ENDCHAR
STARTCHAR uni5117
ENCODING 20759
SWIDTH 1000 0
DWIDTH 16 0
BBX 15 14 1 0
BITMAP
1800
2F7E
4804
C8A8
4F90
48FE
4F12
5410
4410
445C
5F50
4450
4AB0
511E
ENDCHAR
STARTCHAR uni5118
ENCODING 20760
SWIDTH 1000 0
DWIDTH 16 0
BBX 15 14 1 0
BITMAP
1048
13FC
2048
43FE
A048
23F8
2040
2FFE
24A4
2000
23F8
22A8
22A8
2FFE
ENDCHAR
STARTCHAR uni511A
ENCODING 20762
SWIDTH 1000 0
DWIDTH 16 0
BBX 15 14 1 0
BITMAP
1110
2FFC
6110
A7FC
24A4
27FC
2000
2FFE
2882
21F8
2308
2490
2060
2F80
ENDCHAR
STARTCHAR uni511C
ENCODING 20764
SWIDTH 1000 0
DWIDTH 16 0
BBX 15 14 1 0
BITMAP
1040
2FFE
6882
AB52
250C
21F8
2000
23F8
22A8
2FFE
2000
2FFE
2040
20C0
ENDCHAR
STARTCHAR uni511F
ENCODING 20767
SWIDTH 1000 0
DWIDTH 16 0
BBX 15 14 1 0
BITMAP
1248
1150
2FFE
4BFA
A208
23F8
2000
23F8
2208
23E8
23E8
2208
23F8
2404
ENDCHAR
STARTCHAR uni5120
ENCODING 20768
SWIDTH 1000 0
DWIDTH 16 0
BBX 15 14 1 0
BITMAP
1248
1490
2248
6FFC
A844
29B4
2FFC
2890
2EF0
2890
2EF0
2892
2AAA
2CC4
ENDCHAR
STARTCHAR uni5121
ENCODING 20769
SWIDTH 1000 0
DWIDTH 16 0
BBX 15 14 1 0
BITMAP
1008
13FC
2248
43F8
A248
23F8
2000
2FBE
2AAA
2FBE
2AAA
2AAA
2FBE
28A2
ENDCHAR
STARTCHAR uni5122
ENCODING 20770
SWIDTH 1000 0
DWIDTH 16 0
BBX 15 14 1 0
BITMAP
0840
1078
27FE
6442
A5F8
2478
24F8
24A8
24F8
24A8
24F8
24A2
2A84
24FC
ENDCHAR
STARTCHAR uni5124
ENCODING 20772
SWIDTH 1000 0
DWIDTH 16 0
BBX 15 14 1 0
BITMAP
13F8
1208
23F8
6208
A3F8
2110
2FFE
2110
2FFE
2454
2BE2
20D0
2148
2244
ENDCHAR
STARTCHAR uni5125
ENCODING 20773
SWIDTH 1000 0
DWIDTH 16 0
BBX 15 14 1 0
BITMAP
0820
11FC
2020
61FC
A3FE
2252
23FE
21FC
2104
21FC
21FC
2104
21FC
2202
ENDCHAR
STARTCHAR uni5126
ENCODING 20774
SWIDTH 1000 0
DWIDTH 16 0
BBX 15 14 1 0
BITMAP
1020
17FE
2490
65FC
A494
25FC
2510
2510
25DC
2510
25DE
2800
3494
2492
ENDCHAR
STARTCHAR uni5129
ENCODING 20777
SWIDTH 1000 0
DWIDTH 16 0
BBX 15 14 1 0
BITMAP
103C
1F24
293C
6924
AF3C
2924
2940
2F7E
29AA
292A
2F2A
2052
2602
290C
ENDCHAR
STARTCHAR uni512A
ENCODING 20778
SWIDTH 1000 0
DWIDTH 16 0
BBX 15 14 1 0
BITMAP
13FE
1040
21F8
21C8
4138
A7FE
24A2
2288
247C
21F8
2290
2060
2190
260E
ENDCHAR
STARTCHAR uni512D
ENCODING 20781
SWIDTH 1000 0
DWIDTH 16 0
BBX 15 14 1 0
BITMAP
1000
227C
6FC4
A544
227C
2FC4
227C
2FC4
227C
2728
2AA8
326A
222A
22C6
ENDCHAR
STARTCHAR uni512E
ENCODING 20782
SWIDTH 1000 0
DWIDTH 16 0
BBX 15 14 1 0
BITMAP
17FE
2422
65DC
A488
25FE
2488
25DC
26AA
2488
2420
2420
24B8
28A0
33FE
ENDCHAR
STARTCHAR uni5130
ENCODING 20784
SWIDTH 1000 0
DWIDTH 16 0
BBX 15 14 1 0
BITMAP
1110
2FFE
6110
A110
20A0
23F8
2088
21FC
2204
27FE
2AAA
22AA
2002
200C
ENDCHAR
STARTCHAR uni5131
ENCODING 20785
SWIDTH 1000 0
DWIDTH 16 0
BBX 15 14 1 0
BITMAP
0910
17DC
2290
67DC
A004
27DC
2450
245C
27D0
245C
2450
27DC
2452
24DE
ENDCHAR
STARTCHAR uni5132
ENCODING 20786
SWIDTH 1000 0
DWIDTH 16 0
BBX 15 14 1 0
BITMAP
2410
2212
4F7E
8014
4F18
407E
4F24
407E
4FA2
493E
4922
4922
4F3E
4922
ENDCHAR
STARTCHAR uni5133
ENCODING 20787
SWIDTH 1000 0
DWIDTH 16 0
BBX 15 14 1 0
BITMAP
11F0
1220
27F8
4448
A7F8
2224
27BC
21F0
2628
23FC
2248
23F8
2144
2E7E
ENDCHAR
STARTCHAR uni5134
ENCODING 20788
SWIDTH 1000 0
DWIDTH 16 0
BBX 15 14 1 0
BITMAP
0820
13FE
23DE
6252
A3DE
2088
23FE
2088
23FE
2088
23FE
2314
2148
2396
ENDCHAR
STARTCHAR uni5135
ENCODING 20789
SWIDTH 1000 0
DWIDTH 16 0
BBX 15 14 1 0
BITMAP
1100
21FC
4250
C820
4850
4888
49FC
4BAE
4974
49FC
4820
41FC
43FE
4492
ENDCHAR
STARTCHAR uni5137
ENCODING 20791
SWIDTH 1000 0
DWIDTH 16 0
BBX 15 14 1 0
BITMAP
2FBE
27BC
26B4
45AC
A040
27FC
2490
27FC
2494
27FC
2520
29BC
2922
339E
ENDCHAR
STARTCHAR uni5138
ENCODING 20792
SWIDTH 1000 0
DWIDTH 16 0
BBX 15 14 1 0
BITMAP
2004
2FFE
4924
4FFC
8220
4448
5AFE
4448
497E
5F48
447E
5548
557E
4440
ENDCHAR
STARTCHAR uni5139
ENCODING 20793
SWIDTH 1000 0
DWIDTH 16 0
BBX 15 14 1 0
BITMAP
1294
23DE
6084
A3DE
2294
20C6
21FC
2104
21FC
2104
21FC
2104
21FC
2202
ENDCHAR
STARTCHAR uni513A
ENCODING 20794
SWIDTH 1000 0
DWIDTH 16 0
BBX 15 14 1 0
BITMAP
2510
6FA4
A564
273E
2224
2FA4
2ABE
2FA4
2224
2FBE
2224
2FA4
2524
28BE
ENDCHAR
STARTCHAR uni513B
ENCODING 20795
SWIDTH 1000 0
DWIDTH 16 0
BBX 15 14 1 0
BITMAP
1248
1150
2FFE
49F2
A914
21F0
23F8
22E8
23F8
2040
23F8
2040
27FC
24A4
ENDCHAR
STARTCHAR uni513C
ENCODING 20796
SWIDTH 1000 0
DWIDTH 16 0
BBX 15 14 1 0
BITMAP
17BC
14A4
27BC
47FE
A5D0
249E
27E4
2544
25D4
2554
25C8
2554
2BE2
2042
ENDCHAR
STARTCHAR uni513D
ENCODING 20797
SWIDTH 1000 0
DWIDTH 16 0
BBX 15 14 1 0
BITMAP
0BF8
1248
23F8
63F8
AFBE
2AAA
2FBE
2FBE
2110
23E0
2044
27FC
2150
2248
ENDCHAR
STARTCHAR uni513F
ENCODING 20799
SWIDTH 1000 0
DWIDTH 16 0
BBX 15 13 1 0
BITMAP
1080
1080
1080
1080
1080
1080
1080
1080
1084
2084
2084
407E
8000
ENDCHAR
STARTCHAR uni5140
ENCODING 20800
SWIDTH 1000 0
DWIDTH 16 0
BBX 15 14 1 0
BITMAP
0004
FFFE
0440
0440
0440
0440
0440
0440
0440
0844
0844
1044
203E
4000
ENDCHAR
STARTCHAR uni5141
ENCODING 20801
SWIDTH 1000 0
DWIDTH 16 0
BBX 15 14 1 0
BITMAP
0200
0440
0820
1010
7FF8
0488
0488
0480
0880
0880
1084
1084
2084
C07E
ENDCHAR
STARTCHAR uni5143
ENCODING 20803
SWIDTH 1000 0
DWIDTH 16 0
BBX 15 14 1 0
BITMAP
0020
3FF0
0000
0004
FFFE
0480
0480
0480
0480
0880
0884
1084
2084
407E
ENDCHAR
STARTCHAR uni5144
ENCODING 20804
SWIDTH 1000 0
DWIDTH 16 0
BBX 14 14 2 0
BITMAP
0020
7FF0
4020
4020
4020
7FE0
4920
0900
0900
1100
1108
2108
4108
80FC
ENDCHAR
STARTCHAR uni5145
ENCODING 20805
SWIDTH 1000 0
DWIDTH 16 0
BBX 15 14 1 0
BITMAP
0400
0208
FFFC
0400
0840
1020
7FF0
0890
0880
0880
1084
2084
4084
807E
ENDCHAR
STARTCHAR uni5146
ENCODING 20806
SWIDTH 1000 0
DWIDTH 16 0
BBX 15 14 1 0
BITMAP
0480
0480
6498
14A0
14C0
0480
0CC0
14A0
6498
0880
0880
1084
2084
C07E
ENDCHAR
STARTCHAR uni5147
ENCODING 20807
SWIDTH 1000 0
DWIDTH 16 0
BBX 14 13 2 0
BITMAP
50A0
4920
4620
4520
58A0
4020
7FE0
4920
0900
1100
2108
4108
80FC
ENDCHAR
STARTCHAR uni5148
ENCODING 20808
SWIDTH 1000 0
DWIDTH 16 0
BBX 15 14 1 0
BITMAP
0100
1110
1FF8
1100
2100
0104
FFFE
0280
0480
0480
0884
1084
2084
407E
ENDCHAR
STARTCHAR uni5149
ENCODING 20809
SWIDTH 1000 0
DWIDTH 16 0
BBX 15 14 1 0
BITMAP
0108
1118
0910
0920
0104
FFFE
0280
0280
0480
0884
0884
1084
207E
4000
ENDCHAR
STARTCHAR uni514B
ENCODING 20811
SWIDTH 1000 0
DWIDTH 16 0
BBX 15 14 1 0
BITMAP
0200
0208
FFFC
0200
0220
3FF0
2020
2020
3FE0
2520
0500
0904
3104
C0FE
ENDCHAR
STARTCHAR uni514C
ENCODING 20812
SWIDTH 1000 0
DWIDTH 16 0
BBX 15 14 1 0
BITMAP
08C0
1020
2010
C02E
3FF0
2020
2020
3FE0
2520
0900
0904
1104
2104
C0FE
ENDCHAR
STARTCHAR uni514D
ENCODING 20813
SWIDTH 1000 0
DWIDTH 16 0
BBX 15 14 1 0
BITMAP
1040
1FE0
2080
4110
BFF8
2210
2210
3FF0
2510
0500
0900
1104
2104
C0FE
ENDCHAR
STARTCHAR uni5152
ENCODING 20818
SWIDTH 1000 0
DWIDTH 16 0
BBX 15 14 1 0
BITMAP
0400
0810
F0F8
2010
3DF0
2010
2010
3FF0
2490
0480
0880
1084
2084
C07E
ENDCHAR
STARTCHAR uni5154
ENCODING 20820
SWIDTH 1000 0
DWIDTH 16 0
BBX 15 14 1 0
BITMAP
1080
1FC0
2080
4120
BFF0
2220
2220
3FE0
2520
0900
0940
1124
2104
C0FE
ENDCHAR
STARTCHAR uni5155
ENCODING 20821
SWIDTH 1000 0
DWIDTH 16 0
BBX 14 14 2 0
BITMAP
0010
78F8
4890
4890
4F90
4010
7FF0
4890
0880
0880
1088
2088
4088
807C
ENDCHAR
STARTCHAR uni5157
ENCODING 20823
SWIDTH 1000 0
DWIDTH 16 0
BBX 15 14 1 0
BITMAP
0200
0104
FFFE
0820
3018
CFE6
0820
0820
0FE0
0AA0
0280
0484
1884
607E
ENDCHAR
STARTCHAR uni5159
ENCODING 20825
SWIDTH 1000 0
DWIDTH 16 0
BBX 15 14 1 1
BITMAP
1000
1010
FE10
1010
1010
FE10
82FE
8210
FE10
2410
2410
2412
4402
87FE
ENDCHAR
STARTCHAR uni515A
ENCODING 20826
SWIDTH 1000 0
DWIDTH 16 0
BBX 15 14 1 0
BITMAP
2108
1110
0920
FFFE
8002
9FF2
1010
1010
1FF0
1450
0440
0442
0842
F07E
ENDCHAR
STARTCHAR uni515B
ENCODING 20827
SWIDTH 1000 0
DWIDTH 16 0
BBX 15 14 1 1
BITMAP
1000
1004
FE78
1010
1010
FE10
82FE
8210
FE10
2410
2410
2412
4402
87FE
ENDCHAR
STARTCHAR uni515C
ENCODING 20828
SWIDTH 1000 0
DWIDTH 16 0
BBX 15 14 1 0
BITMAP
0100
1208
2C5C
E7C8
2448
27C8
2448
27C8
3458
0000
0440
0442
1842
E03E
ENDCHAR
STARTCHAR uni515D
ENCODING 20829
SWIDTH 1000 0
DWIDTH 16 0
BBX 15 14 1 1
BITMAP
1000
1030
FE48
1084
1102
FE00
82FE
8212
FE22
2442
2486
2400
4402
87FE
ENDCHAR
STARTCHAR uni515E
ENCODING 20830
SWIDTH 1000 0
DWIDTH 16 0
BBX 15 14 1 1
BITMAP
1000
1004
FE78
1020
10FC
FE20
8220
82FC
FE20
2422
243E
2400
4402
87FE
ENDCHAR
STARTCHAR uni515F
ENCODING 20831
SWIDTH 1000 0
DWIDTH 16 0
BBX 15 14 1 0
BITMAP
1010
5050
7C7C
5050
9090
1010
FEFE
2828
2828
2828
2828
2A2A
4A4A
8E8E
ENDCHAR
STARTCHAR uni5161
ENCODING 20833
SWIDTH 1000 0
DWIDTH 16 0
BBX 15 14 1 1
BITMAP
1000
10FE
FE10
1020
10FE
FE82
8282
82FE
FE82
2482
24FE
2400
4402
87FE
ENDCHAR
STARTCHAR uni5162
ENCODING 20834
SWIDTH 1000 0
DWIDTH 16 0
BBX 15 14 1 0
BITMAP
1020
1424
FEFE
1020
7EFC
4284
7EFC
5454
1450
1550
2650
2494
4114
820E
ENDCHAR
STARTCHAR uni5163
ENCODING 20835
SWIDTH 1000 0
DWIDTH 16 0
BBX 15 14 1 1
BITMAP
2000
23FE
FA00
22FE
2292
FAFE
8A92
8AFE
FA10
527C
5210
54FE
5002
9FFE
ENDCHAR
STARTCHAR uni5165
ENCODING 20837
SWIDTH 1000 0
DWIDTH 16 0
BBX 15 14 1 0
BITMAP
0400
0200
0100
0100
0280
0280
0440
0440
0820
0820
1010
2010
400E
8004
ENDCHAR
STARTCHAR uni5167
ENCODING 20839
SWIDTH 1000 0
DWIDTH 16 0
BBX 14 14 1 0
BITMAP
0200
0200
0208
FFFC
4208
4208
4208
4508
4488
4848
5048
4008
4038
4010
ENDCHAR
STARTCHAR uni5168
ENCODING 20840
SWIDTH 1000 0
DWIDTH 16 0
BBX 15 13 1 1
BITMAP
0700
0880
1040
2030
5FCE
8204
0200
0240
3FE0
0200
0200
0210
FFF8
ENDCHAR
STARTCHAR uni5169
ENCODING 20841
SWIDTH 1000 0
DWIDTH 16 0
BBX 15 14 1 0
BITMAP
0004
FFFE
0200
0200
0204
FFFE
8204
9244
9244
AAA4
C714
8204
821C
8008
ENDCHAR
STARTCHAR uni516B
ENCODING 20843
SWIDTH 1000 0
DWIDTH 16 0
BBX 14 14 2 0
BITMAP
0080
08C0
0880
0880
0880
0880
0880
1040
1040
1040
2020
2010
401C
8008
ENDCHAR
STARTCHAR uni516C
ENCODING 20844
SWIDTH 1000 0
DWIDTH 16 0
BBX 15 14 1 0
BITMAP
00C0
0480
0440
0840
0820
1010
210E
C104
0200
0400
0840
1020
3FF0
1010
ENDCHAR
STARTCHAR uni516D
ENCODING 20845
SWIDTH 1000 0
DWIDTH 16 0
BBX 15 14 1 0
BITMAP
0400
0200
0300
0104
FFFE
0000
0000
0440
0C20
0810
1018
100C
200C
4004
ENDCHAR
STARTCHAR uni516E
ENCODING 20846
SWIDTH 1000 0
DWIDTH 16 0
BBX 15 14 1 0
BITMAP
0440
0820
0820
1010
2010
4FEE
8404
0820
1FF0
0020
0020
0040
0380
0100
ENDCHAR
STARTCHAR uni5171
ENCODING 20849
SWIDTH 1000 0
DWIDTH 16 0
BBX 15 14 1 0
BITMAP
0440
0440
0448
7FFC
0440
0440
0440
0444
FFFE
0000
0820
0810
1018
2008
ENDCHAR
STARTCHAR uni5175
ENCODING 20853
SWIDTH 1000 0
DWIDTH 16 0
BBX 15 14 1 0
BITMAP
0020
00F0
1F00
0810
0FF8
0840
0840
0844
FFFE
0000
0840
1830
2018
4008
ENDCHAR
STARTCHAR uni5176
ENCODING 20854
SWIDTH 1000 0
DWIDTH 16 0
BBX 15 14 1 0
BITMAP
0820
0820
3FF8
0820
0FE0
0820
0FE0
0820
0824
FFFE
0000
0820
1818
2008
ENDCHAR
STARTCHAR uni5177
ENCODING 20855
SWIDTH 1000 0
DWIDTH 16 0
BBX 15 14 1 0
BITMAP
0020
0FF0
0820
0FE0
0820
0FE0
0820
0FE0
0824
FFFE
0440
0C20
1018
2008
ENDCHAR
STARTCHAR uni5178
ENCODING 20856
SWIDTH 1000 0
DWIDTH 16 0
BBX 15 14 1 0
BITMAP
0480
0480
0490
3FF8
2490
2490
3FF0
2490
2494
FFFE
0840
1820
2030
4010
ENDCHAR
STARTCHAR uni517C
ENCODING 20860
SWIDTH 1000 0
DWIDTH 16 0
BBX 15 14 1 0
BITMAP
1020
0844
FFFE
0440
3FF8
0448
FFFE
0448
3FF8
0440
1450
2448
4446
0440
ENDCHAR
STARTCHAR uni5180
ENCODING 20864
SWIDTH 1000 0
DWIDTH 16 0
BBX 15 14 1 0
BITMAP
0480
7CFC
FCFE
3FF8
2108
3FF8
2108
3FF8
0440
3FF8
0440
FFFE
1010
600C
ENDCHAR
STARTCHAR uni5187
ENCODING 20871
SWIDTH 1000 0
DWIDTH 16 0
BBX 15 14 1 0
BITMAP
0200
0204
FFFE
0400
0800
1FF8
2808
4808
0808
0808
0808
0808
1028
0010
ENDCHAR
STARTCHAR uni5189
ENCODING 20873
SWIDTH 1000 0
DWIDTH 16 0
BBX 15 14 1 0
BITMAP
0100
0110
1FF8
1110
1110
1FF0
1110
1114
FFFE
1010
1010
1010
1070
1020
ENDCHAR
STARTCHAR uni518A
ENCODING 20874
SWIDTH 1000 0
DWIDTH 16 0
BBX 15 14 1 0
BITMAP
0410
3EF8
2490
2490
2490
2494
FFFE
2490
2490
2490
2490
4510
4970
8220
ENDCHAR
STARTCHAR uni518D
ENCODING 20877
SWIDTH 1000 0
DWIDTH 16 0
BBX 15 14 1 0
BITMAP
0008
7FFC
0100
0110
1FF8
1110
1FF0
1110
1114
FFFE
1010
1010
1070
1020
ENDCHAR
STARTCHAR uni518F
ENCODING 20879
SWIDTH 1000 0
DWIDTH 16 0
BBX 15 14 1 0
BITMAP
FFFE
8482
8882
9082
A0FE
8002
9FF2
9012
9012
9012
9FF2
9012
8002
800C
ENDCHAR
STARTCHAR uni5191
ENCODING 20881
SWIDTH 1000 0
DWIDTH 16 0
BBX 14 14 2 0
BITMAP
0208
FFFC
8208
FFF8
8208
FFF8
0000
7FF0
4010
7FF0
4010
7FF0
4010
4010
ENDCHAR
STARTCHAR uni5192
ENCODING 20882
SWIDTH 1000 0
DWIDTH 16 0
BBX 14 14 2 0
BITMAP
FFFC
8008
BFE8
8008
BFE8
8008
3FE0
2020
3FE0
2020
3FE0
2020
3FE0
2020
ENDCHAR
STARTCHAR uni5193
ENCODING 20883
SWIDTH 1000 0
DWIDTH 16 0
BBX 15 14 1 0
BITMAP
0820
7FFC
0820
7FFC
0820
FFFE
0100
3FF8
2108
3FF8
2108
FFFE
2008
2010
ENDCHAR
STARTCHAR uni5194
ENCODING 20884
SWIDTH 1000 0
DWIDTH 16 0
BBX 15 14 1 0
BITMAP
3FF8
2008
3FF8
2008
3FF8
0000
F9FC
8820
8820
8BFE
F820
8820
00A0
0040
ENDCHAR
STARTCHAR uni5195
ENCODING 20885
SWIDTH 1000 0
DWIDTH 16 0
BBX 15 14 1 0
BITMAP
3FFC
2008
3FE8
2008
3FF8
0800
0FE0
1048
3FFC
D108
1FF8
0282
0C82
707E
ENDCHAR
STARTCHAR uni5197
ENCODING 20887
SWIDTH 1000 0
DWIDTH 16 0
BBX 15 14 1 0
BITMAP
0008
7FFC
4008
8010
0080
0FC0
0880
0880
0880
0880
1084
1084
2084
407E
ENDCHAR
STARTCHAR uni5198
ENCODING 20888
SWIDTH 1000 0
DWIDTH 16 0
BBX 14 14 2 0
BITMAP
0200
0200
FFF8
8208
8210
8220
0200
0300
0500
0900
1100
2104
4104
81FC
ENDCHAR
STARTCHAR uni519E
ENCODING 20894
SWIDTH 1000 0
DWIDTH 16 0
BBX 15 14 1 0
BITMAP
FFFE
8002
8102
2108
1930
0100
7FFC
0100
0540
0920
1110
2108
4104
0100
ENDCHAR
STARTCHAR uni51A0
ENCODING 20896
SWIDTH 1000 0
DWIDTH 16 0
BBX 15 14 1 0
BITMAP
0004
7FFE
4004
8418
3E10
00FC
7F10
1490
1450
1410
1470
2424
2404
43FE
ENDCHAR
STARTCHAR uni51A2
ENCODING 20898
SWIDTH 1000 0
DWIDTH 16 0
BBX 15 14 1 0
BITMAP
0004
7FFE
4004
8008
3FE0
0200
0600
1908
7AB0
0ED0
3348
0546
3844
0180
ENDCHAR
STARTCHAR uni51A4
ENCODING 20900
SWIDTH 1000 0
DWIDTH 16 0
BBX 15 14 1 0
BITMAP
7FFE
4042
9FE4
0840
1090
6FF8
1110
1110
1FF0
1280
04A0
0892
1082
607E
ENDCHAR
STARTCHAR uni51A5
ENCODING 20901
SWIDTH 1000 0
DWIDTH 16 0
BBX 15 14 1 0
BITMAP
7FFE
4002
8004
1FF0
1010
1FF0
1010
1FF0
1210
0104
FFFE
0820
1018
2008
ENDCHAR
STARTCHAR uni51AA
ENCODING 20906
SWIDTH 1000 0
DWIDTH 16 0
BBX 15 14 1 0
BITMAP
7FFC
4844
BFF4
1FE0
1020
1FE0
1020
1FE0
0200
FFFC
2230
5FE8
9226
1260
ENDCHAR
STARTCHAR uni51AC
ENCODING 20908
SWIDTH 1000 0
DWIDTH 16 0
BBX 15 14 1 0
BITMAP
0420
07F0
0820
1440
2280
0100
06C0
0830
320E
C184
00C0
0600
0180
00C0
ENDCHAR
STARTCHAR uni51B0
ENCODING 20912
SWIDTH 1000 0
DWIDTH 16 0
BBX 15 14 1 0
BITMAP
4080
2080
3084
008C
0F90
01A0
12C0
22A0
E490
2488
288E
3084
2380
2100
ENDCHAR
STARTCHAR uni51B1
ENCODING 20913
SWIDTH 1000 0
DWIDTH 16 0
BBX 15 14 1 0
BITMAP
0008
8FFC
6200
2200
0210
03F8
0A10
1210
E210
27F0
2010
2020
2044
2FFE
ENDCHAR
STARTCHAR uni51B6
ENCODING 20918
SWIDTH 1000 0
DWIDTH 16 0
BBX 15 14 1 0
BITMAP
0040
4040
3080
1108
0204
07FE
1002
2008
E3FC
2208
2208
2208
23F8
2208
ENDCHAR
STARTCHAR uni51B7
ENCODING 20919
SWIDTH 1000 0
DWIDTH 16 0
BBX 15 14 1 0
BITMAP
0180
8140
6220
2410
090E
1084
0090
17F8
2020
C040
4280
4100
40C0
0040
ENDCHAR
STARTCHAR uni51B9
ENCODING 20921
SWIDTH 1000 0
DWIDTH 16 0
BBX 15 14 1 0
BITMAP
8048
6044
27FE
0080
0084
0904
1204
E488
2850
2020
2050
2088
2104
2202
ENDCHAR
STARTCHAR uni51BC
ENCODING 20924
SWIDTH 1000 0
DWIDTH 16 0
BBX 15 14 1 0
BITMAP
0040
8240
6248
23FC
0240
0440
1044
27FE
E120
2120
2120
2222
2422
281E
ENDCHAR
STARTCHAR uni51BD
ENCODING 20925
SWIDTH 1000 0
DWIDTH 16 0
BBX 15 14 1 0
BITMAP
0042
8FE2
6202
2212
23D2
0252
1452
2452
CA92
4192
4112
4202
440E
4804
ENDCHAR
STARTCHAR uni51BE
ENCODING 20926
SWIDTH 1000 0
DWIDTH 16 0
BBX 15 14 1 0
BITMAP
0040
80A0
6110
2208
0404
09F2
0000
1000
E3F8
2208
2208
2208
23F8
2208
ENDCHAR
STARTCHAR uni51C4
ENCODING 20932
SWIDTH 1000 0
DWIDTH 16 0
BBX 15 14 1 0
BITMAP
0040
8FFE
4040
67FC
0044
0FFE
0044
17FC
2110
EFFE
2110
20E0
2110
2E0E
ENDCHAR
STARTCHAR uni51C5
ENCODING 20933
SWIDTH 1000 0
DWIDTH 16 0
BBX 15 14 1 0
BITMAP
0FFE
8842
4842
6BFA
2842
0842
0BFA
1A0A
2A0A
CBFA
4A0A
4802
4FFE
4802
ENDCHAR
STARTCHAR uni51C6
ENCODING 20934
SWIDTH 1000 0
DWIDTH 16 0
BBX 15 14 1 0
BITMAP
8120
6124
23FE
2620
0A20
03FC
1220
2220
E3FC
2220
2224
23FE
2200
0200
ENDCHAR
STARTCHAR uni51C8
ENCODING 20936
SWIDTH 1000 0
DWIDTH 16 0
BBX 15 14 1 0
BITMAP
07FC
8248
6444
2842
07FC
1044
2FFE
E044
27FC
2040
2040
2040
0140
0080
ENDCHAR
STARTCHAR uni51CA
ENCODING 20938
SWIDTH 1000 0
DWIDTH 16 0
BBX 15 14 1 0
BITMAP
0040
87FC
6040
23F8
2040
0FFE
0000
13FC
2204
E3FC
2204
23FC
2204
2208
ENDCHAR
STARTCHAR uni51CB
ENCODING 20939
SWIDTH 1000 0
DWIDTH 16 0
BBX 15 14 1 0
BITMAP
0004
47FE
2444
3444
05F4
0444
17FC
2404
E5F4
2514
25F4
2514
0804
100C
ENDCHAR
STARTCHAR uni51CC
ENCODING 20940
SWIDTH 1000 0
DWIDTH 16 0
BBX 15 14 1 0
BITMAP
0040
0048
87FC
6040
2040
0FFE
0208
148E
29F0
C310
44A0
4040
41B0
0E0E
ENDCHAR
STARTCHAR uni51CD
ENCODING 20941
SWIDTH 1000 0
DWIDTH 16 0
BBX 15 14 1 0
BITMAP
0040
87FE
6040
2048
03FC
0248
13F8
2248
C3F8
40E0
4150
424E
4C44
00C0
ENDCHAR
STARTCHAR uni51CE
ENCODING 20942
SWIDTH 1000 0
DWIDTH 16 0
BBX 15 14 1 0
BITMAP
00E0
8110
4208
6404
2802
03F8
0840
1040
27FC
E040
2444
2248
2150
2FFE
ENDCHAR
STARTCHAR uni51D0
ENCODING 20944
SWIDTH 1000 0
DWIDTH 16 0
BBX 15 14 1 0
BITMAP
0004
03FE
8050
6050
33FE
0252
0252
0BFE
1020
E020
21FC
2020
2020
23FE
ENDCHAR
STARTCHAR uni51D4
ENCODING 20948
SWIDTH 1000 0
DWIDTH 16 0
BBX 15 14 1 0
BITMAP
0040
80A0
6110
2248
07FC
0A0A
03F8
2208
C3F8
4400
4BFC
5204
4204
43FC
ENDCHAR
STARTCHAR uni51D7
ENCODING 20951
SWIDTH 1000 0
DWIDTH 16 0
BBX 15 14 1 0
BITMAP
0020
8222
C222
43FE
20A0
1110
03FE
0510
11FC
2110
C1FC
4110
4110
41FE
ENDCHAR
STARTCHAR uni51D8
ENCODING 20952
SWIDTH 1000 0
DWIDTH 16 0
BBX 15 14 1 0
BITMAP
0880
8882
5FBC
48A0
48A0
0FBE
08A4
2FA4
28A4
C8A4
5FE4
4544
4884
5044
ENDCHAR
STARTCHAR uni51DC
ENCODING 20956
SWIDTH 1000 0
DWIDTH 16 0
BBX 15 14 1 0
BITMAP
0040
8FFE
6000
27FC
2514
05F4
17FC
2000
C3F8
4FFE
4040
4448
4444
08C4
ENDCHAR
STARTCHAR uni51DD
ENCODING 20957
SWIDTH 1000 0
DWIDTH 16 0
BBX 15 14 1 0
BITMAP
0804
887E
6F04
2828
0790
287E
2F92
4A14
D250
5FDC
4270
4550
4888
1106
ENDCHAR
STARTCHAR uni51DE
ENCODING 20958
SWIDTH 1000 0
DWIDTH 16 0
BBX 15 14 1 0
BITMAP
8BDE
4A92
6A92
2BD2
0A52
0A56
1BD0
2A90
CA92
4BDE
4800
4AA4
5252
6452
ENDCHAR
STARTCHAR uni51E0
ENCODING 20960
SWIDTH 1000 0
DWIDTH 16 0
BBX 15 14 1 0
BITMAP
0040
1FE0
1040
1040
1040
1040
1040
1040
1040
1044
2044
2044
403E
8000
ENDCHAR
STARTCHAR uni51E1
ENCODING 20961
SWIDTH 1000 0
DWIDTH 16 0
BBX 15 14 1 0
BITMAP
0040
1FE0
1040
1040
1440
1240
1340
1140
1040
1044
2044
2044
403E
8000
ENDCHAR
STARTCHAR uni51F0
ENCODING 20976
SWIDTH 1000 0
DWIDTH 16 0
BBX 15 14 1 0
BITMAP
0008
7FFC
2408
2FE8
2828
2FE8
2828
2FE8
2008
2FE8
2108
4FEA
410A
9FF6
ENDCHAR
STARTCHAR uni51F1
ENCODING 20977
SWIDTH 1000 0
DWIDTH 16 0
BBX 15 14 1 0
BITMAP
1000
9208
927C
FE48
8248
0048
FE48
0048
FE48
8248
FE48
448A
288A
FD06
ENDCHAR
STARTCHAR uni51F3
ENCODING 20979
SWIDTH 1000 0
DWIDTH 16 0
BBX 15 14 1 0
BITMAP
3C20
04C8
2830
17D0
200E
CFE4
0820
0FE0
0440
7FFC
07C0
0444
1844
603C
ENDCHAR
STARTCHAR uni51F5
ENCODING 20981
SWIDTH 1000 0
DWIDTH 16 0
BBX 13 12 2 1
BITMAP
8008
8008
8008
8008
8008
8008
8008
8008
8008
8008
FFF8
8008
ENDCHAR
STARTCHAR uni51F6
ENCODING 20982
SWIDTH 1000 0
DWIDTH 16 0
BBX 14 13 1 0
BITMAP
0020
9064
8844
8484
8304
8304
8484
8844
9064
A024
8004
FFFC
8004
ENDCHAR
STARTCHAR uni51F8
ENCODING 20984
SWIDTH 1000 0
DWIDTH 16 0
BBX 14 14 1 0
BITMAP
0040
0FE0
0840
0840
0840
0848
F87C
8008
8008
8008
8008
8008
FFF8
8008
ENDCHAR
STARTCHAR uni51F9
ENCODING 20985
SWIDTH 1000 0
DWIDTH 16 0
BBX 14 13 2 0
BITMAP
0008
F8FC
8888
8888
8888
8888
8888
8F88
8008
8008
8008
FFF8
8008
ENDCHAR
STARTCHAR uni51FA
ENCODING 20986
SWIDTH 1000 0
DWIDTH 16 0
BBX 13 14 2 0
BITMAP
0200
0200
4210
4210
4210
7FF0
4210
0200
0200
8208
8208
8208
FFF8
8008
ENDCHAR
STARTCHAR uni51FD
ENCODING 20989
SWIDTH 1000 0
DWIDTH 16 0
BBX 14 14 1 0
BITMAP
0020
3FF0
0080
8304
9134
9924
8544
8104
8544
9934
B114
8204
FFFC
8004
ENDCHAR
STARTCHAR uni5200
ENCODING 20992
SWIDTH 1000 0
DWIDTH 16 0
BBX 14 14 1 0
BITMAP
0008
7FFC
0408
0408
0408
0408
0408
0408
0808
0808
1088
2048
4030
8020
ENDCHAR
STARTCHAR uni5201
ENCODING 20993
SWIDTH 1000 0
DWIDTH 16 0
BBX 14 13 1 0
BITMAP
0008
7FFC
0008
0088
0108
0208
0408
0808
3008
C008
0090
0060
0040
ENDCHAR
STARTCHAR uni5203
ENCODING 20995
SWIDTH 1000 0
DWIDTH 16 0
BBX 13 13 2 0
BITMAP
0010
FFF8
0410
0410
0410
2410
4410
C810
0810
1010
2090
4060
8040
ENDCHAR
STARTCHAR uni5206
ENCODING 20998
SWIDTH 1000 0
DWIDTH 16 0
BBX 15 14 1 0
BITMAP
0080
0480
0440
0820
1010
2008
5FEE
8424
0420
0420
0820
0920
10C0
2080
ENDCHAR
STARTCHAR uni5207
ENCODING 20999
SWIDTH 1000 0
DWIDTH 16 0
BBX 15 14 1 0
BITMAP
2000
2004
21FE
2044
FC44
2044
2044
2444
2844
3084
6084
0104
0238
0410
ENDCHAR
STARTCHAR uni5208
ENCODING 21000
SWIDTH 1000 0
DWIDTH 16 0
BBX 13 14 2 0
BITMAP
0008
8208
4208
2248
2448
1448
0848
1448
1248
2208
2108
4108
8038
0010
ENDCHAR
STARTCHAR uni5209
ENCODING 21001
SWIDTH 1000 0
DWIDTH 16 0
BBX 15 14 1 0
BITMAP
1002
1082
3FC2
4012
8012
3F12
0112
0212
0412
0812
1002
2042
404A
3FC4
ENDCHAR
STARTCHAR uni520A
ENCODING 21002
SWIDTH 1000 0
DWIDTH 16 0
BBX 15 14 1 0
BITMAP
0202
7F02
0802
0822
0822
0922
FFA2
0822
0822
0822
1002
1002
200E
4004
ENDCHAR
STARTCHAR uni520C
ENCODING 21004
SWIDTH 1000 0
DWIDTH 16 0
BBX 15 14 1 0
BITMAP
0402
0402
0402
FF22
0422
0422
4422
2422
1422
0422
0402
0402
1414
0808
ENDCHAR
STARTCHAR uni520E
ENCODING 21006
SWIDTH 1000 0
DWIDTH 16 0
BBX 15 14 1 0
BITMAP
1002
1082
3FD2
2A92
4A92
8A92
1292
1492
2492
4492
0882
1082
270E
0204
ENDCHAR
STARTCHAR uni5210
ENCODING 21008
SWIDTH 1000 0
DWIDTH 16 0
BBX 15 14 1 0
BITMAP
0102
3F82
2112
2112
2912
2512
FFD2
2112
2112
2102
2102
2102
450A
0204
ENDCHAR
STARTCHAR uni5211
ENCODING 21009
SWIDTH 1000 0
DWIDTH 16 0
BBX 14 14 1 0
BITMAP
0104
7F84
1204
1224
1224
1224
FFA4
1224
1224
1224
2204
2204
421C
0208
ENDCHAR
STARTCHAR uni5212
ENCODING 21010
SWIDTH 1000 0
DWIDTH 16 0
BBX 15 14 1 0
BITMAP
1202
1102
1012
1792
F812
1012
1112
1112
0A12
0C12
1482
2282
C18E
00C4
ENDCHAR
STARTCHAR uni5213
ENCODING 21011
SWIDTH 1000 0
DWIDTH 16 0
BBX 15 14 1 0
BITMAP
0202
7F02
0012
0012
0112
FF92
2412
2412
2412
2412
2442
2442
444A
83C4
ENDCHAR
STARTCHAR uni5216
ENCODING 21014
SWIDTH 1000 0
DWIDTH 16 0
BBX 14 14 1 0
BITMAP
0104
3F84
2104
2124
3F24
2124
2124
3F24
2124
2124
2104
4104
451C
8208
ENDCHAR
STARTCHAR uni5217
ENCODING 21015
SWIDTH 1000 0
DWIDTH 16 0
BBX 14 14 1 0
BITMAP
0104
7F84
1004
1124
1FA4
2124
2124
5224
8A24
0424
0804
1004
201C
4008
ENDCHAR
STARTCHAR uni521C
ENCODING 21020
SWIDTH 1000 0
DWIDTH 16 0
BBX 15 14 1 0
BITMAP
2402
2402
FF82
2492
2492
FF92
A412
FFD2
2452
2442
2542
4482
840A
0404
ENDCHAR
STARTCHAR uni521D
ENCODING 21021
SWIDTH 1000 0
DWIDTH 16 0
BBX 15 14 1 0
BITMAP
2000
1004
15FE
FC44
0844
1044
3444
5844
9484
1484
1104
1124
1218
1010
ENDCHAR
STARTCHAR uni521E
ENCODING 21022
SWIDTH 1000 0
DWIDTH 16 0
BBX 15 14 1 0
BITMAP
3F02
2102
2112
2112
3F12
2112
2112
3F12
2112
2102
2102
2112
FFCA
0004
ENDCHAR
STARTCHAR uni5221
ENCODING 21025
SWIDTH 1000 0
DWIDTH 16 0
BBX 15 14 1 0
BITMAP
0002
FF02
8112
8112
FF12
8412
8412
FF92
8412
8402
8402
9282
A18A
C084
ENDCHAR
STARTCHAR uni5224
ENCODING 21028
SWIDTH 1000 0
DWIDTH 16 0
BBX 14 14 1 0
BITMAP
0404
4444
34C4
1504
0424
7FA4
0424
0424
FFA4
0424
0824
0804
101C
2008
ENDCHAR
STARTCHAR uni5225
ENCODING 21029
SWIDTH 1000 0
DWIDTH 16 0
BBX 14 14 1 0
BITMAP
0104
3F84
2124
2124
3F24
0824
0924
7FA4
0924
1124
1124
2104
4E1C
8408
ENDCHAR
STARTCHAR uni5228
ENCODING 21032
SWIDTH 1000 0
DWIDTH 16 0
BBX 15 14 1 0
BITMAP
2002
2082
3FD2
4092
8492
3E92
2492
2492
3C92
2592
2102
2042
204E
1FC4
ENDCHAR
STARTCHAR uni5229
ENCODING 21033
SWIDTH 1000 0
DWIDTH 16 0
BBX 15 14 1 0
BITMAP
0102
0782
7C02
0412
0492
FFD2
0C12
0E12
1512
1492
2492
4402
040E
0404
ENDCHAR
STARTCHAR uni522A
ENCODING 21034
SWIDTH 1000 0
DWIDTH 16 0
BBX 15 14 1 0
BITMAP
0882
3BC2
2A92
2A92
2A92
2A92
7FD2
2A92
2A92
2A92
2A92
4A82
5D8E
8884
ENDCHAR
STARTCHAR uni522E
ENCODING 21038
SWIDTH 1000 0
DWIDTH 16 0
BBX 15 14 1 0
BITMAP
0182
0602
7802
0812
0912
FF92
0812
0912
7F92
4112
4112
4102
7F0E
4104
ENDCHAR
STARTCHAR uni5230
ENCODING 21040
SWIDTH 1000 0
DWIDTH 16 0
BBX 15 14 1 0
BITMAP
0102
7F82
1012
1212
2112
7F92
0892
0812
7F12
0812
0812
0F82
F80E
4004
ENDCHAR
STARTCHAR uni5231
ENCODING 21041
SWIDTH 1000 0
DWIDTH 16 0
BBX 15 13 1 0
BITMAP
247E
2412
FF12
2452
2432
241A
FF12
2412
2412
2422
4442
8484
0418
ENDCHAR
STARTCHAR uni5232
ENCODING 21042
SWIDTH 1000 0
DWIDTH 16 0
BBX 15 14 1 0
BITMAP
0802
0802
7F12
0812
0812
FF92
0012
0812
0812
7F12
0802
0802
FF8A
0004
ENDCHAR
STARTCHAR uni5233
ENCODING 21043
SWIDTH 1000 0
DWIDTH 16 0
BBX 15 14 1 0
BITMAP
0402
7FC2
0A0A
110A
208A
5F4A
802A
7FCA
100A
1F8A
0082
0082
010A
1E04
ENDCHAR
STARTCHAR uni5235
ENCODING 21045
SWIDTH 1000 0
DWIDTH 16 0
BBX 15 14 1 0
BITMAP
FFC2
2102
2112
3F12
2112
2112
3F12
2112
2112
FF02
0102
0102
010A
0104
ENDCHAR
STARTCHAR uni5236
ENCODING 21046
SWIDTH 1000 0
DWIDTH 16 0
BBX 15 14 1 0
BITMAP
0402
2402
3F92
2412
4492
BFD2
0412
3FD2
2492
2492
2482
2582
248E
0404
ENDCHAR
STARTCHAR uni5237
ENCODING 21047
SWIDTH 1000 0
DWIDTH 16 0
BBX 15 14 1 0
BITMAP
0042
3FE2
204A
3FCA
220A
224A
2FEA
2A4A
2A4A
2A4A
4A42
4AC2
820E
0204
ENDCHAR
STARTCHAR uni5238
ENCODING 21048
SWIDTH 1000 0
DWIDTH 16 0
BBX 15 14 1 0
BITMAP
1110
0910
0920
3FF8
0100
7FFC
0440
0830
37EE
C224
0220
0420
08E0
1040
ENDCHAR
STARTCHAR uni523A
ENCODING 21050
SWIDTH 1000 0
DWIDTH 16 0
BBX 15 14 1 0
BITMAP
0802
0902
FF82
0812
0912
7F92
4912
4912
4B12
1C12
2A02
4982
888E
0804
ENDCHAR
STARTCHAR uni523B
ENCODING 21051
SWIDTH 1000 0
DWIDTH 16 0
BBX 15 14 1 0
BITMAP
0802
0482
FFC2
0412
0892
3112
0A12
0492
1912
6212
0602
1982
E08E
0004
ENDCHAR
STARTCHAR uni5241
ENCODING 21057
SWIDTH 1000 0
DWIDTH 16 0
BBX 15 14 1 0
BITMAP
0202
7F02
2212
2212
2992
4812
FF92
0812
1C12
2B12
4902
8802
080E
0804
ENDCHAR
STARTCHAR uni5243
ENCODING 21059
SWIDTH 1000 0
DWIDTH 16 0
BBX 15 14 1 0
BITMAP
2402
1402
1912
7F92
0912
0912
7F12
4892
FFD2
1892
2882
4B82
890E
0804
ENDCHAR
STARTCHAR uni5244
ENCODING 21060
SWIDTH 1000 0
DWIDTH 16 0
BBX 15 14 1 0
BITMAP
FF82
0002
2482
4912
9212
4912
2492
0012
FF92
0802
0802
0802
FF8A
0004
ENDCHAR
STARTCHAR uni5246
ENCODING 21062
SWIDTH 1000 0
DWIDTH 16 0
BBX 14 14 1 0
BITMAP
1004
0804
7F24
4124
7F24
4124
7F24
4024
4824
4404
4604
4904
5094
E008
ENDCHAR
STARTCHAR uni5247
ENCODING 21063
SWIDTH 1000 0
DWIDTH 16 0
BBX 15 14 1 0
BITMAP
0202
7F02
4222
4222
7E22
4222
4222
7E22
4222
4222
7E02
2402
430E
8104
ENDCHAR
STARTCHAR uni5249
ENCODING 21065
SWIDTH 1000 0
DWIDTH 16 0
BBX 15 14 1 0
BITMAP
0402
2482
2482
248A
248A
554A
8E2A
040A
040A
7FCA
0402
0402
FFEA
0004
ENDCHAR
STARTCHAR uni524A
ENCODING 21066
SWIDTH 1000 0
DWIDTH 16 0
BBX 15 14 1 0
BITMAP
0402
24C2
1482
1502
0492
3FD2
2092
3F92
2092
3F92
2092
4082
438E
8104
ENDCHAR
STARTCHAR uni524B
ENCODING 21067
SWIDTH 1000 0
DWIDTH 16 0
BBX 15 14 1 0
BITMAP
1000
1208
FF08
1048
1248
FF48
8248
FE48
AA48
2808
2818
4802
4802
87FE
ENDCHAR
STARTCHAR uni524C
ENCODING 21068
SWIDTH 1000 0
DWIDTH 16 0
BBX 14 14 1 0
BITMAP
0804
0904
FF84
0824
7F24
4924
7F24
5924
1C24
2A04
2904
4904
881C
0808
ENDCHAR
STARTCHAR uni524D
ENCODING 21069
SWIDTH 1000 0
DWIDTH 16 0
BBX 15 14 1 0
BITMAP
1030
0C20
0444
FFFE
0000
3F04
2224
3E24
2224
3E24
2224
4204
4E1C
8408
ENDCHAR
STARTCHAR uni524E
ENCODING 21070
SWIDTH 1000 0
DWIDTH 16 0
BBX 15 14 1 0
BITMAP
4302
3402
0812
1612
6112
0812
FF92
0812
2A12
4912
8902
0802
380E
1004
ENDCHAR
STARTCHAR uni5252
ENCODING 21074
SWIDTH 1000 0
DWIDTH 16 0
BBX 15 14 1 0
BITMAP
2202
2202
FF92
2212
2212
FF92
0012
7F12
4112
7F12
4102
4102
7F0A
4104
ENDCHAR
STARTCHAR uni5254
ENCODING 21076
SWIDTH 1000 0
DWIDTH 16 0
BBX 15 14 1 0
BITMAP
0102
3F82
2112
3F12
2112
3F12
1092
3FD2
5492
9492
2482
2882
4B8E
1104
ENDCHAR
STARTCHAR uni5255
ENCODING 21077
SWIDTH 1000 0
DWIDTH 16 0
BBX 15 14 1 0
BITMAP
1202
1202
1212
F3D2
1212
1212
F3D2
1212
1212
F3D2
1212
1202
220A
0204
ENDCHAR
STARTCHAR uni5256
ENCODING 21078
SWIDTH 1000 0
DWIDTH 16 0
BBX 15 14 1 0
BITMAP
1000
0802
0902
FF92
2212
1212
1412
FF92
0012
3F12
2112
2102
3F0E
2104
ENDCHAR
STARTCHAR uni525A
ENCODING 21082
SWIDTH 1000 0
DWIDTH 16 0
BBX 15 14 1 0
BITMAP
0802
FF82
0802
7F12
4912
7F12
0812
7F12
0912
FF92
0912
7F02
080A
1804
ENDCHAR
STARTCHAR uni525B
ENCODING 21083
SWIDTH 1000 0
DWIDTH 16 0
BBX 15 14 1 0
BITMAP
0082
FFC2
A282
9492
8892
FF92
8892
AA92
AA92
AA92
BE82
A282
808E
8184
ENDCHAR
STARTCHAR uni525C
ENCODING 21084
SWIDTH 1000 0
DWIDTH 16 0
BBX 15 14 1 0
BITMAP
0800
0402
7FC2
4052
8092
2012
3B92
4A92
6A92
9392
1202
2242
424E
81C4
ENDCHAR
STARTCHAR uni525D
ENCODING 21085
SWIDTH 1000 0
DWIDTH 16 0
BBX 15 14 1 0
BITMAP
0902
1F82
6112
1A12
0492
7FD2
0412
6492
1512
0E12
1502
2482
C48E
0C04
ENDCHAR
STARTCHAR uni525E
ENCODING 21086
SWIDTH 1000 0
DWIDTH 16 0
BBX 14 14 1 0
BITMAP
0804
7F04
0824
1424
2224
FFA4
0124
3D24
2524
2504
3D04
2104
0514
0208
ENDCHAR
STARTCHAR uni525F
ENCODING 21087
SWIDTH 1000 0
DWIDTH 16 0
BBX 15 14 1 0
BITMAP
0002
FBE2
8A22
514A
208A
514A
8A2A
FBEA
8A2A
514A
2082
5142
8A2A
0004
ENDCHAR
STARTCHAR uni5261
ENCODING 21089
SWIDTH 1000 0
DWIDTH 16 0
BBX 14 14 1 0
BITMAP
4904
2904
2A24
1624
21A4
C8A4
0824
2924
2A24
4804
1604
2184
C094
0008
ENDCHAR
STARTCHAR uni5262
ENCODING 21090
SWIDTH 1000 0
DWIDTH 16 0
BBX 15 14 1 0
BITMAP
0102
FF82
1002
3812
4412
8A92
1312
A212
4712
AA92
1252
2A02
420A
8C04
ENDCHAR
STARTCHAR uni5269
ENCODING 21097
SWIDTH 1000 0
DWIDTH 16 0
BBX 15 14 1 0
BITMAP
0382
3C02
0402
FFD2
1512
F5D2
1512
E4D2
0E12
1512
2492
C482
1C0E
0804
ENDCHAR
STARTCHAR uni526A
ENCODING 21098
SWIDTH 1000 0
DWIDTH 16 0
BBX 15 14 1 0
BITMAP
0820
0444
FFFE
3E08
2248
3E48
2248
3E48
2218
7FFC
0408
0408
1838
6010
ENDCHAR
STARTCHAR uni526B
ENCODING 21099
SWIDTH 1000 0
DWIDTH 16 0
BBX 15 14 1 0
BITMAP
0802
0402
7FC2
4A12
7F92
4A12
4E12
4012
5F12
5112
4A02
4402
8A0A
1104
ENDCHAR
STARTCHAR uni526C
ENCODING 21100
SWIDTH 1000 0
DWIDTH 16 0
BBX 15 14 1 0
BITMAP
0802
8882
8882
FF92
0012
FF92
1012
2012
FF92
9492
9482
9482
948A
8104
ENDCHAR
STARTCHAR uni526D
ENCODING 21101
SWIDTH 1000 0
DWIDTH 16 0
BBX 15 14 1 0
BITMAP
7F82
4082
7F92
4012
5F12
4812
5112
5F92
4492
4412
5F82
8402
040A
7FC4
ENDCHAR
STARTCHAR uni526E
ENCODING 21102
SWIDTH 1000 0
DWIDTH 16 0
BBX 15 14 1 0
BITMAP
3E02
2202
2E12
2A12
2A12
FF92
8092
BE92
A292
A282
BE82
A282
808A
8104
ENDCHAR
STARTCHAR uni526F
ENCODING 21103
SWIDTH 1000 0
DWIDTH 16 0
BBX 14 14 1 0
BITMAP
0104
FF84
0004
3E24
2224
3E24
0024
7F24
4924
7F24
4904
4904
7F1C
4108
ENDCHAR
STARTCHAR uni5272
ENCODING 21106
SWIDTH 1000 0
DWIDTH 16 0
BBX 15 14 1 0
BITMAP
0402
7FE2
4042
8492
BF92
0412
3F92
0412
7FD2
0412
3F82
2082
3F8E
2084
ENDCHAR
STARTCHAR uni5274
ENCODING 21108
SWIDTH 1000 0
DWIDTH 16 0
BBX 15 14 1 0
BITMAP
0802
4902
4912
7F12
4112
0012
FF92
0012
7F12
4112
7F12
2202
1402
FF8E
ENDCHAR
STARTCHAR uni5275
ENCODING 21109
SWIDTH 1000 0
DWIDTH 16 0
BBX 15 14 1 0
BITMAP
0602
0502
0882
3252
DFB2
1092
1F92
1092
1F92
2042
3FE2
5042
9FCE
1044
ENDCHAR
STARTCHAR uni5277
ENCODING 21111
SWIDTH 1000 0
DWIDTH 16 0
BBX 15 14 1 0
BITMAP
0202
7FE2
1082
0912
7FD2
4012
5212
5FD2
6212
4FD2
4202
4242
5FEE
8004
ENDCHAR
STARTCHAR uni5278
ENCODING 21112
SWIDTH 1000 0
DWIDTH 16 0
BBX 15 14 1 0
BITMAP
0802
FF82
0802
7F12
7D12
4912
7F12
0892
FF92
0212
FF92
2202
120A
0604
ENDCHAR
STARTCHAR uni527A
ENCODING 21114
SWIDTH 1000 0
DWIDTH 16 0
BBX 15 14 1 0
BITMAP
1040
7C7E
1044
FEA8
3810
5428
9246
7FFE
4000
4FF8
4108
4108
8208
1C18
ENDCHAR
STARTCHAR uni527B
ENCODING 21115
SWIDTH 1000 0
DWIDTH 16 0
BBX 15 14 1 0
BITMAP
0402
4442
4452
7FD2
0012
7BD2
4A52
4A52
7BD2
4A52
7BD2
4A42
4A4A
9CC4
ENDCHAR
STARTCHAR uni527C
ENCODING 21116
SWIDTH 1000 0
DWIDTH 16 0
BBX 15 14 1 0
BITMAP
2000
4102
FF02
2212
5492
FF92
1412
2A12
5112
A892
5412
2802
100A
E004
ENDCHAR
STARTCHAR uni527D
ENCODING 21117
SWIDTH 1000 0
DWIDTH 16 0
BBX 15 14 1 0
BITMAP
0082
FFC2
1412
FF92
9492
FF92
0012
7F12
0012
FF92
0812
4902
888E
1804
ENDCHAR
STARTCHAR uni527F
ENCODING 21119
SWIDTH 1000 0
DWIDTH 16 0
BBX 15 14 1 0
BITMAP
2482
4912
2492
3F92
2492
3F92
2492
3F92
0412
FFF2
1512
2482
444A
0404
ENDCHAR
STARTCHAR uni5280
ENCODING 21120
SWIDTH 1000 0
DWIDTH 16 0
BBX 15 14 1 0
BITMAP
7F02
0A02
0412
FF92
2892
4912
1812
FF92
9492
9492
E382
9C82
948A
9C84
ENDCHAR
STARTCHAR uni5281
ENCODING 21121
SWIDTH 1000 0
DWIDTH 16 0
BBX 15 14 1 0
BITMAP
1402
3F82
2412
6412
BF92
2412
2412
3F92
2412
2412
3F82
5482
4A4A
8A44
ENDCHAR
STARTCHAR uni5282
ENCODING 21122
SWIDTH 1000 0
DWIDTH 16 0
BBX 15 14 1 0
BITMAP
0022
FFF2
5142
4A4A
7F7A
449A
556A
554A
5F4A
554A
44A2
4892
9112
2206
ENDCHAR
STARTCHAR uni5283
ENCODING 21123
SWIDTH 1000 0
DWIDTH 16 0
BBX 15 14 1 0
BITMAP
0802
7F02
FF92
0912
7F12
7F12
0812
FF92
7F12
4912
7F02
4902
7F0E
FF84
ENDCHAR
STARTCHAR uni5284
ENCODING 21124
SWIDTH 1000 0
DWIDTH 16 0
BBX 14 14 1 0
BITMAP
4204
7384
A504
0824
1424
2224
4124
BEA4
0024
7F04
4104
4104
7F14
4108
ENDCHAR
STARTCHAR uni5287
ENCODING 21127
SWIDTH 1000 0
DWIDTH 16 0
BBX 15 14 1 0
BITMAP
0802
0F82
7FC2
4852
7F92
4812
4F12
7FD2
4C12
7292
4712
9A82
2262
0606
ENDCHAR
STARTCHAR uni5288
ENCODING 21128
SWIDTH 1000 0
DWIDTH 16 0
BBX 15 14 1 0
BITMAP
0220
7FFC
2288
3E50
21FE
3E20
52F8
9E20
0028
3FFC
0208
0208
0C38
3010
ENDCHAR
STARTCHAR uni5289
ENCODING 21129
SWIDTH 1000 0
DWIDTH 16 0
BBX 15 14 1 0
BITMAP
1082
E7C2
4292
5492
6D92
1212
2112
DE92
0812
3F12
0902
2A02
1F8E
7004
ENDCHAR
STARTCHAR uni528A
ENCODING 21130
SWIDTH 1000 0
DWIDTH 16 0
BBX 15 14 1 0
BITMAP
1C02
2202
5D02
80D2
FF92
AA92
FF92
0012
7F12
4112
7F02
4102
7F0E
4104
ENDCHAR
STARTCHAR uni528B
ENCODING 21131
SWIDTH 1000 0
DWIDTH 16 0
BBX 15 14 1 0
BITMAP
1F02
1102
1F12
0012
7BD2
4A52
7BD2
0412
FFF2
1502
2482
4442
0C0A
0404
ENDCHAR
STARTCHAR uni528C
ENCODING 21132
SWIDTH 1000 0
DWIDTH 16 0
BBX 15 14 1 0
BITMAP
0402
2782
2402
FFEA
00CA
7FCA
408A
7E8A
48AA
5ACA
6A82
8542
0832
3016
ENDCHAR
STARTCHAR uni528D
ENCODING 21133
SWIDTH 1000 0
DWIDTH 16 0
BBX 14 14 1 0
BITMAP
1804
2404
4204
81A4
7E24
0024
7724
5524
7724
0024
2204
2204
551C
8888
ENDCHAR
STARTCHAR uni5291
ENCODING 21137
SWIDTH 1000 0
DWIDTH 16 0
BBX 15 14 1 0
BITMAP
0402
FFE2
0A02
F5EA
554A
552A
91AA
208A
3F8A
208A
3F8A
2082
408E
8084
ENDCHAR
STARTCHAR uni5293
ENCODING 21139
SWIDTH 1000 0
DWIDTH 16 0
BBX 15 14 1 0
BITMAP
1102
7F82
3D02
3D12
2112
3F12
7F92
4492
7F92
4492
7F82
FFC2
110E
2104
ENDCHAR
STARTCHAR uni5296
ENCODING 21142
SWIDTH 1000 0
DWIDTH 16 0
BBX 15 14 1 0
BITMAP
7E02
8402
FF82
8092
FF92
7B92
4212
7F92
8412
FF92
8892
FF92
2482
C7CE
ENDCHAR
STARTCHAR uni5297
ENCODING 21143
SWIDTH 1000 0
DWIDTH 16 0
BBX 15 14 1 0
BITMAP
A502
F782
2102
F7D2
AD52
39D2
7F92
4092
7F92
4092
7F92
4082
7F82
804E
ENDCHAR
STARTCHAR uni5298
ENCODING 21144
SWIDTH 1000 0
DWIDTH 16 0
BBX 15 14 1 0
BITMAP
0402
7FC2
5102
7BD2
5112
7B92
5152
4A12
7BD2
4A12
7BD2
4A12
BBC2
120E
ENDCHAR
STARTCHAR uni5299
ENCODING 21145
SWIDTH 1000 0
DWIDTH 16 0
BBX 15 14 1 0
BITMAP
1F02
1202
FFCA
290A
560A
2D0A
148A
6C4A
208A
FBEA
AAAA
FBE2
28A2
FBEE
ENDCHAR
STARTCHAR uni529B
ENCODING 21147
SWIDTH 1000 0
DWIDTH 16 0
BBX 15 14 1 0
BITMAP
0200
0200
0204
7FFE
0204
0204
0204
0204
0404
0404
0804
1024
6018
8010
ENDCHAR
STARTCHAR uni529F
ENCODING 21151
SWIDTH 1000 0
DWIDTH 16 0
BBX 15 14 1 0
BITMAP
0080
0880
FC80
1084
17FE
1084
1084
1084
1D04
F104
4104
0224
0418
0810
ENDCHAR
STARTCHAR uni52A0
ENCODING 21152
SWIDTH 1000 0
DWIDTH 16 0
BBX 15 14 1 0
BITMAP
1000
1000
1000
1204
FF7E
1244
1244
1244
1244
2244
2244
227C
4E44
8400
ENDCHAR
STARTCHAR uni52A3
ENCODING 21155
SWIDTH 1000 0
DWIDTH 16 0
BBX 14 14 1 0
BITMAP
0100
0910
0908
312C
00C4
0300
1C00
E110
1FF8
0210
0410
0810
30E0
C040
ENDCHAR
STARTCHAR uni52A6
ENCODING 21158
SWIDTH 1000 0
DWIDTH 16 0
BBX 15 14 1 0
BITMAP
0100
0100
3FF8
0208
0408
1870
0000
2020
FEFE
2222
2222
4242
8282
1C1C
ENDCHAR
STARTCHAR uni52A9
ENCODING 21161
SWIDTH 1000 0
DWIDTH 16 0
BBX 15 14 1 0
BITMAP
0220
3F20
2224
22FE
3E24
2224
2224
3E24
2244
2244
2F44
F084
4138
0210
ENDCHAR
STARTCHAR uni52AA
ENCODING 21162
SWIDTH 1000 0
DWIDTH 16 0
BBX 15 14 1 0
BITMAP
0804
FF7E
1204
6248
1430
0C28
3246
4000
0108
3FFC
0208
0408
1870
6020
ENDCHAR
STARTCHAR uni52AB
ENCODING 21163
SWIDTH 1000 0
DWIDTH 16 0
BBX 15 14 1 0
BITMAP
1020
1420
7E20
1024
10FE
1224
FF24
1024
1424
2244
FE44
4284
0138
0210
ENDCHAR
STARTCHAR uni52AC
ENCODING 21164
SWIDTH 1000 0
DWIDTH 16 0
BBX 15 14 1 0
BITMAP
2020
2220
7F20
8224
02FE
7A24
4A24
4A24
7A24
4A44
0244
0284
1CB8
0910
ENDCHAR
STARTCHAR uni52AD
ENCODING 21165
SWIDTH 1000 0
DWIDTH 16 0
BBX 15 14 1 0
BITMAP
0220
FF20
2224
22FE
2A24
4424
8024
7E24
4224
4244
4244
7E84
42A8
0110
ENDCHAR
STARTCHAR uni52AE
ENCODING 21166
SWIDTH 1000 0
DWIDTH 16 0
BBX 15 14 1 0
BITMAP
0810
4810
4810
7E10
48FE
8812
0812
FF12
0812
0812
1412
2222
414A
8084
ENDCHAR
STARTCHAR uni52BB
ENCODING 21179
SWIDTH 1000 0
DWIDTH 16 0
BBX 15 14 1 0
BITMAP
0120
FFA0
8020
8424
BEFE
8824
8824
BE24
8824
8A24
BF44
8044
FF9C
8108
ENDCHAR
STARTCHAR uni52BC
ENCODING 21180
SWIDTH 1000 0
DWIDTH 16 0
BBX 15 14 1 0
BITMAP
1020
1020
FF20
10FE
1022
1022
FE22
0022
FE22
8222
8242
8284
FE28
8210
ENDCHAR
STARTCHAR uni52BE
ENCODING 21182
SWIDTH 1000 0
DWIDTH 16 0
BBX 15 14 1 0
BITMAP
1020
0920
FFA0
1024
12FE
2224
6424
1824
1224
2424
4844
1444
249C
4108
ENDCHAR
STARTCHAR uni52C0
ENCODING 21184
SWIDTH 1000 0
DWIDTH 16 0
BBX 15 14 1 0
BITMAP
0810
0810
FF90
083E
0812
7F12
4112
4112
7F12
2412
2422
2482
4494
8788
ENDCHAR
STARTCHAR uni52C1
ENCODING 21185
SWIDTH 1000 0
DWIDTH 16 0
BBX 15 14 1 0
BITMAP
0020
FFA0
4920
4924
927E
4924
4924
0024
7F24
0824
0844
0F44
F89C
4108
ENDCHAR
STARTCHAR uni52C2
ENCODING 21186
SWIDTH 1000 0
DWIDTH 16 0
BBX 15 14 1 0
BITMAP
0810
4810
7F10
487E
8812
0812
FF92
0012
7F12
4112
4122
4142
7F04
4118
ENDCHAR
STARTCHAR uni52C3
ENCODING 21187
SWIDTH 1000 0
DWIDTH 16 0
BBX 15 14 1 0
BITMAP
0820
7F20
0824
7F7E
4124
8124
3E24
0424
1824
FF44
0844
0844
389C
1108
ENDCHAR
STARTCHAR uni52C7
ENCODING 21191
SWIDTH 1000 0
DWIDTH 16 0
BBX 13 14 2 0
BITMAP
3FE0
0080
0310
7FF8
4210
7FF0
4210
7FF0
4210
0210
FFF8
0410
1810
E0E0
ENDCHAR
STARTCHAR uni52C9
ENCODING 21193
SWIDTH 1000 0
DWIDTH 16 0
BBX 15 14 1 0
BITMAP
1220
3F20
2424
48FE
FF24
4924
4924
7F44
1444
149C
2508
2402
4402
83FE
ENDCHAR
STARTCHAR uni52CD
ENCODING 21197
SWIDTH 1000 0
DWIDTH 16 0
BBX 15 14 1 0
BITMAP
1010
0810
FF90
007E
7F12
4112
4112
7F12
0812
2A12
4912
88A2
0804
1018
ENDCHAR
STARTCHAR uni52D2
ENCODING 21202
SWIDTH 1000 0
DWIDTH 16 0
BBX 15 14 1 0
BITMAP
2220
2220
FFA0
2224
3EFE
0824
7F24
4924
7F44
0844
FF44
0884
091C
0A08
ENDCHAR
STARTCHAR uni52D3
ENCODING 21203
SWIDTH 1000 0
DWIDTH 16 0
BBX 15 14 1 0
BITMAP
8410
8410
F790
843E
9492
E792
1012
7F12
4112
7F12
4112
4122
7F54
4108
ENDCHAR
STARTCHAR uni52D5
ENCODING 21205
SWIDTH 1000 0
DWIDTH 16 0
BBX 15 14 1 0
BITMAP
0720
7820
0824
FF7E
0824
7F24
4924
7F24
4924
7F24
0844
7E44
089C
FF08
ENDCHAR
STARTCHAR uni52D6
ENCODING 21206
SWIDTH 1000 0
DWIDTH 16 0
BBX 15 14 1 0
BITMAP
FF90
8090
BE90
80BE
BE92
0012
7F12
4112
7F12
4112
7F22
4142
7F14
4108
ENDCHAR
STARTCHAR uni52D7
ENCODING 21207
SWIDTH 1000 0
DWIDTH 16 0
BBX 15 14 1 0
BITMAP
0008
1FFC
1008
1FF8
1008
1FF8
3E24
22FE
3E24
2224
3E44
2244
3F9C
E108
ENDCHAR
STARTCHAR uni52D8
ENCODING 21208
SWIDTH 1000 0
DWIDTH 16 0
BBX 15 14 1 0
BITMAP
2220
FFA0
2224
3E7E
2224
3E24
2224
FFA4
5424
5424
6724
4044
7F5C
4088
ENDCHAR
STARTCHAR uni52D9
ENCODING 21209
SWIDTH 1000 0
DWIDTH 16 0
BBX 15 14 1 0
BITMAP
0840
FC44
08FE
3348
1030
FE58
1586
3020
51FC
9044
1044
1084
711C
2208
ENDCHAR
STARTCHAR uni52DB
ENCODING 21211
SWIDTH 1000 0
DWIDTH 16 0
BBX 15 14 1 0
BITMAP
0220
FF20
8220
FE24
00FE
FE24
8224
FE24
8224
FE24
8244
FE44
449C
8308
ENDCHAR
STARTCHAR uni52DD
ENCODING 21213
SWIDTH 1000 0
DWIDTH 16 0
BBX 15 14 1 0
BITMAP
0248
7950
4BFC
4840
4FFE
7890
4908
4A46
7848
4BFC
4888
4888
4938
9A10
ENDCHAR
STARTCHAR uni52DE
ENCODING 21214
SWIDTH 1000 0
DWIDTH 16 0
BBX 15 14 1 0
BITMAP
1020
9324
54A8
2850
4488
FFFE
8202
8224
3FF0
0420
0820
1020
21C0
C080
ENDCHAR
STARTCHAR uni52DF
ENCODING 21215
SWIDTH 1000 0
DWIDTH 16 0
BBX 15 14 1 0
BITMAP
0820
FFFE
0820
1FF0
1FD0
1010
1FF0
0204
FFFE
0910
37F8
C226
0C20
31C0
ENDCHAR
STARTCHAR uni52E2
ENCODING 21218
SWIDTH 1000 0
DWIDTH 16 0
BBX 15 14 1 0
BITMAP
1020
7C20
10F8
FE28
44A8
9368
7C4A
108E
FE00
0108
3FFC
0208
0C08
7070
ENDCHAR
STARTCHAR uni52E3
ENCODING 21219
SWIDTH 1000 0
DWIDTH 16 0
BBX 15 14 1 0
BITMAP
0810
FF90
7F12
087E
FF92
0012
7F12
4112
7D12
7D12
4122
7F22
414E
8084
ENDCHAR
STARTCHAR uni52E4
ENCODING 21220
SWIDTH 1000 0
DWIDTH 16 0
BBX 15 14 1 0
BITMAP
4420
FF20
4424
7CFE
1024
FE24
9224
FE24
1024
FE24
1044
FE44
109C
FF08
ENDCHAR
STARTCHAR uni52E6
ENCODING 21222
SWIDTH 1000 0
DWIDTH 16 0
BBX 15 14 1 0
BITMAP
4920
4920
9224
497E
7F24
4924
7F24
4924
7F24
0824
FF24
2A44
299C
4908
ENDCHAR
STARTCHAR uni52E9
ENCODING 21225
SWIDTH 1000 0
DWIDTH 16 0
BBX 15 14 1 0
BITMAP
5410
FF10
5410
5CFE
4012
7F12
0012
7E12
4212
7A12
7A12
4222
7E54
8108
ENDCHAR
STARTCHAR uni52EB
ENCODING 21227
SWIDTH 1000 0
DWIDTH 16 0
BBX 15 14 1 0
BITMAP
3E10
4910
2A7E
1C12
FF92
2A12
4912
8892
7F12
4912
7F12
4922
7F54
4108
ENDCHAR
STARTCHAR uni52EF
ENCODING 21231
SWIDTH 1000 0
DWIDTH 16 0
BBX 15 14 1 0
BITMAP
0810
FF90
0010
7F7E
5D12
5512
5D12
7F12
3E12
2212
3E12
2222
3E42
FF9C
ENDCHAR
STARTCHAR uni52F0
ENCODING 21232
SWIDTH 1000 0
DWIDTH 16 0
BBX 15 14 1 0
BITMAP
2004
247E
FE54
247C
2454
4454
887C
4400
FF24
5552
5552
55C0
9944
223C
ENDCHAR
STARTCHAR uni52F1
ENCODING 21233
SWIDTH 1000 0
DWIDTH 16 0
BBX 15 14 1 0
BITMAP
2210
FF90
2210
7F3E
4912
7F12
4912
7F12
0812
FF92
8A92
BEA2
8082
810C
ENDCHAR
STARTCHAR uni52F3
ENCODING 21235
SWIDTH 1000 0
DWIDTH 16 0
BBX 15 14 1 0
BITMAP
3F20
0820
7F24
08FE
7F24
6B24
5D24
7F24
0824
7F24
0844
FF44
559C
9508
ENDCHAR
STARTCHAR uni52F4
ENCODING 21236
SWIDTH 1000 0
DWIDTH 16 0
BBX 15 14 1 0
BITMAP
0E10
0810
7F90
5FBE
4812
4E12
5F12
5512
5F12
5512
5F12
6CA2
A942
0F1E
ENDCHAR
STARTCHAR uni52F5
ENCODING 21237
SWIDTH 1000 0
DWIDTH 16 0
BBX 15 14 1 0
BITMAP
7FD0
4910
7F90
493E
5F92
5292
5F92
5292
5F92
4212
BFD2
A252
2F66
21C4
ENDCHAR
STARTCHAR uni52F7
ENCODING 21239
SWIDTH 1000 0
DWIDTH 16 0
BBX 15 14 1 0
BITMAP
0810
FF90
F790
94BE
F792
2212
FF92
2212
FF92
2212
FF92
C512
4222
658C
ENDCHAR
STARTCHAR uni52F8
ENCODING 21240
SWIDTH 1000 0
DWIDTH 16 0
BBX 15 14 1 0
BITMAP
2420
FF20
2424
FF7E
9924
FF24
4424
FF24
4824
7F24
4824
7F44
485C
7F88
ENDCHAR
STARTCHAR uni52FA
ENCODING 21242
SWIDTH 1000 0
DWIDTH 16 0
BBX 14 14 1 0
BITMAP
1000
1008
3FFC
2008
4008
8808
0408
0608
0208
0008
0008
0090
0060
0040
ENDCHAR
STARTCHAR uni52FB
ENCODING 21243
SWIDTH 1000 0
DWIDTH 16 0
BBX 14 14 2 0
BITMAP
1000
1008
1FFC
2008
4C08
8408
0208
0008
0108
0608
3808
1048
0030
0020
ENDCHAR
STARTCHAR uni52FC
ENCODING 21244
SWIDTH 1000 0
DWIDTH 16 0
BBX 15 14 1 0
BITMAP
2000
2000
3FFE
4802
8802
3F82
0882
0892
0892
1092
20F2
4004
0048
0030
ENDCHAR
STARTCHAR uni52FE
ENCODING 21246
SWIDTH 1000 0
DWIDTH 16 0
BBX 15 14 1 0
BITMAP
0800
0804
1FFE
1004
2204
4404
8404
0884
1044
3FC4
1044
0004
0038
0010
ENDCHAR
STARTCHAR uni52FF
ENCODING 21247
SWIDTH 1000 0
DWIDTH 16 0
BBX 15 14 1 0
BITMAP
1000
1000
1004
1FFE
2444
4444
8444
0844
0884
1084
2104
4204
0438
0810
ENDCHAR
STARTCHAR uni5305
ENCODING 21253
SWIDTH 1000 0
DWIDTH 16 0
BBX 15 14 1 0
BITMAP
0800
0808
1FFC
1008
2088
5FC8
9088
1088
1F88
10B8
1010
1002
1002
0FFE
ENDCHAR
STARTCHAR uni5306
ENCODING 21254
SWIDTH 1000 0
DWIDTH 16 0
BBX 15 14 1 0
BITMAP
0800
0804
1FFE
1244
2244
4A44
8644
0544
08C4
1164
2224
4404
0838
0010
ENDCHAR
STARTCHAR uni5308
ENCODING 21256
SWIDTH 1000 0
DWIDTH 16 0
BBX 15 14 1 0
BITMAP
1000
1004
3FFE
2004
4484
82A4
1124
12A4
14A4
1FE4
1024
0004
0038
0010
ENDCHAR
STARTCHAR uni5309
ENCODING 21257
SWIDTH 1000 0
DWIDTH 16 0
BBX 15 14 1 0
BITMAP
0800
1004
3FFE
4004
9FC4
0204
1244
0A84
7FF4
0204
0204
0204
0228
0210
ENDCHAR
STARTCHAR uni530A
ENCODING 21258
SWIDTH 1000 0
DWIDTH 16 0
BBX 14 14 1 0
BITMAP
1000
1000
3FFC
4004
8204
1244
0A84
3FE4
0204
0A84
1244
2224
0208
0430
ENDCHAR
STARTCHAR uni530B
ENCODING 21259
SWIDTH 1000 0
DWIDTH 16 0
BBX 15 14 1 0
BITMAP
1000
1000
3FFE
2402
4402
8FC2
1202
0202
3FE2
0202
1242
1242
1FC4
0018
ENDCHAR
STARTCHAR uni530D
ENCODING 21261
SWIDTH 1000 0
DWIDTH 16 0
BBX 15 14 1 0
BITMAP
1004
1FFE
2284
4244
9FE4
0204
1FE4
1244
1FC4
1244
1FC4
1244
10DC
0008
ENDCHAR
STARTCHAR uni530E
ENCODING 21262
SWIDTH 1000 0
DWIDTH 16 0
BBX 15 14 1 0
BITMAP
1000
3FFE
4102
9FF2
0442
0922
1FF2
292A
0FE2
0922
0FE2
0102
01F2
0004
ENDCHAR
STARTCHAR uni530F
ENCODING 21263
SWIDTH 1000 0
DWIDTH 16 0
BBX 15 14 1 0
BITMAP
1080
1088
FEFC
2908
4608
FDE8
0128
FF28
21E8
7D08
0518
0500
3904
10FE
ENDCHAR
STARTCHAR uni5310
ENCODING 21264
SWIDTH 1000 0
DWIDTH 16 0
BBX 15 14 1 0
BITMAP
1004
1FFE
2004
7FE4
8004
1FC4
1044
1FC4
3FE4
2224
3FE4
2224
3FE4
0018
ENDCHAR
STARTCHAR uni5311
ENCODING 21265
SWIDTH 1000 0
DWIDTH 16 0
BBX 15 14 1 0
BITMAP
2000
3FFE
4802
9EF2
1212
1E12
12F2
1E82
12F2
3E12
0612
0A12
3262
040C
ENDCHAR
STARTCHAR uni5312
ENCODING 21266
SWIDTH 1000 0
DWIDTH 16 0
BBX 15 14 1 0
BITMAP
2000
3FFE
4442
9FF2
0442
0782
0842
1022
2FD2
400A
0FC2
0842
0FC2
000C
ENDCHAR
STARTCHAR uni5315
ENCODING 21269
SWIDTH 1000 0
DWIDTH 16 0
BBX 13 12 2 1
BITMAP
8020
8020
8040
8080
8100
8200
8C00
B000
8010
8010
8010
7FF8
ENDCHAR
STARTCHAR uni5316
ENCODING 21270
SWIDTH 1000 0
DWIDTH 16 0
BBX 15 14 1 0
BITMAP
0880
0880
1088
1098
20A0
50C0
9180
1280
1480
1084
1084
1084
107E
1000
ENDCHAR
STARTCHAR uni5317
ENCODING 21271
SWIDTH 1000 0
DWIDTH 16 0
BBX 15 14 1 0
BITMAP
0880
0880
0880
0898
08B0
F8C0
0880
0880
0880
0880
0884
0C84
3084
C07E
ENDCHAR
STARTCHAR uni5319
ENCODING 21273
SWIDTH 1000 0
DWIDTH 16 0
BBX 15 14 1 0
BITMAP
0200
3F20
2220
3E24
222C
3E30
0020
FF20
0824
2824
2F1E
2800
5800
87FE
ENDCHAR
STARTCHAR uni531A
ENCODING 21274
SWIDTH 1000 0
DWIDTH 16 0
BBX 14 14 2 0
BITMAP
0008
FFFC
8000
8000
8000
8000
8000
8000
8000
8000
8000
8008
FFFC
8000
ENDCHAR
STARTCHAR uni531C
ENCODING 21276
SWIDTH 1000 0
DWIDTH 16 0
BBX 15 14 1 0
BITMAP
0004
FFFE
8080
8880
8880
BFF8
8888
8890
8880
8884
8804
8FFC
8000
FFFE
ENDCHAR
STARTCHAR uni531D
ENCODING 21277
SWIDTH 1000 0
DWIDTH 16 0
BBX 15 14 1 0
BITMAP
0008
FFFC
4080
4088
5FFC
4888
4888
4888
48B8
4890
4080
4084
7FFE
4000
ENDCHAR
STARTCHAR uni531F
ENCODING 21279
SWIDTH 1000 0
DWIDTH 16 0
BBX 15 14 1 0
BITMAP
0004
FFFE
8200
8108
BFFC
8000
87E0
8420
8420
8424
8824
903C
8000
FFFE
ENDCHAR
STARTCHAR uni5320
ENCODING 21280
SWIDTH 1000 0
DWIDTH 16 0
BBX 14 14 2 0
BITMAP
0010
FFF8
8000
80E0
9F00
8820
8FF0
8880
8880
8880
9080
A088
FFFC
8000
ENDCHAR
STARTCHAR uni5321
ENCODING 21281
SWIDTH 1000 0
DWIDTH 16 0
BBX 15 14 1 0
BITMAP
0008
FFFC
4000
4020
4FF0
4100
4140
4FE0
4100
4110
5FF8
4000
7FFE
4000
ENDCHAR
STARTCHAR uni5322
ENCODING 21282
SWIDTH 1000 0
DWIDTH 16 0
BBX 15 14 1 0
BITMAP
0004
FFFE
8800
8800
9FFC
A244
8244
8444
8884
9104
8208
8070
8000
FFFE
ENDCHAR
STARTCHAR uni5323
ENCODING 21283
SWIDTH 1000 0
DWIDTH 16 0
BBX 15 14 1 0
BITMAP
0008
FFFC
8000
8010
9FF8
9110
9FF0
9110
9FF0
9110
8100
8104
FFFE
8000
ENDCHAR
STARTCHAR uni532A
ENCODING 21290
SWIDTH 1000 0
DWIDTH 16 0
BBX 15 14 1 0
BITMAP
0008
FFFC
4240
4240
5E7C
4240
5E78
4240
4240
5E7C
4240
4440
7FFE
4000
ENDCHAR
STARTCHAR uni532D
ENCODING 21293
SWIDTH 1000 0
DWIDTH 16 0
BBX 14 14 1 0
BITMAP
FFFC
8840
BE40
89F0
BE50
AA50
BE50
AA50
BE54
8854
BE9C
8800
FFFC
8000
ENDCHAR
STARTCHAR uni532F
ENCODING 21295
SWIDTH 1000 0
DWIDTH 16 0
BBX 15 14 1 0
BITMAP
FFFC
5080
4920
43F8
6120
59F8
4120
45F8
4920
7120
51FC
5100
7FFE
4000
ENDCHAR
STARTCHAR uni5330
ENCODING 21296
SWIDTH 1000 0
DWIDTH 16 0
BBX 15 14 1 0
BITMAP
FFFE
8000
9F7C
9144
9F7C
8FF8
8888
8FF8
8888
8FF8
8080
9FFC
8080
FFFE
ENDCHAR
STARTCHAR uni5331
ENCODING 21297
SWIDTH 1000 0
DWIDTH 16 0
BBX 15 14 1 0
BITMAP
FFFC
4100
4FF0
4910
4FF0
4100
7FFC
4FF0
4FD0
4FD0
4810
4FF0
5008
7FFE
ENDCHAR
STARTCHAR uni5334
ENCODING 21300
SWIDTH 1000 0
DWIDTH 16 0
BBX 15 14 1 0
BITMAP
FFFE
8820
9F7E
A488
8FF0
8810
8FF0
8FF0
8810
8FF0
8220
BFFC
8820
FFFE
ENDCHAR
STARTCHAR uni5337
ENCODING 21303
SWIDTH 1000 0
DWIDTH 16 0
BBX 15 14 1 0
BITMAP
FFFE
BFF8
A288
BAE8
BAE8
BEF8
8840
9FF8
B040
9FF8
9FF8
9040
9FF8
FFFE
ENDCHAR
STARTCHAR uni5339
ENCODING 21305
SWIDTH 1000 0
DWIDTH 16 0
BBX 15 14 1 0
BITMAP
0008
FFFC
4440
4440
4440
4440
4440
4444
4444
483C
5000
4004
FFFE
4000
ENDCHAR
STARTCHAR uni533C
ENCODING 21308
SWIDTH 1000 0
DWIDTH 16 0
BBX 15 14 1 0
BITMAP
FFFE
8080
8140
8220
8410
8BE8
9004
87F0
8410
8410
87F0
8410
8000
FFFE
ENDCHAR
STARTCHAR uni533D
ENCODING 21309
SWIDTH 1000 0
DWIDTH 16 0
BBX 14 14 2 0
BITMAP
FFFC
8000
9FF0
9010
9FF0
9010
9FF0
8440
BFF8
8280
8100
9EF0
8000
FFFC
ENDCHAR
STARTCHAR uni533E
ENCODING 21310
SWIDTH 1000 0
DWIDTH 16 0
BBX 15 13 1 0
BITMAP
FFFE
4080
4FF8
4808
4FF8
4800
5FFC
6924
4FFC
4924
480C
7FFE
4000
ENDCHAR
STARTCHAR uni533F
ENCODING 21311
SWIDTH 1000 0
DWIDTH 16 0
BBX 15 14 1 0
BITMAP
FFFC
4440
5FF8
4440
4108
7FFC
4400
4FF0
5410
67F0
4410
4000
7FFE
4000
ENDCHAR
STARTCHAR uni5340
ENCODING 21312
SWIDTH 1000 0
DWIDTH 16 0
BBX 15 13 1 0
BITMAP
FFFC
8020
8FF0
8820
8820
8FE0
8008
BEFC
A288
A288
BEF8
8000
FFFE
ENDCHAR
STARTCHAR uni5341
ENCODING 21313
SWIDTH 1000 0
DWIDTH 16 0
BBX 15 14 1 0
BITMAP
0100
0100
0100
0100
0104
FFFE
0100
0100
0100
0100
0100
0100
0100
0100
ENDCHAR
STARTCHAR uni5343
ENCODING 21315
SWIDTH 1000 0
DWIDTH 16 0
BBX 15 14 1 0
BITMAP
0020
00F0
3F00
0100
0100
0104
FFFE
0100
0100
0100
0100
0100
0100
0100
ENDCHAR
STARTCHAR uni5345
ENCODING 21317
SWIDTH 1000 0
DWIDTH 16 0
BBX 15 14 1 0
BITMAP
1010
1110
1110
1110
1110
1114
FFFE
1110
1110
1110
2110
2110
4010
8010
ENDCHAR
STARTCHAR uni5347
ENCODING 21319
SWIDTH 1000 0
DWIDTH 16 0
BBX 15 14 1 0
BITMAP
0120
0720
7C20
0420
0420
0424
FFFE
0420
0420
0820
0820
1020
2020
4020
ENDCHAR
STARTCHAR uni5348
ENCODING 21320
SWIDTH 1000 0
DWIDTH 16 0
BBX 15 14 1 0
BITMAP
0800
0810
0FF8
1100
2100
4100
0104
FFFE
0100
0100
0100
0100
0100
0100
ENDCHAR
STARTCHAR uni5349
ENCODING 21321
SWIDTH 1000 0
DWIDTH 16 0
BBX 15 14 1 0
BITMAP
0100
0108
7FFC
0100
0920
0920
0824
FFFE
0820
0820
1020
1020
2020
4020
ENDCHAR
STARTCHAR uni534A
ENCODING 21322
SWIDTH 1000 0
DWIDTH 16 0
BBX 15 14 1 0
BITMAP
1118
0910
0920
0100
3FF8
0100
0100
0104
FFFE
0100
0100
0100
0100
0100
ENDCHAR
STARTCHAR uni534C
ENCODING 21324
SWIDTH 1000 0
DWIDTH 16 0
BBX 15 14 1 0
BITMAP
2008
2488
2488
2488
2488
2488
FFFE
2488
2488
2488
2488
2488
44A8
8010
ENDCHAR
STARTCHAR uni534D
ENCODING 21325
SWIDTH 1000 0
DWIDTH 16 0
BBX 15 13 1 0
BITMAP
FF02
0102
0102
0102
0102
0102
FFFE
8100
8100
8100
8100
8100
81FE
ENDCHAR
STARTCHAR uni5351
ENCODING 21329
SWIDTH 1000 0
DWIDTH 16 0
BBX 15 14 1 0
BITMAP
0200
0410
1FF8
1110
1FF0
1110
1110
1FF0
0480
0884
FFFE
0080
0080
0080
ENDCHAR
STARTCHAR uni5352
ENCODING 21330
SWIDTH 1000 0
DWIDTH 16 0
BBX 15 14 1 0
BITMAP
0200
0108
7FFC
0820
0820
1450
2288
0100
0104
FFFE
0100
0100
0100
0100
ENDCHAR
STARTCHAR uni5353
ENCODING 21331
SWIDTH 1000 0
DWIDTH 16 0
BBX 15 14 1 0
BITMAP
0108
01FC
0100
1FF0
1010
1FF0
1010
1FF0
1110
0104
FFFE
0100
0100
0100
ENDCHAR
STARTCHAR uni5354
ENCODING 21332
SWIDTH 1000 0
DWIDTH 16 0
BBX 15 14 1 0
BITMAP
2080
2088
23FC
2088
F888
2138
2310
2208
2FBE
2492
2492
28A2
2BAE
2104
ENDCHAR
STARTCHAR uni5357
ENCODING 21335
SWIDTH 1000 0
DWIDTH 16 0
BBX 15 14 1 0
BITMAP
0100
0104
FFFE
0100
0104
7FFE
4424
4244
5FF4
4104
5FF4
4104
411C
4008
ENDCHAR
STARTCHAR uni535A
ENCODING 21338
SWIDTH 1000 0
DWIDTH 16 0
BBX 15 14 1 0
BITMAP
2048
27FC
2040
23F8
FA48
23F8
2248
23F8
2248
2FFE
2210
2110
2110
2030
ENDCHAR
STARTCHAR uni535C
ENCODING 21340
SWIDTH 1000 0
DWIDTH 16 0
BBX 6 14 7 0
BITMAP
80
80
80
80
A0
98
8C
84
80
80
80
80
80
80
ENDCHAR
STARTCHAR uni535E
ENCODING 21342
SWIDTH 1000 0
DWIDTH 16 0
BBX 15 14 1 0
BITMAP
0200
0100
0100
0004
FFFE
0100
0100
0140
0120
0110
0110
0100
0100
0100
ENDCHAR
STARTCHAR uni5360
ENCODING 21344
SWIDTH 1000 0
DWIDTH 16 0
BBX 13 13 2 0
BITMAP
0400
0400
0420
07F0
0400
0400
0410
FFF8
8010
8010
8010
FFF0
8010
ENDCHAR
STARTCHAR uni5361
ENCODING 21345
SWIDTH 1000 0
DWIDTH 16 0
BBX 15 14 1 0
BITMAP
0200
0220
03F0
0200
0204
FFFE
0200
0200
0280
0260
0230
0210
0200
0200
ENDCHAR
STARTCHAR uni5363
ENCODING 21347
SWIDTH 1000 0
DWIDTH 16 0
BBX 14 14 1 0
BITMAP
0200
0210
03F8
0200
4208
FFFC
4008
7FC8
4088
7F88
4088
4008
7FF8
4008
ENDCHAR
STARTCHAR uni5366
ENCODING 21350
SWIDTH 1000 0
DWIDTH 16 0
BBX 15 14 1 0
BITMAP
0810
0810
7F10
0810
0818
FF94
0812
0812
7F10
0810
0810
FF10
4010
0010
ENDCHAR
STARTCHAR uni536C
ENCODING 21356
SWIDTH 1000 0
DWIDTH 16 0
BBX 15 14 1 0
BITMAP
0200
0CFE
F042
4042
4042
4042
4442
4842
5044
6058
4040
0040
0040
0040
ENDCHAR
STARTCHAR uni536E
ENCODING 21358
SWIDTH 1000 0
DWIDTH 16 0
BBX 15 14 1 0
BITMAP
01F8
3E00
2004
3FFE
2000
2010
27F8
2410
2410
2470
4420
4404
8404
03FE
ENDCHAR
STARTCHAR uni536F
ENCODING 21359
SWIDTH 1000 0
DWIDTH 16 0
BBX 14 14 2 0
BITMAP
0800
1C08
E1FC
4488
4488
4488
4488
5C88
E4A8
0490
0880
3080
C080
0080
ENDCHAR
STARTCHAR uni5370
ENCODING 21360
SWIDTH 1000 0
DWIDTH 16 0
BBX 15 14 1 0
BITMAP
0604
F8FE
4084
4084
4484
7E84
4084
4084
4484
58B8
E090
8080
0080
0080
ENDCHAR
STARTCHAR uni5371
ENCODING 21361
SWIDTH 1000 0
DWIDTH 16 0
BBX 15 14 1 0
BITMAP
0840
0FE0
1040
2088
5FFC
1000
13F8
1210
1210
1270
2220
2204
4204
81FE
ENDCHAR
STARTCHAR uni5372
ENCODING 21362
SWIDTH 1000 0
DWIDTH 16 0
BBX 15 14 1 0
BITMAP
0200
FEFE
2242
2242
2242
2A42
4442
0042
FE42
8254
8248
8240
FE40
8240
ENDCHAR
STARTCHAR uni5373
ENCODING 21363
SWIDTH 1000 0
DWIDTH 16 0
BBX 15 14 1 0
BITMAP
0200
FF04
42FE
7E44
4244
7E44
4044
4854
444C
4A48
5240
E040
0040
0040
ENDCHAR
STARTCHAR uni5375
ENCODING 21365
SWIDTH 1000 0
DWIDTH 16 0
BBX 15 14 1 0
BITMAP
1C04
E0FE
4484
64A4
5494
5494
4484
4CA4
7498
C490
0880
0880
1080
0080
ENDCHAR
STARTCHAR uni5377
ENCODING 21367
SWIDTH 1000 0
DWIDTH 16 0
BBX 15 14 1 0
BITMAP
1110
0910
0920
7FFC
0200
FFFE
0840
1030
2FEE
C824
08E0
0848
0808
07FC
ENDCHAR
STARTCHAR uni5378
ENCODING 21368
SWIDTH 1000 0
DWIDTH 16 0
BBX 15 14 1 0
BITMAP
2000
2200
3F04
48FE
8A44
7F44
0844
2844
2E44
285C
2F48
F840
4040
0040
ENDCHAR
STARTCHAR uni5379
ENCODING 21369
SWIDTH 1000 0
DWIDTH 16 0
BBX 15 14 1 0
BITMAP
1000
1004
207E
4124
FFA4
5524
5524
5524
5524
5534
5528
FFA0
0020
0020
ENDCHAR
STARTCHAR uni537B
ENCODING 21371
SWIDTH 1000 0
DWIDTH 16 0
BBX 15 14 1 0
BITMAP
2800
2404
46FE
9244
2844
2444
4344
8444
7E44
445C
4448
4440
7C40
4440
ENDCHAR
STARTCHAR uni537C
ENCODING 21372
SWIDTH 1000 0
DWIDTH 16 0
BBX 15 14 1 0
BITMAP
0040
00F8
FD08
5010
51FE
5100
51FC
5144
5144
5558
5540
9D42
0242
047E
ENDCHAR
STARTCHAR uni537F
ENCODING 21375
SWIDTH 1000 0
DWIDTH 16 0
BBX 15 14 1 0
BITMAP
0800
3084
C7FE
54A4
57A4
54A4
54A4
57A4
7424
5534
14AC
25A8
46A0
8C20
ENDCHAR
STARTCHAR uni5382
ENCODING 21378
SWIDTH 1000 0
DWIDTH 16 0
BBX 14 12 1 1
BITMAP
0008
1FFC
1000
1000
1000
1000
1000
1000
2000
2000
4000
8000
ENDCHAR
STARTCHAR uni5384
ENCODING 21380
SWIDTH 1000 0
DWIDTH 16 0
BBX 15 14 1 0
BITMAP
0008
3FFC
2000
2020
27F0
2420
2420
24A0
2460
2440
2404
4404
4404
83FE
ENDCHAR
STARTCHAR uni538A
ENCODING 21386
SWIDTH 1000 0
DWIDTH 16 0
BBX 15 14 1 0
BITMAP
7FFE
4000
5FF8
4820
4820
4FFC
4060
40A0
4120
4220
4420
4820
80A0
0040
ENDCHAR
STARTCHAR uni538E
ENCODING 21390
SWIDTH 1000 0
DWIDTH 16 0
BBX 15 14 1 0
BITMAP
7FFC
4000
4000
4FF8
4840
4840
4FFC
4820
4820
4820
4920
8A12
0C0A
39E6
ENDCHAR
STARTCHAR uni538F
ENCODING 21391
SWIDTH 1000 0
DWIDTH 16 0
BBX 15 14 1 0
BITMAP
7FFE
4400
4400
4FFC
5100
4100
41F8
4100
4100
41F8
4100
8100
0100
0100
ENDCHAR
STARTCHAR uni5392
ENCODING 21394
SWIDTH 1000 0
DWIDTH 16 0
BBX 15 14 1 0
BITMAP
0004
7FFE
4000
4400
4400
4FF8
5080
4080
5FFC
4080
4888
4888
4FF8
8808
ENDCHAR
STARTCHAR uni5394
ENCODING 21396
SWIDTH 1000 0
DWIDTH 16 0
BBX 14 14 1 0
BITMAP
0008
7FFC
4000
5FFC
4100
4200
4408
4FF8
4088
4080
4FF8
4080
8080
1FFC
ENDCHAR
STARTCHAR uni5396
ENCODING 21398
SWIDTH 1000 0
DWIDTH 16 0
BBX 15 14 1 0
BITMAP
0004
7FFE
4800
4908
5F10
4864
4808
4A10
4A20
4A08
4A10
4A62
5202
83FE
ENDCHAR
STARTCHAR uni5397
ENCODING 21399
SWIDTH 1000 0
DWIDTH 16 0
BBX 15 14 1 0
BITMAP
7FFE
4100
4080
5FFC
4410
4220
5FFC
4080
4080
5FFC
4080
8080
0080
0080
ENDCHAR
STARTCHAR uni5398
ENCODING 21400
SWIDTH 1000 0
DWIDTH 16 0
BBX 15 14 1 0
BITMAP
0004
7FFE
4000
4FF8
4888
4FF8
4888
4888
4FF8
4080
4FF8
4080
8084
1FFE
ENDCHAR
STARTCHAR uni5399
ENCODING 21401
SWIDTH 1000 0
DWIDTH 16 0
BBX 15 14 1 0
BITMAP
0004
7FFE
4080
5FFC
4080
4FF8
4888
4FF8
4888
4FF8
4080
5FFC
8080
0080
ENDCHAR
STARTCHAR uni539A
ENCODING 21402
SWIDTH 1000 0
DWIDTH 16 0
BBX 15 14 1 0
BITMAP
3FFC
27F0
2410
27F0
2410
27F0
2000
2FF0
2040
2184
5FFE
4080
8080
0300
ENDCHAR
STARTCHAR uni539C
ENCODING 21404
SWIDTH 1000 0
DWIDTH 16 0
BBX 15 14 1 0
BITMAP
7FFE
4008
4FF0
4080
5FFC
4080
4490
5FFC
4490
4080
4FF8
4080
8080
1FFC
ENDCHAR
STARTCHAR uni539D
ENCODING 21405
SWIDTH 1000 0
DWIDTH 16 0
BBX 15 14 1 0
BITMAP
0008
3FFC
2220
2FFC
2220
3FFE
2000
27F0
2410
27F0
4410
4410
87F0
0410
ENDCHAR
STARTCHAR uni539E
ENCODING 21406
SWIDTH 1000 0
DWIDTH 16 0
BBX 15 14 1 0
BITMAP
0004
7FFE
4120
4120
5F3E
4120
4120
5F3E
4120
4120
5F3E
4120
8120
0220
ENDCHAR
STARTCHAR uni539F
ENCODING 21407
SWIDTH 1000 0
DWIDTH 16 0
BBX 15 14 1 0
BITMAP
0004
3FFE
2100
2208
2FFC
2808
2FF8
2808
2FF8
2080
4490
488C
9384
0100
ENDCHAR
STARTCHAR uni53A4
ENCODING 21412
SWIDTH 1000 0
DWIDTH 16 0
BBX 14 14 1 0
BITMAP
7FFC
4000
4104
4208
5C70
4410
5F7C
4410
4410
4E38
5554
4410
4410
8410
ENDCHAR
STARTCHAR uni53A5
ENCODING 21413
SWIDTH 1000 0
DWIDTH 16 0
BBX 15 14 1 0
BITMAP
0004
7FFE
28A0
2524
2FBE
2224
2AD4
2A94
2A90
2F90
2AA8
4228
4446
8884
ENDCHAR
STARTCHAR uni53A7
ENCODING 21415
SWIDTH 1000 0
DWIDTH 16 0
BBX 14 14 1 0
BITMAP
7FFC
4080
4FF8
4080
47F0
4410
47F0
4410
47F0
47F0
4410
5FFC
4410
8808
ENDCHAR
STARTCHAR uni53AC
ENCODING 21420
SWIDTH 1000 0
DWIDTH 16 0
BBX 15 14 1 0
BITMAP
7FFE
4000
4FF8
4BE8
4FF8
4210
47D8
5C94
4310
5EFC
4000
4FF8
8808
0FF8
ENDCHAR
STARTCHAR uni53AD
ENCODING 21421
SWIDTH 1000 0
DWIDTH 16 0
BBX 15 14 1 0
BITMAP
0004
FFFE
5F00
5114
5D12
5F10
407E
5F10
5110
5F18
5128
5F24
9146
1382
ENDCHAR
STARTCHAR uni53B2
ENCODING 21426
SWIDTH 1000 0
DWIDTH 16 0
BBX 15 14 1 0
BITMAP
3FFE
2110
2FFE
2110
27FC
2444
27FC
2444
27FC
2040
4FFE
4852
8BFA
0806
ENDCHAR
STARTCHAR uni53B4
ENCODING 21428
SWIDTH 1000 0
DWIDTH 16 0
BBX 14 14 1 0
BITMAP
7FFC
5E28
5228
5EFC
5220
5E50
9288
1684
3FFC
1084
1FFC
1084
1FFC
0080
ENDCHAR
STARTCHAR uni53B9
ENCODING 21433
SWIDTH 1000 0
DWIDTH 16 0
BBX 15 14 1 0
BITMAP
0800
0800
0800
7FE0
0820
0822
1022
2022
C43E
0800
1040
2020
FFF0
0008
ENDCHAR
STARTCHAR uni53BB
ENCODING 21435
SWIDTH 1000 0
DWIDTH 16 0
BBX 15 14 1 0
BITMAP
0100
0108
7FFC
0100
0100
0104
FFFE
0200
0200
0420
0810
1008
7FFC
0004
ENDCHAR
STARTCHAR uni53C3
ENCODING 21443
SWIDTH 1000 0
DWIDTH 16 0
BBX 15 14 1 0
BITMAP
0200
0440
1FE0
1020
2448
FEFC
0440
0920
3218
CC86
0320
1C40
0180
3E00
ENDCHAR
STARTCHAR uni53C8
ENCODING 21448
SWIDTH 1000 0
DWIDTH 16 0
BBX 15 14 1 0
BITMAP
0010
7FF8
0010
1020
0820
0840
0440
0280
0100
0280
0440
0830
300E
C004
ENDCHAR
STARTCHAR uni53C9
ENCODING 21449
SWIDTH 1000 0
DWIDTH 16 0
BBX 15 14 1 0
BITMAP
0010
3FF8
0010
1210
1120
0920
0440
0280
0100
0280
0440
0830
300E
C004
ENDCHAR
STARTCHAR uni53CA
ENCODING 21450
SWIDTH 1000 0
DWIDTH 16 0
BBX 15 14 1 0
BITMAP
0020
7FF0
0820
0840
0840
08F8
1408
1210
1110
20A0
20C0
4130
860E
1804
ENDCHAR
STARTCHAR uni53CB
ENCODING 21451
SWIDTH 1000 0
DWIDTH 16 0
BBX 15 14 1 0
BITMAP
0400
0404
FFFE
0400
0410
0BF8
0810
1220
2140
4080
8140
0630
180E
6004
ENDCHAR
STARTCHAR uni53CD
ENCODING 21453
SWIDTH 1000 0
DWIDTH 16 0
BBX 15 14 1 0
BITMAP
0010
01F8
7E00
2000
2010
3FF8
2010
2420
2240
2180
4180
4260
8C1E
1008
ENDCHAR
STARTCHAR uni53D4
ENCODING 21460
SWIDTH 1000 0
DWIDTH 16 0
BBX 15 14 1 0
BITMAP
0800
0800
0F04
087E
0904
FF88
0848
2C50
2A20
4A50
4850
8888
3906
1204
ENDCHAR
STARTCHAR uni53D6
ENCODING 21462
SWIDTH 1000 0
DWIDTH 16 0
BBX 15 14 1 0
BITMAP
0100
FF80
2208
23FC
3E08
2288
3E88
2250
2250
3E20
E250
4248
028E
0304
ENDCHAR
STARTCHAR uni53D7
ENCODING 21463
SWIDTH 1000 0
DWIDTH 16 0
BBX 15 14 1 0
BITMAP
0078
3F80
1210
0920
7FFE
4002
8014
1FF8
0420
0240
0180
0660
181E
E008
ENDCHAR
STARTCHAR uni53DB
ENCODING 21467
SWIDTH 1000 0
DWIDTH 16 0
BBX 15 14 1 0
BITMAP
101C
95E0
5500
5908
11FC
FD08
1188
1148
FD50
1120
2250
2248
4486
8904
ENDCHAR
STARTCHAR uni53DF
ENCODING 21471
SWIDTH 1000 0
DWIDTH 16 0
BBX 15 14 1 0
BITMAP
0508
797C
2108
3D78
2108
3FF8
0110
3FF8
0820
0640
0180
0640
1830
E00E
ENDCHAR
STARTCHAR uni53E1
ENCODING 21473
SWIDTH 1000 0
DWIDTH 16 0
BBX 15 14 1 0
BITMAP
0800
0F00
FFBE
BEA2
94A2
2A22
5522
3E22
6322
3E22
2214
3E08
2214
3E62
ENDCHAR
STARTCHAR uni53E2
ENCODING 21474
SWIDTH 1000 0
DWIDTH 16 0
BBX 15 14 1 0
BITMAP
1290
FFFE
0440
3FF8
0100
1FF0
FFFE
2200
3EF8
2288
3E50
2230
FE48
0286
ENDCHAR
STARTCHAR uni53E3
ENCODING 21475
SWIDTH 1000 0
DWIDTH 16 0
BBX 13 12 2 1
BITMAP
0010
FFF8
8010
8010
8010
8010
8010
8010
8010
8010
FFF0
8010
ENDCHAR
STARTCHAR uni53E4
ENCODING 21476
SWIDTH 1000 0
DWIDTH 16 0
BBX 15 14 1 0
BITMAP
0100
0100
0104
FFFE
0100
0100
0110
1FF8
1010
1010
1010
1010
1FF0
1010
ENDCHAR
STARTCHAR uni53E5
ENCODING 21477
SWIDTH 1000 0
DWIDTH 16 0
BBX 15 14 1 0
BITMAP
1000
1004
1FFE
2004
2044
4FE4
8844
0844
0844
0FC4
0844
0004
0038
0010
ENDCHAR
STARTCHAR uni53E6
ENCODING 21478
SWIDTH 1000 0
DWIDTH 16 0
BBX 14 14 2 0
BITMAP
0020
3FF0
2020
2020
3FE0
2220
0208
FFFC
0408
0408
0808
1048
2030
4020
ENDCHAR
STARTCHAR uni53E8
ENCODING 21480
SWIDTH 1000 0
DWIDTH 16 0
BBX 15 14 1 0
BITMAP
0004
01FE
0844
FC44
8844
8844
8844
8884
F884
8904
0104
0224
0418
0810
ENDCHAR
STARTCHAR uni53E9
ENCODING 21481
SWIDTH 1000 0
DWIDTH 16 0
BBX 15 14 1 0
BITMAP
0004
09FE
FC84
8884
8884
8884
8884
8884
F8A4
8898
0090
0080
0080
0080
ENDCHAR
STARTCHAR uni53EA
ENCODING 21482
SWIDTH 1000 0
DWIDTH 16 0
BBX 14 14 1 0
BITMAP
0010
3FF8
2010
2010
2010
2010
3FF0
2010
0000
0840
1820
2018
400C
8004
ENDCHAR
STARTCHAR uni53EB
ENCODING 21483
SWIDTH 1000 0
DWIDTH 16 0
BBX 15 14 1 0
BITMAP
0008
0008
0888
FC88
8888
8888
8888
888E
8898
F8E8
8988
0008
0008
0008
ENDCHAR
STARTCHAR uni53EC
ENCODING 21484
SWIDTH 1000 0
DWIDTH 16 0
BBX 14 14 1 0
BITMAP
0008
3FFC
0408
0408
0808
0890
1060
2048
4FFC
8808
0808
0808
0FF8
0808
ENDCHAR
STARTCHAR uni53ED
ENCODING 21485
SWIDTH 1000 0
DWIDTH 16 0
BBX 15 14 1 0
BITMAP
0020
0130
0920
FD20
8920
8920
8920
8920
8920
F920
8A10
0210
040E
0804
ENDCHAR
STARTCHAR uni53EE
ENCODING 21486
SWIDTH 1000 0
DWIDTH 16 0
BBX 15 13 1 0
BITMAP
0004
09FE
FC20
8820
8820
8820
8820
8820
F820
8820
0020
00E0
0040
ENDCHAR
STARTCHAR uni53EF
ENCODING 21487
SWIDTH 1000 0
DWIDTH 16 0
BBX 15 14 1 0
BITMAP
0004
FFFE
0010
0110
3F90
2110
2110
2110
3F10
2110
0010
0010
00E0
0040
ENDCHAR
STARTCHAR uni53F0
ENCODING 21488
SWIDTH 1000 0
DWIDTH 16 0
BBX 14 14 1 0
BITMAP
0400
0400
0820
1010
2008
FFFC
0004
0010
3FF8
2010
2010
2010
3FF0
2010
ENDCHAR
STARTCHAR uni53F1
ENCODING 21489
SWIDTH 1000 0
DWIDTH 16 0
BBX 15 14 1 0
BITMAP
0100
0100
1100
F900
9108
911C
91E0
9700
9100
F100
9104
0104
0104
00FE
ENDCHAR
STARTCHAR uni53F2
ENCODING 21490
SWIDTH 1000 0
DWIDTH 16 0
BBX 15 14 1 0
BITMAP
0100
0108
3FFC
2108
2108
3FF8
2108
0900
0500
0200
0580
0860
301E
C004
ENDCHAR
STARTCHAR uni53F3
ENCODING 21491
SWIDTH 1000 0
DWIDTH 16 0
BBX 15 14 1 0
BITMAP
0200
0204
FFFE
0400
0400
0800
0808
1FFC
2808
4808
8808
0808
0FF8
0808
ENDCHAR
STARTCHAR uni53F5
ENCODING 21493
SWIDTH 1000 0
DWIDTH 16 0
BBX 14 14 2 0
BITMAP
0010
FFF8
8000
8040
8FE0
8840
8840
8840
8FC0
8840
8000
8008
FFFC
8000
ENDCHAR
STARTCHAR uni53F8
ENCODING 21496
SWIDTH 1000 0
DWIDTH 16 0
BBX 14 14 1 0
BITMAP
0008
FFFC
0008
0088
FFC8
0008
0108
7F88
4108
4108
7F08
4108
0038
0010
ENDCHAR
STARTCHAR uni53FB
ENCODING 21499
SWIDTH 1000 0
DWIDTH 16 0
BBX 15 14 1 0
BITMAP
0040
0040
0840
FC44
89FE
8844
8844
8844
F884
8884
0104
0224
0418
0810
ENDCHAR
STARTCHAR uni53FC
ENCODING 21500
SWIDTH 1000 0
DWIDTH 16 0
BBX 15 13 1 0
BITMAP
0004
11FE
F804
9014
9024
9044
9084
9304
F204
9004
0024
0018
0010
ENDCHAR
STARTCHAR uni5401
ENCODING 21505
SWIDTH 1000 0
DWIDTH 16 0
BBX 15 14 1 0
BITMAP
0008
13FC
F840
9040
9044
97FE
9040
9040
F040
9040
0040
0040
01C0
0080
ENDCHAR
STARTCHAR uni5403
ENCODING 21507
SWIDTH 1000 0
DWIDTH 16 0
BBX 15 14 1 0
BITMAP
0080
0884
FDFE
8A00
8C10
89F8
8810
8820
F840
8880
0104
0204
0204
01FE
ENDCHAR
STARTCHAR uni5404
ENCODING 21508
SWIDTH 1000 0
DWIDTH 16 0
BBX 15 14 1 0
BITMAP
0400
07F0
0810
1420
2240
0180
0660
181E
E004
0FF0
0810
0810
0FF0
0810
ENDCHAR
STARTCHAR uni5406
ENCODING 21510
SWIDTH 1000 0
DWIDTH 16 0
BBX 15 14 1 0
BITMAP
0020
0020
0820
FC40
8888
8B08
8810
8820
8840
F880
8908
0204
0FFE
0002
ENDCHAR
STARTCHAR uni5407
ENCODING 21511
SWIDTH 1000 0
DWIDTH 16 0
BBX 15 14 1 0
BITMAP
01F8
0008
F808
8810
8820
8820
8BFE
8820
8820
F820
8820
0120
00A0
0040
ENDCHAR
STARTCHAR uni5408
ENCODING 21512
SWIDTH 1000 0
DWIDTH 16 0
BBX 15 14 1 0
BITMAP
0100
0280
0440
0820
3018
CFE6
0000
0020
0FF0
0820
0820
0820
0FE0
0820
ENDCHAR
STARTCHAR uni5409
ENCODING 21513
SWIDTH 1000 0
DWIDTH 16 0
BBX 15 14 1 0
BITMAP
0100
0104
FFFE
0100
0110
3FF8
0000
0010
1FF8
1010
1010
1010
1FF0
1010
ENDCHAR
STARTCHAR uni540A
ENCODING 21514
SWIDTH 1000 0
DWIDTH 16 0
BBX 14 14 2 0
BITMAP
0020
3FF0
2020
2020
3FE0
2220
0208
FFFC
4208
4208
4208
4238
4210
0200
ENDCHAR
STARTCHAR uni540B
ENCODING 21515
SWIDTH 1000 0
DWIDTH 16 0
BBX 15 14 1 0
BITMAP
0010
0010
1014
FBFE
9010
9010
9110
9090
9090
F010
9010
0010
0070
0020
ENDCHAR
STARTCHAR uni540C
ENCODING 21516
SWIDTH 1000 0
DWIDTH 16 0
BBX 14 14 2 0
BITMAP
0008
FFFC
8008
8048
BFE8
8008
9FC8
9048
9048
9FC8
9048
8008
8038
8010
ENDCHAR
STARTCHAR uni540D
ENCODING 21517
SWIDTH 1000 0
DWIDTH 16 0
BBX 14 14 1 0
BITMAP
0210
03F8
0C10
3420
0240
0180
0600
1808
EFFC
0808
0808
0808
0FF8
0808
ENDCHAR
STARTCHAR uni540E
ENCODING 21518
SWIDTH 1000 0
DWIDTH 16 0
BBX 15 14 1 0
BITMAP
0010
0078
3F80
2000
2004
3FFE
2000
2008
27FC
2408
4408
4408
87F8
0408
ENDCHAR
STARTCHAR uni540F
ENCODING 21519
SWIDTH 1000 0
DWIDTH 16 0
BBX 15 14 1 0
BITMAP
0100
0104
FFFE
0100
0108
3FFC
2108
3FF8
2108
0900
0600
0580
1870
E00E
ENDCHAR
STARTCHAR uni5410
ENCODING 21520
SWIDTH 1000 0
DWIDTH 16 0
BBX 15 13 1 1
BITMAP
0040
0040
0840
FC40
8848
8BFC
8840
8840
F840
8840
0040
0044
0FFE
ENDCHAR
STARTCHAR uni5411
ENCODING 21521
SWIDTH 1000 0
DWIDTH 16 0
BBX 14 14 2 0
BITMAP
0400
0800
1008
FFFC
8008
8088
9FC8
9088
9088
9F88
9088
8008
8038
8010
ENDCHAR
STARTCHAR uni5412
ENCODING 21522
SWIDTH 1000 0
DWIDTH 16 0
BBX 15 14 1 0
BITMAP
0008
001C
01E0
0840
FC40
8844
887E
8BC0
8840
F840
8844
0044
0044
003E
ENDCHAR
STARTCHAR uni5418
ENCODING 21528
SWIDTH 1000 0
DWIDTH 16 0
BBX 15 14 1 0
BITMAP
0080
0088
F9FC
8A20
8820
8820
8824
8BFE
8820
F820
8820
0020
0020
0020
ENDCHAR
STARTCHAR uni5419
ENCODING 21529
SWIDTH 1000 0
DWIDTH 16 0
BBX 15 14 1 0
BITMAP
0040
0444
F444
9248
9150
9040
9040
9040
F040
90A0
0110
0208
0404
1802
ENDCHAR
STARTCHAR uni541B
ENCODING 21531
SWIDTH 1000 0
DWIDTH 16 0
BBX 15 14 1 0
BITMAP
0010
3FF8
0210
FFFE
0210
3FF0
0400
0810
1FF8
2810
4810
8810
0FF0
0810
ENDCHAR
STARTCHAR uni541C
ENCODING 21532
SWIDTH 1000 0
DWIDTH 16 0
BBX 15 14 1 0
BITMAP
01F8
0048
F848
8848
8848
8848
8BFE
8848
8848
F848
8848
0048
0048
07FE
ENDCHAR
STARTCHAR uni541D
ENCODING 21533
SWIDTH 1000 0
DWIDTH 16 0
BBX 15 14 1 0
BITMAP
0100
7FFC
0840
0480
0300
02C0
0C30
300E
C024
1FF0
1020
1020
1FE0
1020
ENDCHAR
STARTCHAR uni541E
ENCODING 21534
SWIDTH 1000 0
DWIDTH 16 0
BBX 15 14 1 0
BITMAP
0020
01F0
7E00
0200
0204
FFFE
0840
1030
600E
9FE4
1020
1020
1FE0
1020
ENDCHAR
STARTCHAR uni541F
ENCODING 21535
SWIDTH 1000 0
DWIDTH 16 0
BBX 15 14 1 0
BITMAP
0040
0040
08A0
FCA0
8910
8A8E
8C44
8808
8BFC
F810
8810
0020
0040
0080
ENDCHAR
STARTCHAR uni5420
ENCODING 21536
SWIDTH 1000 0
DWIDTH 16 0
BBX 15 14 1 0
BITMAP
0040
0050
1048
F840
9044
97FE
90C0
90A0
F120
9110
0210
0208
0406
0804
ENDCHAR
STARTCHAR uni5424
ENCODING 21540
SWIDTH 1000 0
DWIDTH 16 0
BBX 15 14 1 0
BITMAP
0040
00A0
F110
9208
9404
9112
9110
9110
F110
9110
0210
0410
0810
0010
ENDCHAR
STARTCHAR uni5425
ENCODING 21541
SWIDTH 1000 0
DWIDTH 16 0
BBX 15 14 1 0
BITMAP
0004
0FFE
F010
9020
9040
9080
9140
9248
9444
F042
9040
0040
0040
0080
ENDCHAR
STARTCHAR uni5426
ENCODING 21542
SWIDTH 1000 0
DWIDTH 16 0
BBX 15 14 1 0
BITMAP
0004
FFFE
0080
0300
0560
0918
3106
C112
1FF8
1010
1010
1010
1FF0
1010
ENDCHAR
STARTCHAR uni5427
ENCODING 21543
SWIDTH 1000 0
DWIDTH 16 0
BBX 15 14 1 0
BITMAP
0008
13FC
FA48
9248
9248
9248
9248
93F8
F208
9200
0200
0204
0204
01FE
ENDCHAR
STARTCHAR uni5428
ENCODING 21544
SWIDTH 1000 0
DWIDTH 16 0
BBX 15 14 1 0
BITMAP
0040
0040
F048
97FC
9040
9248
9248
9248
93F8
F248
9040
0042
0042
003E
ENDCHAR
STARTCHAR uni5429
ENCODING 21545
SWIDTH 1000 0
DWIDTH 16 0
BBX 15 14 1 0
BITMAP
0020
00A0
0090
1090
F908
9106
9204
95F8
9088
F088
9108
0108
0270
0420
ENDCHAR
STARTCHAR uni542A
ENCODING 21546
SWIDTH 1000 0
DWIDTH 16 0
BBX 15 14 1 0
BITMAP
0140
0140
0240
F440
9A42
9244
9248
9250
9240
F240
9240
0242
0242
027E
ENDCHAR
STARTCHAR uni542B
ENCODING 21547
SWIDTH 1000 0
DWIDTH 16 0
BBX 15 14 1 0
BITMAP
0380
0440
0820
1210
210E
C124
0FF0
0040
0090
1FF8
1010
1010
1FF0
1010
ENDCHAR
STARTCHAR uni542C
ENCODING 21548
SWIDTH 1000 0
DWIDTH 16 0
BBX 15 14 1 0
BITMAP
0008
001C
13E0
F900
9104
91FE
9110
9110
F110
9210
0210
0410
0810
0010
ENDCHAR
STARTCHAR uni542D
ENCODING 21549
SWIDTH 1000 0
DWIDTH 16 0
BBX 15 14 1 0
BITMAP
0080
0044
0BFE
FC00
8810
89F8
8910
8910
F910
8910
0212
0212
0412
080E
ENDCHAR
STARTCHAR uni542E
ENCODING 21550
SWIDTH 1000 0
DWIDTH 16 0
BBX 15 14 1 0
BITMAP
0020
0020
0840
FC88
8904
8BFE
8892
8890
F890
8910
0112
0212
0412
080E
ENDCHAR
STARTCHAR uni5430
ENCODING 21552
SWIDTH 1000 0
DWIDTH 16 0
BBX 15 14 1 0
BITMAP
0020
0020
F7FE
9040
9080
9100
9220
9440
9080
F100
9208
0404
0FFE
0002
ENDCHAR
STARTCHAR uni5431
ENCODING 21553
SWIDTH 1000 0
DWIDTH 16 0
BBX 15 14 1 0
BITMAP
0040
0040
1044
FBFE
9040
9048
93FC
9010
9120
F0C0
90C0
0130
060E
1804
ENDCHAR
STARTCHAR uni5433
ENCODING 21555
SWIDTH 1000 0
DWIDTH 16 0
BBX 15 14 1 0
BITMAP
0020
0FF0
0820
2820
2FE0
2010
3FF8
0210
0214
FFFE
0280
0440
1830
E00C
ENDCHAR
STARTCHAR uni5435
ENCODING 21557
SWIDTH 1000 0
DWIDTH 16 0
BBX 15 14 1 0
BITMAP
0040
0040
1040
F840
9148
9144
9242
924A
9448
F048
9010
0020
00C0
0700
ENDCHAR
STARTCHAR uni5436
ENCODING 21558
SWIDTH 1000 0
DWIDTH 16 0
BBX 15 14 1 0
BITMAP
0040
0040
1044
FBFE
9244
9244
9244
92A4
9294
F314
9204
0204
021C
0208
ENDCHAR
STARTCHAR uni5437
ENCODING 21559
SWIDTH 1000 0
DWIDTH 16 0
BBX 15 14 1 0
BITMAP
0080
0080
F080
97F8
9088
9088
9088
9FFE
9080
F140
9220
0410
0808
1006
ENDCHAR
STARTCHAR uni5438
ENCODING 21560
SWIDTH 1000 0
DWIDTH 16 0
BBX 15 14 1 0
BITMAP
0010
13F8
F910
9110
9120
9178
9108
9288
F250
9420
0450
0888
110E
0204
ENDCHAR
STARTCHAR uni5439
ENCODING 21561
SWIDTH 1000 0
DWIDTH 16 0
BBX 15 14 1 0
BITMAP
0080
0080
1084
F9FE
9104
9248
9250
9440
F040
90A0
0090
0108
0606
1804
ENDCHAR
STARTCHAR uni543B
ENCODING 21563
SWIDTH 1000 0
DWIDTH 16 0
BBX 15 14 1 0
BITMAP
0100
1104
F9FE
92A4
94A4
90A4
9124
9124
F244
9444
0084
0104
0238
0010
ENDCHAR
STARTCHAR uni543C
ENCODING 21564
SWIDTH 1000 0
DWIDTH 16 0
BBX 15 14 1 0
BITMAP
0090
07D0
1090
F910
9210
9110
9150
9190
9710
F112
9112
0112
070E
0200
ENDCHAR
STARTCHAR uni543D
ENCODING 21565
SWIDTH 1000 0
DWIDTH 16 0
BBX 15 14 1 0
BITMAP
0020
0120
F928
89FC
8920
8A20
8824
8BFE
8820
F820
8820
0020
0020
0020
ENDCHAR
STARTCHAR uni543E
ENCODING 21566
SWIDTH 1000 0
DWIDTH 16 0
BBX 15 14 1 0
BITMAP
0008
7FFC
0400
0420
3FF0
0820
0824
FFFE
0000
1FF0
1010
1010
1FF0
1010
ENDCHAR
STARTCHAR uni5440
ENCODING 21568
SWIDTH 1000 0
DWIDTH 16 0
BBX 15 14 1 0
BITMAP
0004
03FE
0810
FC90
8890
8914
8BFE
8810
F830
8850
0190
0E10
0070
0020
ENDCHAR
STARTCHAR uni5441
ENCODING 21569
SWIDTH 1000 0
DWIDTH 16 0
BBX 15 14 1 0
BITMAP
0100
0100
F1FE
9202
9402
9002
91E2
9002
93F2
F002
9002
0002
0024
0018
ENDCHAR
STARTCHAR uni5442
ENCODING 21570
SWIDTH 1000 0
DWIDTH 16 0
BBX 13 14 2 0
BITMAP
0020
7FF0
4020
4020
7FE0
4420
0800
1010
FFF8
8010
8010
8010
FFF0
8010
ENDCHAR
STARTCHAR uni5443
ENCODING 21571
SWIDTH 1000 0
DWIDTH 16 0
BBX 15 14 1 0
BITMAP
0004
03FE
1200
FA04
92FE
9244
9244
9244
F25C
9248
0240
0442
0442
083E
ENDCHAR
STARTCHAR uni5445
ENCODING 21573
SWIDTH 1000 0
DWIDTH 16 0
BBX 15 14 1 0
BITMAP
0020
0020
FBFE
8800
8808
8808
8908
8888
8850
F820
8850
0088
0104
0602
ENDCHAR
STARTCHAR uni5446
ENCODING 21574
SWIDTH 1000 0
DWIDTH 16 0
BBX 15 14 1 0
BITMAP
0010
1FF8
1010
1010
1FF0
1110
0104
FFFE
0380
0540
0930
310E
C104
0100
ENDCHAR
STARTCHAR uni5447
ENCODING 21575
SWIDTH 1000 0
DWIDTH 16 0
BBX 15 14 1 0
BITMAP
0100
0108
7D38
0540
0540
0920
1110
E50E
0200
3FF8
2008
2008
3FF8
2008
ENDCHAR
STARTCHAR uni5448
ENCODING 21576
SWIDTH 1000 0
DWIDTH 16 0
BBX 14 13 2 1
BITMAP
0020
3FF0
2020
2020
3FE0
2030
01C0
3E00
0220
7FF0
0200
0208
FFFC
ENDCHAR
STARTCHAR uni544A
ENCODING 21578
SWIDTH 1000 0
DWIDTH 16 0
BBX 15 14 1 0
BITMAP
0100
1100
1110
3FF8
4100
0104
FFFE
0000
0010
1FF8
1010
1010
1FF0
1010
ENDCHAR
STARTCHAR uni544E
ENCODING 21582
SWIDTH 1000 0
DWIDTH 16 0
BBX 15 14 1 0
BITMAP
0008
13FC
FA08
9208
9208
93F8
9208
9280
F240
9240
0420
0410
080E
1004
ENDCHAR
STARTCHAR uni544F
ENCODING 21583
SWIDTH 1000 0
DWIDTH 16 0
BBX 15 14 1 0
BITMAP
0050
0090
0710
F110
9110
9FFE
9110
9110
9110
F110
9210
0410
0810
0010
ENDCHAR
STARTCHAR uni5454
ENCODING 21588
SWIDTH 1000 0
DWIDTH 16 0
BBX 15 14 1 0
BITMAP
0040
0040
F040
9040
97FE
9040
9040
90A0
F110
9208
0504
0884
0842
1002
ENDCHAR
STARTCHAR uni5460
ENCODING 21600
SWIDTH 1000 0
DWIDTH 16 0
BBX 15 14 1 0
BITMAP
0040
0040
07FC
F040
90E0
9150
9248
9444
9842
F040
93F8
0040
0040
0040
ENDCHAR
STARTCHAR uni5461
ENCODING 21601
SWIDTH 1000 0
DWIDTH 16 0
BBX 15 14 1 0
BITMAP
0004
07FE
0404
F404
97FC
9420
9420
97FE
9420
9420
F410
948A
0506
0602
ENDCHAR
STARTCHAR uni5462
ENCODING 21602
SWIDTH 1000 0
DWIDTH 16 0
BBX 15 14 1 0
BITMAP
0008
03FC
1208
FA08
93F8
9200
9288
9298
F2A0
94C0
0484
0884
1084
207E
ENDCHAR
STARTCHAR uni5463
ENCODING 21603
SWIDTH 1000 0
DWIDTH 16 0
BBX 15 14 1 0
BITMAP
0004
07FE
0404
F484
9444
9424
9FFE
9484
9444
F424
9404
07FE
0008
0030
ENDCHAR
STARTCHAR uni5464
ENCODING 21604
SWIDTH 1000 0
DWIDTH 16 0
BBX 15 14 1 0
BITMAP
0040
10A0
F8A0
9110
928C
9C66
9020
93F8
9008
F110
90A0
0040
0020
0020
ENDCHAR
STARTCHAR uni5465
ENCODING 21605
SWIDTH 1000 0
DWIDTH 16 0
BBX 15 14 1 0
BITMAP
0040
0040
07FC
F444
9444
97FC
9444
9444
9FFE
F404
9404
0404
0414
0408
ENDCHAR
STARTCHAR uni5466
ENCODING 21606
SWIDTH 1000 0
DWIDTH 16 0
BBX 15 14 1 0
BITMAP
0020
F120
9220
9224
94FE
9F24
9124
9224
94A4
9FA4
F0A4
8044
0094
0108
ENDCHAR
STARTCHAR uni5467
ENCODING 21607
SWIDTH 1000 0
DWIDTH 16 0
BBX 15 14 1 0
BITMAP
0002
0FFC
F410
9410
9410
97FE
9410
9410
9410
F450
9492
050A
0606
0CF2
ENDCHAR
STARTCHAR uni5468
ENCODING 21608
SWIDTH 1000 0
DWIDTH 16 0
BBX 15 14 1 0
BITMAP
0004
3FFE
2104
2124
2FF4
2104
2FF4
2004
2FE4
2824
2FE4
4824
401C
8008
ENDCHAR
STARTCHAR uni546B
ENCODING 21611
SWIDTH 1000 0
DWIDTH 16 0
BBX 15 14 1 0
BITMAP
0040
0040
0040
007C
F840
8840
8844
89FE
8904
8904
F904
8904
01FC
0104
ENDCHAR
STARTCHAR uni546C
ENCODING 21612
SWIDTH 1000 0
DWIDTH 16 0
BBX 15 13 1 1
BITMAP
0402
0FFE
04A2
F4A2
94A2
94A2
9522
9622
943E
F402
9402
07FE
0402
ENDCHAR
STARTCHAR uni546F
ENCODING 21615
SWIDTH 1000 0
DWIDTH 16 0
BBX 15 14 1 0
BITMAP
01FC
0020
FA22
8924
88A8
8820
8BFE
8820
8820
F820
8820
0020
0020
0020
ENDCHAR
STARTCHAR uni5470
ENCODING 21616
SWIDTH 1000 0
DWIDTH 16 0
BBX 15 14 1 0
BITMAP
0840
0840
4F7C
4840
4840
4842
FF7E
0000
3FF8
2008
2008
2008
3FF8
2008
ENDCHAR
STARTCHAR uni5471
ENCODING 21617
SWIDTH 1000 0
DWIDTH 16 0
BBX 15 14 1 0
BITMAP
0008
001C
13E0
FA48
9248
9248
9248
9248
F248
9248
04A4
0494
09F2
1012
ENDCHAR
STARTCHAR uni5472
ENCODING 21618
SWIDTH 1000 0
DWIDTH 16 0
BBX 15 14 1 0
BITMAP
0090
0090
0090
FA92
8A94
8AF8
8A90
8A90
8A90
FAB0
8AD2
0392
060E
0800
ENDCHAR
STARTCHAR uni5473
ENCODING 21619
SWIDTH 1000 0
DWIDTH 16 0
BBX 15 14 1 0
BITMAP
0040
0040
1048
FBFC
9040
9044
97FE
9040
F0E0
9150
0248
0446
0844
0040
ENDCHAR
STARTCHAR uni5474
ENCODING 21620
SWIDTH 1000 0
DWIDTH 16 0
BBX 15 14 1 0
BITMAP
0080
0080
00FE
F902
8A02
89F2
8912
8912
8912
F9F2
8912
0002
0024
0018
ENDCHAR
STARTCHAR uni5475
ENCODING 21621
SWIDTH 1000 0
DWIDTH 16 0
BBX 15 14 1 0
BITMAP
0004
07FE
1008
F848
93E8
9248
9248
9248
F3C8
9248
0008
0008
0038
0010
ENDCHAR
STARTCHAR uni5476
ENCODING 21622
SWIDTH 1000 0
DWIDTH 16 0
BBX 15 14 1 0
BITMAP
0200
1204
FA3E
9784
92A4
94A4
94A4
9924
F528
9210
0518
0924
1046
0082
ENDCHAR
STARTCHAR uni5477
ENCODING 21623
SWIDTH 1000 0
DWIDTH 16 0
BBX 15 14 1 0
BITMAP
0004
09FE
FD24
8924
89FC
8924
8924
89FC
F924
8820
0020
0020
0020
0020
ENDCHAR
STARTCHAR uni5478
ENCODING 21624
SWIDTH 1000 0
DWIDTH 16 0
BBX 15 13 1 1
BITMAP
0004
03FE
1020
F840
9040
9090
9148
F144
9246
0442
0840
0044
07FE
ENDCHAR
STARTCHAR uni547A
ENCODING 21626
SWIDTH 1000 0
DWIDTH 16 0
BBX 15 14 1 0
BITMAP
03FC
0204
F204
93FC
9000
97FE
9100
9100
91FC
F004
9004
0004
0048
0030
ENDCHAR
STARTCHAR uni547B
ENCODING 21627
SWIDTH 1000 0
DWIDTH 16 0
BBX 14 14 1 0
BITMAP
0040
0040
1048
FBFC
9248
9248
93F8
9248
9248
F3F8
9248
0040
0040
0040
ENDCHAR
STARTCHAR uni547C
ENCODING 21628
SWIDTH 1000 0
DWIDTH 16 0
BBX 15 14 1 0
BITMAP
0008
003C
13C0
F848
9248
9150
9044
97FE
F040
9040
0040
0040
01C0
0080
ENDCHAR
STARTCHAR uni547D
ENCODING 21629
SWIDTH 1000 0
DWIDTH 16 0
BBX 15 14 1 0
BITMAP
0380
0440
0830
300E
CFE4
0000
0408
7EFC
4488
4488
7C88
44B0
0080
0080
ENDCHAR
STARTCHAR uni547E
ENCODING 21630
SWIDTH 1000 0
DWIDTH 16 0
BBX 15 14 1 0
BITMAP
0004
01FE
0104
F904
8904
89FC
8904
8904
8904
F9FC
8904
0000
0000
03FE
ENDCHAR
STARTCHAR uni547F
ENCODING 21631
SWIDTH 1000 0
DWIDTH 16 0
BBX 15 14 1 0
BITMAP
0040
0048
07FC
F040
9040
9044
9FFE
9040
9080
F100
9208
0404
0FFE
0002
ENDCHAR
STARTCHAR uni5480
ENCODING 21632
SWIDTH 1000 0
DWIDTH 16 0
BBX 15 13 1 1
BITMAP
0010
13F8
FA10
9210
9210
93F0
9210
9210
F3F0
9210
0210
0214
0FFE
ENDCHAR
STARTCHAR uni5481
ENCODING 21633
SWIDTH 1000 0
DWIDTH 16 0
BBX 15 14 1 0
BITMAP
0108
0108
0108
F908
8FFE
8908
8908
8908
89F8
8908
F908
8908
01F8
0108
ENDCHAR
STARTCHAR uni5482
ENCODING 21634
SWIDTH 1000 0
DWIDTH 16 0
BBX 15 14 1 0
BITMAP
0004
03FE
FA20
8A20
8AF8
8AA8
8AA8
8AA8
8AA8
8AB8
FA20
8A20
0220
03FE
ENDCHAR
STARTCHAR uni5484
ENCODING 21636
SWIDTH 1000 0
DWIDTH 16 0
BBX 15 14 1 0
BITMAP
0020
0020
1124
F924
9124
91FC
9124
9020
9222
F222
9222
0222
03FE
0202
ENDCHAR
STARTCHAR uni5486
ENCODING 21638
SWIDTH 1000 0
DWIDTH 16 0
BBX 15 14 1 0
BITMAP
0100
0108
11FC
FA08
9448
93E8
9248
9248
93C8
F238
9210
0204
0204
01FE
ENDCHAR
STARTCHAR uni5487
ENCODING 21639
SWIDTH 1000 0
DWIDTH 16 0
BBX 15 14 1 0
BITMAP
0080
0040
0020
F100
9504
9512
9522
9140
9180
F100
9300
0504
0902
00FE
ENDCHAR
STARTCHAR uni5488
ENCODING 21640
SWIDTH 1000 0
DWIDTH 16 0
BBX 15 14 1 0
BITMAP
0120
0120
07F8
F128
9128
97F8
9520
9520
97FE
F122
9122
022C
0420
0020
ENDCHAR
STARTCHAR uni548B
ENCODING 21643
SWIDTH 1000 0
DWIDTH 16 0
BBX 15 14 1 0
BITMAP
0080
0080
0884
FDFE
8940
8A48
8A7C
8C40
8840
F844
887E
0040
0040
0040
ENDCHAR
STARTCHAR uni548C
ENCODING 21644
SWIDTH 1000 0
DWIDTH 16 0
BBX 15 14 1 0
BITMAP
0200
0700
7800
0804
08FE
FE84
0884
1884
1C84
2A84
4884
88FC
0884
0800
ENDCHAR
STARTCHAR uni548D
ENCODING 21645
SWIDTH 1000 0
DWIDTH 16 0
BBX 15 14 1 0
BITMAP
0020
0020
0040
F888
8904
8BFE
8802
8800
89FC
F904
8904
0104
01FC
0104
ENDCHAR
STARTCHAR uni548E
ENCODING 21646
SWIDTH 1000 0
DWIDTH 16 0
BBX 15 14 1 0
BITMAP
1020
1220
3F20
6230
9448
0C88
1200
61FE
0000
1FF0
1010
1010
1FF0
1010
ENDCHAR
STARTCHAR uni5490
ENCODING 21648
SWIDTH 1000 0
DWIDTH 16 0
BBX 15 14 1 0
BITMAP
0088
0088
1108
F908
92FE
9608
9288
9248
9248
F208
9208
0208
0238
0210
ENDCHAR
STARTCHAR uni5491
ENCODING 21649
SWIDTH 1000 0
DWIDTH 16 0
BBX 15 14 1 0
BITMAP
0100
013E
0108
F7C8
9108
9108
9148
9188
9708
9108
F108
9108
0528
0210
ENDCHAR
STARTCHAR uni5492
ENCODING 21650
SWIDTH 1000 0
DWIDTH 16 0
BBX 14 14 2 0
BITMAP
0810
FDF8
8910
8910
F9F0
8910
0000
1F80
1080
1080
1088
2088
4088
807C
ENDCHAR
STARTCHAR uni5495
ENCODING 21653
SWIDTH 1000 0
DWIDTH 16 0
BBX 15 14 1 0
BITMAP
0040
0040
1044
FBFE
9040
9040
9048
93FC
9208
F208
9208
0208
03F8
0208
ENDCHAR
STARTCHAR uni5496
ENCODING 21654
SWIDTH 1000 0
DWIDTH 16 0
BBX 15 14 1 0
BITMAP
0400
0400
0404
F4BE
9FE4
94A4
94A4
94A4
94A4
F4A4
94A4
08BC
13A4
2100
ENDCHAR
STARTCHAR uni5498
ENCODING 21656
SWIDTH 1000 0
DWIDTH 16 0
BBX 15 14 1 0
BITMAP
0080
0080
F7FE
9120
9220
95FC
9924
9124
F124
9124
012C
0020
0020
0020
ENDCHAR
STARTCHAR uni549A
ENCODING 21658
SWIDTH 1000 0
DWIDTH 16 0
BBX 15 14 1 0
BITMAP
0080
0088
10FC
F908
9290
9460
9090
9108
F646
9024
0020
0080
0060
0020
ENDCHAR
STARTCHAR uni54A0
ENCODING 21664
SWIDTH 1000 0
DWIDTH 16 0
BBX 15 14 1 0
BITMAP
0008
3FFC
2008
3FF8
0000
FFFE
1010
1FF0
1010
1FF0
1010
FFFE
0010
0010
ENDCHAR
STARTCHAR uni54A1
ENCODING 21665
SWIDTH 1000 0
DWIDTH 16 0
BBX 15 14 1 0
BITMAP
07FE
0108
F108
91F8
9108
9108
91F8
9108
9108
F7FE
9008
0008
0008
0008
ENDCHAR
STARTCHAR uni54A2
ENCODING 21666
SWIDTH 1000 0
DWIDTH 16 0
BBX 15 14 1 0
BITMAP
7C7C
4444
4444
7C7C
0000
1FF0
0000
FFFE
1000
1FF8
0008
0008
0010
01E0
ENDCHAR
STARTCHAR uni54A5
ENCODING 21669
SWIDTH 1000 0
DWIDTH 16 0
BBX 15 14 1 0
BITMAP
0004
03FE
0020
F840
8888
8904
8BFC
8822
8820
F9FC
8820
0020
0020
07FE
ENDCHAR
STARTCHAR uni54A6
ENCODING 21670
SWIDTH 1000 0
DWIDTH 16 0
BBX 15 14 1 0
BITMAP
0040
07FC
1040
FBF8
9048
93F8
9244
97FE
9044
F044
90A8
0110
020E
0404
ENDCHAR
STARTCHAR uni54A7
ENCODING 21671
SWIDTH 1000 0
DWIDTH 16 0
BBX 15 14 1 0
BITMAP
0022
07F2
1102
F94A
91EA
924A
924A
964A
F14A
908A
0082
0102
020E
0404
ENDCHAR
STARTCHAR uni54A8
ENCODING 21672
SWIDTH 1000 0
DWIDTH 16 0
BBX 15 14 1 0
BITMAP
4108
31FC
0108
0A50
1440
E0A0
2110
220E
2004
1FF0
1010
1010
1FF0
1010
ENDCHAR
STARTCHAR uni54A9
ENCODING 21673
SWIDTH 1000 0
DWIDTH 16 0
BBX 15 14 1 0
BITMAP
0118
0090
10A0
FBFC
9040
9040
93F8
9040
9044
F7FE
9040
0040
0040
0040
ENDCHAR
STARTCHAR uni54AA
ENCODING 21674
SWIDTH 1000 0
DWIDTH 16 0
BBX 15 14 1 0
BITMAP
0040
0248
1148
F950
9044
97FE
9040
90E0
F150
9150
0248
0446
0844
0040
ENDCHAR
STARTCHAR uni54AB
ENCODING 21675
SWIDTH 1000 0
DWIDTH 16 0
BBX 15 14 1 0
BITMAP
0200
7F04
227E
2244
3E44
287C
2800
2828
2424
2446
2282
4180
4070
800E
ENDCHAR
STARTCHAR uni54AC
ENCODING 21676
SWIDTH 1000 0
DWIDTH 16 0
BBX 15 14 1 0
BITMAP
0080
0044
07FE
1000
F910
9208
9416
9110
90A0
F040
90A0
0110
020E
0C04
ENDCHAR
STARTCHAR uni54AD
ENCODING 21677
SWIDTH 1000 0
DWIDTH 16 0
BBX 14 14 2 0
BITMAP
0040
F048
97FC
9040
9040
93F8
9000
9008
93FC
F208
9208
0208
03F8
0208
ENDCHAR
STARTCHAR uni54AE
ENCODING 21678
SWIDTH 1000 0
DWIDTH 16 0
BBX 15 14 1 0
BITMAP
0240
0240
F3FC
9440
9040
9FFE
9040
90E0
9150
F248
9444
0842
0140
0080
ENDCHAR
STARTCHAR uni54AF
ENCODING 21679
SWIDTH 1000 0
DWIDTH 16 0
BBX 15 14 1 0
BITMAP
0080
0088
10FC
F908
9310
94A0
9070
918E
9604
F1F8
9108
0108
01F8
0108
ENDCHAR
STARTCHAR uni54B0
ENCODING 21680
SWIDTH 1000 0
DWIDTH 16 0
BBX 15 14 1 0
BITMAP
0200
0200
03FE
F402
91F2
9112
91F2
9112
91F2
F112
9002
0004
0048
0030
ENDCHAR
STARTCHAR uni54B1
ENCODING 21681
SWIDTH 1000 0
DWIDTH 16 0
BBX 15 14 1 0
BITMAP
0080
0080
0104
0BFE
FD04
8904
89FC
8904
8904
F9FC
8904
0104
01FC
0104
ENDCHAR
STARTCHAR uni54B3
ENCODING 21683
SWIDTH 1000 0
DWIDTH 16 0
BBX 15 14 1 0
BITMAP
0080
0044
13FE
F840
9088
9318
90A0
9044
908C
F310
9020
0050
018E
0604
ENDCHAR
STARTCHAR uni54B6
ENCODING 21686
SWIDTH 1000 0
DWIDTH 16 0
BBX 15 14 1 0
BITMAP
0008
03F0
F040
9040
9FFE
9040
9040
93F8
9208
F208
9208
0208
03F8
0208
ENDCHAR
STARTCHAR uni54B7
ENCODING 21687
SWIDTH 1000 0
DWIDTH 16 0
BBX 15 14 1 0
BITMAP
0120
0120
F124
9528
9330
9120
9330
9528
9124
F120
9220
0422
0822
103E
ENDCHAR
STARTCHAR uni54B8
ENCODING 21688
SWIDTH 1000 0
DWIDTH 16 0
BBX 15 14 1 0
BITMAP
0020
0028
0024
3FFE
2020
2FA0
2024
2F24
2928
2910
2F32
492A
4046
8002
ENDCHAR
STARTCHAR uni54BA
ENCODING 21690
SWIDTH 1000 0
DWIDTH 16 0
BBX 15 14 1 0
BITMAP
03FE
0000
F800
89FC
8904
8904
89FC
8904
8904
F9FC
8904
0000
0004
07FE
ENDCHAR
STARTCHAR uni54BB
ENCODING 21691
SWIDTH 1000 0
DWIDTH 16 0
BBX 15 14 1 0
BITMAP
0120
0120
1224
FBFE
9620
9A70
9268
92A8
92A4
F324
9222
0220
0220
0220
ENDCHAR
STARTCHAR uni54BC
ENCODING 21692
SWIDTH 1000 0
DWIDTH 16 0
BBX 13 14 2 0
BITMAP
3FE0
2020
27E0
2420
2420
FFF8
8008
9FC8
9048
9048
9FC8
9048
8008
8030
ENDCHAR
STARTCHAR uni54BD
ENCODING 21693
SWIDTH 1000 0
DWIDTH 16 0
BBX 15 14 1 0
BITMAP
0004
03FE
1204
FA44
9244
93FC
9244
9264
9254
F28C
930C
0204
03FC
0204
ENDCHAR
STARTCHAR uni54BE
ENCODING 21694
SWIDTH 1000 0
DWIDTH 16 0
BBX 15 14 1 0
BITMAP
0080
0084
07F8
F090
90A0
9FFE
9180
9280
9480
98FC
F080
9082
0082
007E
ENDCHAR
STARTCHAR uni54BF
ENCODING 21695
SWIDTH 1000 0
DWIDTH 16 0
BBX 15 14 1 0
BITMAP
0100
0104
117E
FA24
92FE
9424
9A24
92FC
F224
9220
0240
0240
0280
0300
ENDCHAR
STARTCHAR uni54C0
ENCODING 21696
SWIDTH 1000 0
DWIDTH 16 0
BBX 15 14 1 0
BITMAP
0100
0104
FFFE
0020
1FF0
1020
1FE0
1220
0508
0C90
3460
C430
078E
1C04
ENDCHAR
STARTCHAR uni54C1
ENCODING 21697
SWIDTH 1000 0
DWIDTH 16 0
BBX 15 14 1 0
BITMAP
0020
1FF0
1020
1020
1FE0
1020
0404
FEFE
8484
8484
8484
8484
FCFC
8484
ENDCHAR
STARTCHAR uni54C2
ENCODING 21698
SWIDTH 1000 0
DWIDTH 16 0
BBX 15 14 1 0
BITMAP
0004
03FE
10A0
F8A4
93FE
92A4
92A4
92A4
92A4
F31C
9204
0204
03FC
0204
ENDCHAR
STARTCHAR uni54C3
ENCODING 21699
SWIDTH 1000 0
DWIDTH 16 0
BBX 15 14 1 0
BITMAP
07FE
0402
F402
95FA
9402
94F2
9492
9492
94F2
F492
9402
0402
040A
0404
ENDCHAR
STARTCHAR uni54C4
ENCODING 21700
SWIDTH 1000 0
DWIDTH 16 0
BBX 15 14 1 0
BITMAP
0110
0110
1110
F910
93FC
9110
9110
9114
97FE
F000
9110
0108
0204
0404
ENDCHAR
STARTCHAR uni54C5
ENCODING 21701
SWIDTH 1000 0
DWIDTH 16 0
BBX 15 14 1 0
BITMAP
0080
0100
F3FE
9402
9112
92AA
924A
92AA
931A
F20A
93FA
0002
0024
0018
ENDCHAR
STARTCHAR uni54C6
ENCODING 21702
SWIDTH 1000 0
DWIDTH 16 0
BBX 14 14 2 0
BITMAP
0080
1090
F9F8
9210
9520
90C0
9348
9CFC
9108
F310
94A0
00C0
0300
0C00
ENDCHAR
STARTCHAR uni54C7
ENCODING 21703
SWIDTH 1000 0
DWIDTH 16 0
BBX 15 14 1 0
BITMAP
0040
0040
1048
FBFC
9040
9044
97FE
9040
9048
F3FC
9040
0040
0044
0FFE
ENDCHAR
STARTCHAR uni54C8
ENCODING 21704
SWIDTH 1000 0
DWIDTH 16 0
BBX 15 14 1 0
BITMAP
0040
0060
1090
F908
9206
95F2
9000
9008
93FC
F208
9208
0208
03F8
0208
ENDCHAR
STARTCHAR uni54C9
ENCODING 21705
SWIDTH 1000 0
DWIDTH 16 0
BBX 15 14 1 0
BITMAP
0840
0A48
7F44
0844
0840
FFFE
0040
4244
7F28
4228
4210
7E2A
4246
0002
ENDCHAR
STARTCHAR uni54CE
ENCODING 21710
SWIDTH 1000 0
DWIDTH 16 0
BBX 15 14 1 0
BITMAP
0110
0114
17FE
F910
9110
9000
9210
9110
9120
F0C0
90C0
0130
020E
0C04
ENDCHAR
STARTCHAR uni54CF
ENCODING 21711
SWIDTH 1000 0
DWIDTH 16 0
BBX 15 14 1 0
BITMAP
0008
09FC
FD08
89F8
8908
89F8
8944
8948
F930
8920
0110
014E
0384
0100
ENDCHAR
STARTCHAR uni54D6
ENCODING 21718
SWIDTH 1000 0
DWIDTH 16 0
BBX 15 14 1 0
BITMAP
0100
03FE
F420
9020
97FC
9220
9220
9220
FFFE
9020
0020
0020
0020
0020
ENDCHAR
STARTCHAR uni54DE
ENCODING 21726
SWIDTH 1000 0
DWIDTH 16 0
BBX 15 14 1 0
BITMAP
0040
0088
0104
FBFE
8822
8920
89FC
8920
8A20
F824
8BFE
0020
0020
0020
ENDCHAR
STARTCHAR uni54E0
ENCODING 21728
SWIDTH 1000 0
DWIDTH 16 0
BBX 15 14 1 0
BITMAP
0020
0220
03FC
F220
9420
9020
97FE
9000
91FC
9104
F104
9104
01FC
0104
ENDCHAR
STARTCHAR uni54E1
ENCODING 21729
SWIDTH 1000 0
DWIDTH 16 0
BBX 11 14 3 0
BITMAP
0040
7FE0
4040
7FC0
0000
FFE0
8020
FFE0
8020
FFE0
8020
FFE0
4040
8020
ENDCHAR
STARTCHAR uni54E2
ENCODING 21730
SWIDTH 1000 0
DWIDTH 16 0
BBX 15 14 1 0
BITMAP
03FE
0020
F820
89FC
8820
8820
8BFE
8888
8888
FBFE
8888
0108
0208
0008
ENDCHAR
STARTCHAR uni54E4
ENCODING 21732
SWIDTH 1000 0
DWIDTH 16 0
BBX 15 14 1 0
BITMAP
0280
0242
0204
F7E8
9212
9284
9288
9292
9284
F288
92B0
0482
0882
10FE
ENDCHAR
STARTCHAR uni54E5
ENCODING 21733
SWIDTH 1000 0
DWIDTH 16 0
BBX 15 14 1 0
BITMAP
0008
7FFC
0110
3F90
2110
3F10
0014
FFFE
0110
3F90
2110
3F10
2110
0030
ENDCHAR
STARTCHAR uni54E6
ENCODING 21734
SWIDTH 1000 0
DWIDTH 16 0
BBX 15 14 1 0
BITMAP
00A0
0328
1124
F920
97FE
9120
9124
91A4
F328
9510
0930
0154
070C
0206
ENDCHAR
STARTCHAR uni54E7
ENCODING 21735
SWIDTH 1000 0
DWIDTH 16 0
BBX 15 14 1 0
BITMAP
0040
0048
F3FC
9040
9044
97FE
90A0
92A8
F2A4
84A2
0922
0220
04A0
0040
ENDCHAR
STARTCHAR uni54E8
ENCODING 21736
SWIDTH 1000 0
DWIDTH 16 0
BBX 15 14 1 0
BITMAP
0124
00A4
08A8
FC24
89FE
8904
89FC
8904
F9FC
8904
0104
0204
021C
0408
ENDCHAR
STARTCHAR uni54E9
ENCODING 21737
SWIDTH 1000 0
DWIDTH 16 0
BBX 15 14 1 0
BITMAP
0008
03FC
1248
FA48
93F8
9248
9248
93F8
F040
9040
03F8
0040
0044
0FFE
ENDCHAR
STARTCHAR uni54EA
ENCODING 21738
SWIDTH 1000 0
DWIDTH 16 0
BBX 15 13 1 0
BITMAP
07DE
1252
FA54
97D4
9258
9254
97D2
F252
9452
045A
09D4
1090
0010
ENDCHAR
STARTCHAR uni54EB
ENCODING 21739
SWIDTH 1000 0
DWIDTH 16 0
BBX 15 14 1 0
BITMAP
0008
03FC
0208
F208
9208
93F8
9040
9040
9278
9240
F240
9340
04C0
087E
ENDCHAR
STARTCHAR uni54ED
ENCODING 21741
SWIDTH 1000 0
DWIDTH 16 0
BBX 15 14 1 0
BITMAP
0404
7E7E
4444
4444
7C7C
4444
0120
0110
FFFE
0280
0440
0830
300E
C004
ENDCHAR
STARTCHAR uni54EE
ENCODING 21742
SWIDTH 1000 0
DWIDTH 16 0
BBX 15 14 1 0
BITMAP
0080
0088
13F8
F890
90A4
97FE
9100
92F0
9424
FBFE
9020
0020
00E0
0040
ENDCHAR
STARTCHAR uni54F1
ENCODING 21745
SWIDTH 1000 0
DWIDTH 16 0
BBX 15 14 1 0
BITMAP
0020
03FE
F820
8820
8BFE
8A02
8AFA
8810
8820
FBFE
8820
0020
0020
0060
ENDCHAR
STARTCHAR uni54F2
ENCODING 21746
SWIDTH 1000 0
DWIDTH 16 0
BBX 15 14 1 0
BITMAP
080C
08F0
7E80
0884
0EFE
F890
0890
3910
1010
0FF8
0810
0810
0FF0
0810
ENDCHAR
STARTCHAR uni54F3
ENCODING 21747
SWIDTH 1000 0
DWIDTH 16 0
BBX 15 14 1 0
BITMAP
0200
020C
F270
9FC0
9240
927E
92C8
9348
9E48
F248
9288
0288
0B08
0408
ENDCHAR
STARTCHAR uni54F7
ENCODING 21751
SWIDTH 1000 0
DWIDTH 16 0
BBX 15 14 1 0
BITMAP
0008
0030
F3E0
9004
9244
9128
9000
9008
97FE
F108
9088
0008
0028
0010
ENDCHAR
STARTCHAR uni54F8
ENCODING 21752
SWIDTH 1000 0
DWIDTH 16 0
BBX 15 14 1 0
BITMAP
0002
0FFC
0248
F444
9842
9100
9110
9FFE
9110
F110
90A0
0040
00A0
0F1E
ENDCHAR
STARTCHAR uni54FA
ENCODING 21754
SWIDTH 1000 0
DWIDTH 16 0
BBX 15 14 1 0
BITMAP
0048
0044
13FE
F840
9044
93FE
9244
93FC
F244
93FC
0244
0244
025C
0208
ENDCHAR
STARTCHAR uni54FB
ENCODING 21755
SWIDTH 1000 0
DWIDTH 16 0
BBX 14 14 1 0
BITMAP
03F8
0208
F3F8
9208
93F8
9000
93F8
9040
F040
97FC
0040
0040
0040
0040
ENDCHAR
STARTCHAR uni54FC
ENCODING 21756
SWIDTH 1000 0
DWIDTH 16 0
BBX 14 14 2 0
BITMAP
0040
07FC
1000
FBF8
9210
93F0
9000
97F8
9020
F0C0
9040
0040
01C0
0080
ENDCHAR
STARTCHAR uni54FD
ENCODING 21757
SWIDTH 1000 0
DWIDTH 16 0
BBX 15 14 1 0
BITMAP
0008
03FC
1040
F848
93FC
9248
93F8
9248
F3F8
9240
0140
00C0
0330
0C0E
ENDCHAR
STARTCHAR uni54FF
ENCODING 21759
SWIDTH 1000 0
DWIDTH 16 0
BBX 15 14 1 0
BITMAP
0800
7F7C
0944
1144
1544
627C
0000
FFFE
0010
1F90
1090
1F90
1050
0020
ENDCHAR
STARTCHAR uni5501
ENCODING 21761
SWIDTH 1000 0
DWIDTH 16 0
BBX 15 14 1 0
BITMAP
0080
0044
17FE
F800
93F8
9000
93F8
9000
F208
93FC
0208
0208
03F8
0208
ENDCHAR
STARTCHAR uni5503
ENCODING 21763
SWIDTH 1000 0
DWIDTH 16 0
BBX 15 14 1 0
BITMAP
0100
03FC
0410
F020
93FE
9222
93FE
9222
9222
F3FE
9202
0202
020A
0404
ENDCHAR
STARTCHAR uni5504
ENCODING 21764
SWIDTH 1000 0
DWIDTH 16 0
BBX 15 14 1 0
BITMAP
0004
03FE
FA04
8A04
8BFC
8A04
8A04
8BFC
8A04
FA04
8BFC
0108
0204
0402
ENDCHAR
STARTCHAR uni5505
ENCODING 21765
SWIDTH 1000 0
DWIDTH 16 0
BBX 15 14 1 0
BITMAP
0040
00A0
0110
F208
9444
9822
93F8
9010
9020
F3FC
9204
0204
03FC
0204
ENDCHAR
STARTCHAR uni5506
ENCODING 21766
SWIDTH 1000 0
DWIDTH 16 0
BBX 15 14 1 0
BITMAP
0040
0090
0108
13FC
F910
9208
9516
91F8
9310
F4A0
9040
00B0
030E
0C04
ENDCHAR
STARTCHAR uni5507
ENCODING 21767
SWIDTH 1000 0
DWIDTH 16 0
BBX 15 14 1 0
BITMAP
3FF8
2000
2FF0
2000
3FFC
2510
24A0
2660
2C1E
47F0
4410
8410
07F0
0410
ENDCHAR
STARTCHAR uni5508
ENCODING 21768
SWIDTH 1000 0
DWIDTH 16 0
BBX 15 14 1 0
BITMAP
03F8
0208
F208
93F8
9000
97FC
9444
9444
97FC
F400
9400
0402
0402
07FE
ENDCHAR
STARTCHAR uni5509
ENCODING 21769
SWIDTH 1000 0
DWIDTH 16 0
BBX 15 14 1 0
BITMAP
0040
0090
1108
FBFC
9004
9100
93F8
9440
9044
F7FE
9040
00B0
030E
0404
ENDCHAR
STARTCHAR uni550A
ENCODING 21770
SWIDTH 1000 0
DWIDTH 16 0
BBX 15 14 1 0
BITMAP
0040
0FFE
0040
F248
9248
9554
98E2
9040
9040
F0A0
9110
0208
0404
1802
ENDCHAR
STARTCHAR uni550B
ENCODING 21771
SWIDTH 1000 0
DWIDTH 16 0
BBX 15 14 1 0
BITMAP
0040
00A0
0110
F208
95F4
9842
9040
97FC
90E0
F150
9248
0444
0040
0080
ENDCHAR
STARTCHAR uni550C
ENCODING 21772
SWIDTH 1000 0
DWIDTH 16 0
BBX 15 14 1 0
BITMAP
0002
07BC
F888
8908
8A08
892E
88A8
88A8
88A8
F8A8
897E
0200
0500
08FE
ENDCHAR
STARTCHAR uni550E
ENCODING 21774
SWIDTH 1000 0
DWIDTH 16 0
BBX 15 14 1 0
BITMAP
0042
07C2
F112
9112
9112
97D2
9112
9112
9382
F542
9922
0102
010A
0104
ENDCHAR
STARTCHAR uni550F
ENCODING 21775
SWIDTH 1000 0
DWIDTH 16 0
BBX 15 14 1 0
BITMAP
0090
0060
1090
F90C
9040
93FE
9120
9224
F5FE
9924
0124
0124
012C
0020
ENDCHAR
STARTCHAR uni5510
ENCODING 21776
SWIDTH 1000 0
DWIDTH 16 0
BBX 15 14 1 0
BITMAP
0100
3FFC
2080
2FF8
2088
3FFE
2088
2FF8
2080
2FF8
4808
4808
8FF8
0808
ENDCHAR
STARTCHAR uni5511
ENCODING 21777
SWIDTH 1000 0
DWIDTH 16 0
BBX 15 14 1 0
BITMAP
0040
0040
0248
F248
9248
9354
94E2
9040
9048
93FC
F040
9040
0044
0FFE
ENDCHAR
STARTCHAR uni5512
ENCODING 21778
SWIDTH 1000 0
DWIDTH 16 0
BBX 15 14 1 0
BITMAP
07FE
0090
F090
97FE
9492
9492
9512
961E
9402
F5FA
9402
0402
07FE
0402
ENDCHAR
STARTCHAR uni5514
ENCODING 21780
SWIDTH 1000 0
DWIDTH 16 0
BBX 15 14 1 0
BITMAP
0008
03FC
1080
F888
93FC
9108
9108
97FE
F000
93FC
0204
0204
03FC
0204
ENDCHAR
STARTCHAR uni5517
ENCODING 21783
SWIDTH 1000 0
DWIDTH 16 0
BBX 15 14 1 0
BITMAP
0040
0040
F7FC
9040
9040
9FFE
9040
9240
927C
F240
9240
0540
08C0
107E
ENDCHAR
STARTCHAR uni551A
ENCODING 21786
SWIDTH 1000 0
DWIDTH 16 0
BBX 15 14 1 0
BITMAP
03F8
0008
07FC
F008
93F8
9000
97FE
9402
95F4
9110
F0A0
9040
00A0
071C
ENDCHAR
STARTCHAR uni5526
ENCODING 21798
SWIDTH 1000 0
DWIDTH 16 0
BBX 15 14 1 0
BITMAP
0820
0420
F220
9068
90A4
9922
9420
9224
9024
F124
9208
0410
0820
01C0
ENDCHAR
STARTCHAR uni5527
ENCODING 21799
SWIDTH 1000 0
DWIDTH 16 0
BBX 15 14 1 0
BITMAP
0080
27C4
F4BE
A7A4
A4A4
A7A4
A4A4
A424
E534
A4AC
0768
0C20
0020
0020
ENDCHAR
STARTCHAR uni552A
ENCODING 21802
SWIDTH 1000 0
DWIDTH 16 0
BBX 15 14 1 0
BITMAP
0040
F7FE
9040
93FC
9080
97FE
9110
9248
9444
FBFA
9040
07FC
0040
0040
ENDCHAR
STARTCHAR uni552C
ENCODING 21804
SWIDTH 1000 0
DWIDTH 16 0
BBX 15 14 1 0
BITMAP
0048
007C
1040
FBFE
9242
93FC
9240
923C
9200
F290
9290
0492
0492
090E
ENDCHAR
STARTCHAR uni552D
ENCODING 21805
SWIDTH 1000 0
DWIDTH 16 0
BBX 15 14 1 0
BITMAP
0088
0088
03FE
F888
8888
88F8
8888
88F8
8888
F888
8BFE
0088
0104
0202
ENDCHAR
STARTCHAR uni552E
ENCODING 21806
SWIDTH 1000 0
DWIDTH 16 0
BBX 14 14 1 0
BITMAP
0900
0890
17F8
3080
57F0
9080
17F8
1080
1FFC
0000
1FF8
1008
1FF8
1008
ENDCHAR
STARTCHAR uni552F
ENCODING 21807
SWIDTH 1000 0
DWIDTH 16 0
BBX 15 14 1 0
BITMAP
0080
00A0
1090
F9FE
9110
9310
95FC
9110
9110
F1FC
9110
0110
01FE
0100
ENDCHAR
STARTCHAR uni5530
ENCODING 21808
SWIDTH 1000 0
DWIDTH 16 0
BBX 15 14 1 0
BITMAP
0FE2
E822
A82A
AFEA
A90A
A90A
AFEA
ED2A
8D2A
152A
1522
2542
010A
0104
ENDCHAR
STARTCHAR uni5531
ENCODING 21809
SWIDTH 1000 0
DWIDTH 16 0
BBX 15 14 1 0
BITMAP
0008
03FC
1208
FBF8
9208
93F8
9004
97FE
9404
F7FC
9404
0404
07FC
0404
ENDCHAR
STARTCHAR uni5532
ENCODING 21810
SWIDTH 1000 0
DWIDTH 16 0
BBX 15 14 1 0
BITMAP
0100
020E
0602
FBDE
8A02
8A02
8BFE
8850
8850
F850
8890
0112
0212
0C1E
ENDCHAR
STARTCHAR uni5533
ENCODING 21811
SWIDTH 1000 0
DWIDTH 16 0
BBX 15 14 1 0
BITMAP
0038
03C4
13FE
FA04
93FC
9228
9224
93FE
F220
9250
0450
0488
090E
0204
ENDCHAR
STARTCHAR uni5534
ENCODING 21812
SWIDTH 1000 0
DWIDTH 16 0
BBX 15 14 1 0
BITMAP
0208
0110
F0A0
97FC
9040
97FC
9040
9FFE
9120
F120
9120
0222
0422
183E
ENDCHAR
STARTCHAR uni5535
ENCODING 21813
SWIDTH 1000 0
DWIDTH 16 0
BBX 15 14 1 0
BITMAP
0020
0020
03FE
F888
8924
8A22
89FC
8924
89FC
8924
F9FC
8820
0022
003E
ENDCHAR
STARTCHAR uni5536
ENCODING 21814
SWIDTH 1000 0
DWIDTH 16 0
BBX 15 14 1 0
BITMAP
0088
0088
FBFE
8888
8888
8BFE
8800
89FC
F904
89FC
0104
0104
01FC
0104
ENDCHAR
STARTCHAR uni5537
ENCODING 21815
SWIDTH 1000 0
DWIDTH 16 0
BBX 15 14 1 0
BITMAP
0040
07FE
1080
F908
93FC
9004
91F8
9108
F1F8
9108
01F8
0108
0208
0418
ENDCHAR
STARTCHAR uni5538
ENCODING 21816
SWIDTH 1000 0
DWIDTH 16 0
BBX 15 14 1 0
BITMAP
00E0
0110
1288
FC46
9010
93F8
9020
9040
F000
9144
0522
0502
0908
00FC
ENDCHAR
STARTCHAR uni5539
ENCODING 21817
SWIDTH 1000 0
DWIDTH 16 0
BBX 15 14 1 0
BITMAP
0208
0108
F008
97D4
9222
9200
93D0
9248
9244
F240
9450
0048
0284
0100
ENDCHAR
STARTCHAR uni553B
ENCODING 21819
SWIDTH 1000 0
DWIDTH 16 0
BBX 15 14 1 0
BITMAP
0040
0FFE
F040
9248
9248
9554
98E2
9040
90E0
F150
9248
0C46
0040
0040
ENDCHAR
STARTCHAR uni553C
ENCODING 21820
SWIDTH 1000 0
DWIDTH 16 0
BBX 15 14 1 0
BITMAP
0080
0040
07FC
F110
90A0
97FC
9080
9100
9FFE
F210
9120
00C0
0130
0E0E
ENDCHAR
STARTCHAR uni553E
ENCODING 21822
SWIDTH 1000 0
DWIDTH 16 0
BBX 15 14 1 0
BITMAP
0038
03C0
1040
F840
97FE
9150
9150
97FC
F150
9150
07FC
0040
0040
03F8
ENDCHAR
STARTCHAR uni5540
ENCODING 21824
SWIDTH 1000 0
DWIDTH 16 0
BBX 15 14 1 0
BITMAP
07FE
0420
F420
95FC
9420
9420
97FE
9420
9420
F5FC
9420
0420
0820
03FE
ENDCHAR
STARTCHAR uni5541
ENCODING 21825
SWIDTH 1000 0
DWIDTH 16 0
BBX 15 14 1 0
BITMAP
0004
07FE
0444
F444
95F4
9444
95F4
9404
F5F4
9514
05F4
0914
0804
100C
ENDCHAR
STARTCHAR uni5543
ENCODING 21827
SWIDTH 1000 0
DWIDTH 16 0
BBX 15 14 1 0
BITMAP
0040
0278
0240
17FE
F808
93FC
9208
93F8
9208
F3F8
9208
0208
0238
0410
ENDCHAR
STARTCHAR uni5544
ENCODING 21828
SWIDTH 1000 0
DWIDTH 16 0
BBX 15 14 1 0
BITMAP
0004
07FE
1080
F940
9244
90C8
9570
9250
F5C8
9146
0244
1C40
01C0
0080
ENDCHAR
STARTCHAR uni5545
ENCODING 21829
SWIDTH 1000 0
DWIDTH 16 0
BBX 15 14 1 0
BITMAP
0020
003C
F820
89FC
8904
89FC
8904
89FC
8924
F820
8BFE
0020
0020
0020
ENDCHAR
STARTCHAR uni5546
ENCODING 21830
SWIDTH 1000 0
DWIDTH 16 0
BBX 15 14 1 0
BITMAP
0200
0104
FFFE
0820
0448
3FFC
2448
2828
37D8
2448
27C8
2448
2038
2010
ENDCHAR
STARTCHAR uni5548
ENCODING 21832
SWIDTH 1000 0
DWIDTH 16 0
BBX 15 14 1 0
BITMAP
0020
01FC
0020
F820
8BFE
8888
8850
8BFE
8820
F820
89FC
0020
0020
0020
ENDCHAR
STARTCHAR uni554A
ENCODING 21834
SWIDTH 1000 0
DWIDTH 16 0
BBX 15 13 1 0
BITMAP
0F7E
2904
FA04
AC74
AA54
AA54
A954
A974
E954
AF04
0A04
081C
0808
ENDCHAR
STARTCHAR uni554B
ENCODING 21835
SWIDTH 1000 0
DWIDTH 16 0
BBX 15 14 1 0
BITMAP
0004
03F8
F822
8924
88A8
8820
8BFE
8820
8870
F8A8
8924
0222
0020
0020
ENDCHAR
STARTCHAR uni554D
ENCODING 21837
SWIDTH 1000 0
DWIDTH 16 0
BBX 15 14 1 0
BITMAP
0040
0FFE
0000
F7FC
9404
97FC
9000
91F0
9020
F7FC
9040
0040
0140
0080
ENDCHAR
STARTCHAR uni554E
ENCODING 21838
SWIDTH 1000 0
DWIDTH 16 0
BBX 15 14 1 0
BITMAP
2004
41FE
FC20
10FC
1024
1024
FDFE
1000
10FC
1084
1084
1084
10FC
1084
ENDCHAR
STARTCHAR uni554F
ENCODING 21839
SWIDTH 1000 0
DWIDTH 16 0
BBX 15 14 1 0
BITMAP
0404
FEFE
8484
FCFC
8484
FCFC
8004
8044
8FE4
8844
8844
8FC4
8844
800C
ENDCHAR
STARTCHAR uni5550
ENCODING 21840
SWIDTH 1000 0
DWIDTH 16 0
BBX 15 14 1 0
BITMAP
0080
0040
07FC
F910
8910
8AA8
8A44
8C44
8FFE
F840
8840
0040
0040
0040
ENDCHAR
STARTCHAR uni5551
ENCODING 21841
SWIDTH 1000 0
DWIDTH 16 0
BBX 15 14 1 0
BITMAP
0040
0FFE
F040
97FC
9044
9FFE
9044
97FC
9040
F440
947C
0A40
1140
00FE
ENDCHAR
STARTCHAR uni5552
ENCODING 21842
SWIDTH 1000 0
DWIDTH 16 0
BBX 15 14 1 0
BITMAP
07FE
0402
F402
97FE
9420
9524
9524
95FC
9420
F522
9522
0922
11FE
0102
ENDCHAR
STARTCHAR uni5555
ENCODING 21845
SWIDTH 1000 0
DWIDTH 16 0
BBX 15 14 1 0
BITMAP
0200
0204
17FE
FA04
93F4
9484
9084
97F4
F084
92A4
03E4
0224
001C
0008
ENDCHAR
STARTCHAR uni5556
ENCODING 21846
SWIDTH 1000 0
DWIDTH 16 0
BBX 15 14 1 0
BITMAP
0040
0148
1150
FA40
90A0
9110
920C
9040
F148
9150
0240
00A0
0310
0C0E
ENDCHAR
STARTCHAR uni5557
ENCODING 21847
SWIDTH 1000 0
DWIDTH 16 0
BBX 15 14 1 0
BITMAP
0044
007E
1084
F908
9200
9084
911E
9304
F104
91DC
0104
0104
01FC
0104
ENDCHAR
STARTCHAR uni555C
ENCODING 21852
SWIDTH 1000 0
DWIDTH 16 0
BBX 15 14 1 0
BITMAP
0084
0FBE
04A4
F528
9210
9528
98C4
9FFC
9084
F528
9528
0210
0528
18C6
ENDCHAR
STARTCHAR uni555E
ENCODING 21854
SWIDTH 1000 0
DWIDTH 16 0
BBX 15 14 1 0
BITMAP
0008
07FC
1120
F920
9128
973C
9408
9408
9738
F528
9120
0120
0124
0FFE
ENDCHAR
STARTCHAR uni555F
ENCODING 21855
SWIDTH 1000 0
DWIDTH 16 0
BBX 15 14 1 0
BITMAP
0720
7820
2220
3F44
227E
2288
3E08
2048
2230
3F30
5248
5248
9E86
1304
ENDCHAR
STARTCHAR uni5561
ENCODING 21857
SWIDTH 1000 0
DWIDTH 16 0
BBX 15 14 1 0
BITMAP
0090
0090
179E
F890
9090
979E
9090
9090
9090
F79E
9090
0110
0110
0210
ENDCHAR
STARTCHAR uni5562
ENCODING 21858
SWIDTH 1000 0
DWIDTH 16 0
BBX 15 14 1 0
BITMAP
03FE
0020
0020
FBFE
8A22
8AAA
8AAA
8B76
8A22
8A22
FA22
8A22
0202
0204
ENDCHAR
STARTCHAR uni5563
ENCODING 21859
SWIDTH 1000 0
DWIDTH 16 0
BBX 15 14 1 0
BITMAP
0200
0200
17DE
F912
9112
97D2
9112
9112
F1D2
9512
0514
07D0
0C10
0010
ENDCHAR
STARTCHAR uni5564
ENCODING 21860
SWIDTH 1000 0
DWIDTH 16 0
BBX 15 14 1 0
BITMAP
0080
0108
13FC
FA48
93F8
9248
9248
93F8
9080
F144
97FE
0040
0040
0040
ENDCHAR
STARTCHAR uni5565
ENCODING 21861
SWIDTH 1000 0
DWIDTH 16 0
BBX 15 14 1 0
BITMAP
0040
00A0
F110
9208
95F6
9044
9040
97FC
9040
F3F8
9208
0208
03F8
0208
ENDCHAR
STARTCHAR uni5566
ENCODING 21862
SWIDTH 1000 0
DWIDTH 16 0
BBX 15 14 1 0
BITMAP
0220
0210
E210
AF7E
A200
A204
A344
A244
A648
AA28
E228
A228
0BFE
0400
ENDCHAR
STARTCHAR uni556A
ENCODING 21866
SWIDTH 1000 0
DWIDTH 16 0
BBX 15 14 1 0
BITMAP
0210
0220
1244
FA7E
9FC4
9244
92C4
937C
F644
9A44
0244
0244
0E7C
0444
ENDCHAR
STARTCHAR uni5575
ENCODING 21877
SWIDTH 1000 0
DWIDTH 16 0
BBX 15 14 1 0
BITMAP
0410
F210
92FE
9892
9494
9090
92FC
92A4
94A4
FCA8
9490
0528
0646
0484
ENDCHAR
STARTCHAR uni5576
ENCODING 21878
SWIDTH 1000 0
DWIDTH 16 0
BBX 15 14 1 0
BITMAP
0040
0020
F820
8BFE
8A02
8C04
8BFE
8820
8920
F93C
8920
02A0
0460
081E
ENDCHAR
STARTCHAR uni5577
ENCODING 21879
SWIDTH 1000 0
DWIDTH 16 0
BBX 15 14 1 0
BITMAP
0200
011E
F7D2
9452
97D4
9458
9454
97D2
F412
9512
049A
0554
0E10
0010
ENDCHAR
STARTCHAR uni557B
ENCODING 21883
SWIDTH 1000 0
DWIDTH 16 0
BBX 15 14 1 0
BITMAP
0100
3FF8
0820
0440
7FFE
4102
9FF4
1110
1130
0100
1FF0
1010
1FF0
1010
ENDCHAR
STARTCHAR uni557C
ENCODING 21884
SWIDTH 1000 0
DWIDTH 16 0
BBX 15 14 1 0
BITMAP
0040
03F8
1110
F8A0
97FE
9444
9448
93FC
9248
F248
9248
0258
0040
0040
ENDCHAR
STARTCHAR uni557D
ENCODING 21885
SWIDTH 1000 0
DWIDTH 16 0
BBX 15 14 1 0
BITMAP
00E0
0110
F208
95FC
9802
91F8
9108
91F8
F000
9108
07FE
0108
0108
0208
ENDCHAR
STARTCHAR uni557E
ENCODING 21886
SWIDTH 1000 0
DWIDTH 16 0
BBX 15 14 1 0
BITMAP
00D0
0710
1152
F932
9134
97D8
9390
9350
F528
8528
0924
1146
0142
0302
ENDCHAR
STARTCHAR uni557F
ENCODING 21887
SWIDTH 1000 0
DWIDTH 16 0
BBX 15 14 1 0
BITMAP
0088
0088
07FE
F088
90F8
9088
90F8
9088
97FE
F250
9250
029E
0200
03FE
ENDCHAR
STARTCHAR uni5580
ENCODING 21888
SWIDTH 1000 0
DWIDTH 16 0
BBX 15 14 1 0
BITMAP
0040
07FE
1482
F4F4
9110
92A0
9040
91B0
960E
F1F8
9108
0108
01F8
0108
ENDCHAR
STARTCHAR uni5581
ENCODING 21889
SWIDTH 1000 0
DWIDTH 16 0
BBX 15 14 1 0
BITMAP
03FC
0244
F3FC
9244
93FC
9244
9040
97FE
9442
F452
95F2
0412
040A
0404
ENDCHAR
STARTCHAR uni5582
ENCODING 21890
SWIDTH 1000 0
DWIDTH 16 0
BBX 15 14 1 0
BITMAP
0008
03FC
1248
FBF8
9248
93F8
9000
9FFE
F288
9250
0220
0290
030E
0E04
ENDCHAR
STARTCHAR uni5583
ENCODING 21891
SWIDTH 1000 0
DWIDTH 16 0
BBX 15 14 1 0
BITMAP
0040
0044
07FE
1040
F884
97FE
9514
94A4
95F4
F444
95F4
0444
0444
040C
ENDCHAR
STARTCHAR uni5584
ENCODING 21892
SWIDTH 1000 0
DWIDTH 16 0
BBX 15 14 1 0
BITMAP
0440
7FFC
0100
3FF8
0100
7FFC
0820
0444
FFFE
0000
1FF0
1010
1FF0
1010
ENDCHAR
STARTCHAR uni5587
ENCODING 21895
SWIDTH 1000 0
DWIDTH 16 0
BBX 15 14 1 0
BITMAP
0102
0102
17E2
F90A
914A
97EA
954A
954A
F7CA
918A
0342
0542
090E
0104
ENDCHAR
STARTCHAR uni5588
ENCODING 21896
SWIDTH 1000 0
DWIDTH 16 0
BBX 15 14 1 0
BITMAP
0420
0424
F7A8
9430
94A2
9522
965E
9080
93FC
F204
93FC
0204
03FC
0204
ENDCHAR
STARTCHAR uni5589
ENCODING 21897
SWIDTH 1000 0
DWIDTH 16 0
BBX 15 14 1 0
BITMAP
0108
117C
FA08
92FE
9400
9A40
927C
9290
9210
F2FE
9210
0228
0244
0282
ENDCHAR
STARTCHAR uni558A
ENCODING 21898
SWIDTH 1000 0
DWIDTH 16 0
BBX 15 14 1 0
BITMAP
0014
0012
07FE
1410
FDF0
9410
95D2
9552
F554
95D4
0558
081A
0826
1042
ENDCHAR
STARTCHAR uni558B
ENCODING 21899
SWIDTH 1000 0
DWIDTH 16 0
BBX 15 14 1 0
BITMAP
0290
0290
0FFE
1290
FAF0
9200
93FC
9040
97FE
F0E0
9150
024E
0C44
0040
ENDCHAR
STARTCHAR uni558C
ENCODING 21900
SWIDTH 1000 0
DWIDTH 16 0
BBX 14 14 1 0
BITMAP
7EFC
4284
4284
7EFC
4280
1004
1084
9084
74A4
139C
1084
1084
2084
4004
ENDCHAR
STARTCHAR uni558D
ENCODING 21901
SWIDTH 1000 0
DWIDTH 16 0
BBX 15 14 1 0
BITMAP
0120
0120
F5FE
9520
9522
9522
9FFE
9000
9040
9FFE
F150
9248
0444
0040
ENDCHAR
STARTCHAR uni558E
ENCODING 21902
SWIDTH 1000 0
DWIDTH 16 0
BBX 15 14 1 0
BITMAP
00FC
0084
F8BC
88A4
88A4
8BFE
8A02
8AFA
FA8A
8A8A
028A
02FA
0202
0204
ENDCHAR
STARTCHAR uni558F
ENCODING 21903
SWIDTH 1000 0
DWIDTH 16 0
BBX 15 14 1 0
BITMAP
0110
0FFE
F110
9040
9044
97FE
9080
9108
91FC
F308
9508
0908
01F8
0108
ENDCHAR
STARTCHAR uni5591
ENCODING 21905
SWIDTH 1000 0
DWIDTH 16 0
BBX 15 14 1 0
BITMAP
0080
0040
07FC
F000
9110
90A0
9FFE
9000
93F8
9208
F3F8
9208
03F8
0208
ENDCHAR
STARTCHAR uni5592
ENCODING 21906
SWIDTH 1000 0
DWIDTH 16 0
BBX 15 14 1 0
BITMAP
0108
03E8
F428
9048
9294
9122
9280
947E
9000
F7FC
9404
07FC
0404
07FC
ENDCHAR
STARTCHAR uni5593
ENCODING 21907
SWIDTH 1000 0
DWIDTH 16 0
BBX 14 14 1 0
BITMAP
07FC
00A0
F7FC
94A4
94A4
97FC
9100
9110
97FC
F110
9110
00A0
0040
07BC
ENDCHAR
STARTCHAR uni5594
ENCODING 21908
SWIDTH 1000 0
DWIDTH 16 0
BBX 15 13 1 0
BITMAP
03FE
1202
FBFE
9200
92FE
9220
9244
F2FE
9210
04FE
0410
0810
11FE
ENDCHAR
STARTCHAR uni5595
ENCODING 21909
SWIDTH 1000 0
DWIDTH 16 0
BBX 15 14 1 0
BITMAP
07FE
0020
0040
F7FE
9492
9492
94F2
9492
9492
F4F2
9492
0492
07FE
0402
ENDCHAR
STARTCHAR uni5598
ENCODING 21912
SWIDTH 1000 0
DWIDTH 16 0
BBX 15 14 1 0
BITMAP
0040
0248
0248
13F8
F800
97FE
9080
9104
97FE
F4A4
94A4
04A4
04A4
040C
ENDCHAR
STARTCHAR uni5599
ENCODING 21913
SWIDTH 1000 0
DWIDTH 16 0
BBX 15 14 1 0
BITMAP
01F0
1310
F8A0
9040
97FE
9188
9250
F4E0
9150
06D0
014E
0E44
0140
0080
ENDCHAR
STARTCHAR uni559A
ENCODING 21914
SWIDTH 1000 0
DWIDTH 16 0
BBX 15 14 1 0
BITMAP
0088
01FC
1210
F824
93FE
9244
92A4
9314
9244
F7FE
9040
0090
010C
0604
ENDCHAR
STARTCHAR uni559C
ENCODING 21916
SWIDTH 1000 0
DWIDTH 16 0
BBX 15 14 1 0
BITMAP
0100
7FFC
0100
3FF8
0000
1FF0
1010
1FF0
0824
FFFE
0000
3FF8
2008
3FF8
ENDCHAR
STARTCHAR uni559D
ENCODING 21917
SWIDTH 1000 0
DWIDTH 16 0
BBX 15 14 1 0
BITMAP
0008
03FC
0208
13F8
FA08
93F8
9104
93FE
9444
F2A4
9314
03F4
0004
0018
ENDCHAR
STARTCHAR uni559F
ENCODING 21919
SWIDTH 1000 0
DWIDTH 16 0
BBX 15 14 1 0
BITMAP
0004
07FE
0444
F7FC
9444
97FC
9000
93F8
F208
93F8
0208
03F8
0408
0818
ENDCHAR
STARTCHAR uni55A1
ENCODING 21921
SWIDTH 1000 0
DWIDTH 16 0
BBX 15 14 1 0
BITMAP
0020
01FC
0024
FBFE
8800
89FC
8904
89FC
8820
FBFE
8920
03FE
0020
0020
ENDCHAR
STARTCHAR uni55A2
ENCODING 21922
SWIDTH 1000 0
DWIDTH 16 0
BBX 15 14 1 0
BITMAP
00F8
0020
0020
FBFE
8820
88A0
8926
8A22
8A22
FBAE
8A22
0222
03FE
0202
ENDCHAR
STARTCHAR uni55A3
ENCODING 21923
SWIDTH 1000 0
DWIDTH 16 0
BBX 15 14 1 0
BITMAP
0080
0082
F9FE
8A02
89F2
8912
8912
F9F2
8804
0018
0000
4884
8442
8442
ENDCHAR
STARTCHAR uni55A4
ENCODING 21924
SWIDTH 1000 0
DWIDTH 16 0
BBX 15 14 1 0
BITMAP
0200
07FC
FC04
97FC
9404
97FC
9000
97FC
9040
F040
97FC
0040
0040
0FFE
ENDCHAR
STARTCHAR uni55A5
ENCODING 21925
SWIDTH 1000 0
DWIDTH 16 0
BBX 15 14 1 0
BITMAP
0040
0020
07FE
F488
97FE
9488
94F8
9400
94F8
F488
9450
0420
0850
038E
ENDCHAR
STARTCHAR uni55A6
ENCODING 21926
SWIDTH 1000 0
DWIDTH 16 0
BBX 15 14 1 0
BITMAP
1FF0
1010
1010
1FF0
0000
FC7E
8442
8442
FC7E
0100
4104
4104
4104
7FFC
ENDCHAR
STARTCHAR uni55A7
ENCODING 21927
SWIDTH 1000 0
DWIDTH 16 0
BBX 15 14 1 0
BITMAP
0080
0040
07FE
1402
F804
93F8
9000
93F8
9208
F3F8
9208
03F8
0000
0FFE
ENDCHAR
STARTCHAR uni55A8
ENCODING 21928
SWIDTH 1000 0
DWIDTH 16 0
BBX 14 14 1 0
BITMAP
0080
0040
07FC
0000
F3F8
9208
93F8
9000
97FC
9404
F524
9120
0224
043C
ENDCHAR
STARTCHAR uni55AA
ENCODING 21930
SWIDTH 1000 0
DWIDTH 16 0
BBX 15 14 1 0
BITMAP
0100
0108
7FFC
0100
3D78
2548
3D78
0100
FFFE
1108
1090
1260
1C30
700E
ENDCHAR
STARTCHAR uni55AB
ENCODING 21931
SWIDTH 1000 0
DWIDTH 16 0
BBX 15 14 1 0
BITMAP
0104
07BE
1114
FB94
9114
97D4
9124
914C
F040
97FE
00A0
0110
020E
0404
ENDCHAR
STARTCHAR uni55AC
ENCODING 21932
SWIDTH 1000 0
DWIDTH 16 0
BBX 15 14 1 0
BITMAP
1FE0
0200
FFF8
1040
2FB0
488E
8F84
0010
7FF8
4010
4F90
4890
4F90
4030
ENDCHAR
STARTCHAR uni55AD
ENCODING 21933
SWIDTH 1000 0
DWIDTH 16 0
BBX 15 14 1 0
BITMAP
0040
0020
07FE
F108
9108
97FE
9410
9420
94C8
F410
94E4
0408
0410
09E0
ENDCHAR
STARTCHAR uni55AE
ENCODING 21934
SWIDTH 1000 0
DWIDTH 16 0
BBX 15 14 1 0
BITMAP
0208
3FFC
2288
3EF8
0008
3FFC
2108
3FF8
2108
3FF8
0100
FFFE
0100
0100
ENDCHAR
STARTCHAR uni55B1
ENCODING 21937
SWIDTH 1000 0
DWIDTH 16 0
BBX 15 14 1 0
BITMAP
0004
07FE
1400
FDFC
9524
95FC
9524
95FC
F420
95FC
0820
0824
13FE
2000
ENDCHAR
STARTCHAR uni55B2
ENCODING 21938
SWIDTH 1000 0
DWIDTH 16 0
BBX 15 14 1 0
BITMAP
0110
0110
0210
149E
FCA2
9302
9222
9492
97D2
F102
9542
0522
092C
0108
ENDCHAR
STARTCHAR uni55B3
ENCODING 21939
SWIDTH 1000 0
DWIDTH 16 0
BBX 15 14 1 0
BITMAP
0040
0044
17FE
F8E0
9150
924E
9C44
93F8
9208
F3F8
9208
03F8
0000
0FFE
ENDCHAR
STARTCHAR uni55B5
ENCODING 21941
SWIDTH 1000 0
DWIDTH 16 0
BBX 15 14 1 0
BITMAP
0110
0110
0FFE
0110
F910
8800
8BFC
8A24
8A24
8BFC
FA24
8A24
03FC
0204
ENDCHAR
STARTCHAR uni55BB
ENCODING 21947
SWIDTH 1000 0
DWIDTH 16 0
BBX 15 14 1 0
BITMAP
00C0
0120
1210
FDEE
9004
9788
94A8
97A8
F4A8
97A8
04A8
0488
0488
0998
ENDCHAR
STARTCHAR uni55BF
ENCODING 21951
SWIDTH 1000 0
DWIDTH 16 0
BBX 15 14 1 0
BITMAP
1FF0
1010
1FF0
0000
7EFC
4284
7EFC
0100
FFFE
0540
0920
1110
2108
C306
ENDCHAR
STARTCHAR uni55C0
ENCODING 21952
SWIDTH 1000 0
DWIDTH 16 0
BBX 15 14 1 0
BITMAP
0838
FFA8
0828
7F28
002A
FFCE
8080
3E7C
0044
7F44
4128
4110
7F28
4144
ENDCHAR
STARTCHAR uni55C2
ENCODING 21954
SWIDTH 1000 0
DWIDTH 16 0
BBX 15 14 1 0
BITMAP
0004
03F8
FA22
8924
88A8
8880
89FC
8A20
8820
8BFE
F820
0222
0222
03FE
ENDCHAR
STARTCHAR uni55C3
ENCODING 21955
SWIDTH 1000 0
DWIDTH 16 0
BBX 15 14 1 0
BITMAP
0020
03FE
0000
F9FC
8904
89FC
8800
8BFE
8A02
FAFA
8A8A
02FA
0202
0206
ENDCHAR
STARTCHAR uni55C4
ENCODING 21956
SWIDTH 1000 0
DWIDTH 16 0
BBX 14 14 1 0
BITMAP
07FC
0040
F3F8
9208
93F8
9208
93F8
9208
93F8
9200
F3FC
9490
0860
039C
ENDCHAR
STARTCHAR uni55C5
ENCODING 21957
SWIDTH 1000 0
DWIDTH 16 0
BBX 15 14 1 0
BITMAP
0088
03FC
1208
FBF8
9208
93F8
9208
93F8
9044
F7FE
90A0
0110
020E
0C04
ENDCHAR
STARTCHAR uni55C6
ENCODING 21958
SWIDTH 1000 0
DWIDTH 16 0
BBX 15 14 1 0
BITMAP
0040
00A0
1110
FA88
97F6
9210
93F0
9210
F3F0
9408
07FC
0A08
13F8
0208
ENDCHAR
STARTCHAR uni55C7
ENCODING 21959
SWIDTH 1000 0
DWIDTH 16 0
BBX 15 14 1 0
BITMAP
0100
7FFC
1110
2928
4544
FFFE
0000
3FF8
2008
27C8
2448
27C8
3FF8
2008
ENDCHAR
STARTCHAR uni55C8
ENCODING 21960
SWIDTH 1000 0
DWIDTH 16 0
BBX 15 14 1 0
BITMAP
0092
0124
0248
F924
89FC
8904
89FC
8800
8BFE
FA22
8BFE
0200
0202
03FE
ENDCHAR
STARTCHAR uni55C9
ENCODING 21961
SWIDTH 1000 0
DWIDTH 16 0
BBX 15 14 1 0
BITMAP
0040
07FC
1040
FBF8
9040
9FFE
9040
9390
F060
9188
07FC
0040
0248
04C4
ENDCHAR
STARTCHAR uni55CA
ENCODING 21962
SWIDTH 1000 0
DWIDTH 16 0
BBX 15 14 1 0
BITMAP
01FC
0020
F820
8BFE
8800
89FC
8904
89FC
8904
F9FC
8904
01FC
0088
0306
ENDCHAR
STARTCHAR uni55CB
ENCODING 21963
SWIDTH 1000 0
DWIDTH 16 0
BBX 15 14 1 0
BITMAP
0080
07FC
F084
9518
9FBE
9492
99A6
97FC
9404
F7FC
9404
07FC
0404
080C
ENDCHAR
STARTCHAR uni55CC
ENCODING 21964
SWIDTH 1000 0
DWIDTH 16 0
BBX 15 14 1 0
BITMAP
0208
0110
F000
97FE
90A0
9110
920C
9404
93F8
F2A8
92A8
02A8
02A8
0FFE
ENDCHAR
STARTCHAR uni55CD
ENCODING 21965
SWIDTH 1000 0
DWIDTH 16 0
BBX 15 14 1 0
BITMAP
0440
025E
F292
9FF2
9112
955E
9552
9552
955E
F7D2
9112
0222
044A
0884
ENDCHAR
STARTCHAR uni55CE
ENCODING 21966
SWIDTH 1000 0
DWIDTH 16 0
BBX 15 14 1 0
BITMAP
0004
03FE
1220
FBFC
9220
93FC
9220
93FE
9002
F2AA
92AA
04AA
0002
000C
ENDCHAR
STARTCHAR uni55CF
ENCODING 21967
SWIDTH 1000 0
DWIDTH 16 0
BBX 15 14 1 0
BITMAP
0110
0FFE
F110
90E0
9110
9208
9444
9842
F7FC
9150
0248
0444
0842
0040
ENDCHAR
STARTCHAR uni55D0
ENCODING 21968
SWIDTH 1000 0
DWIDTH 16 0
BBX 15 14 1 0
BITMAP
0040
0FFE
0842
F3F8
9040
93F8
9040
9FFE
F000
93F8
0208
0208
03F8
0208
ENDCHAR
STARTCHAR uni55D1
ENCODING 21969
SWIDTH 1000 0
DWIDTH 16 0
BBX 15 14 1 0
BITMAP
0040
03FC
1040
F844
97FE
9080
9108
93FC
9004
F3F8
92A8
02A8
02A8
0FFE
ENDCHAR
STARTCHAR uni55D2
ENCODING 21970
SWIDTH 1000 0
DWIDTH 16 0
BBX 15 14 1 0
BITMAP
0110
0110
0FFE
F110
90E0
9110
9208
95F6
9000
93F8
F208
9208
03F8
0208
ENDCHAR
STARTCHAR uni55D3
ENCODING 21971
SWIDTH 1000 0
DWIDTH 16 0
BBX 15 14 1 0
BITMAP
01F8
0090
1060
F998
97BC
94A4
9318
94A6
F040
97FE
0040
0248
0244
0444
ENDCHAR
STARTCHAR uni55D4
ENCODING 21972
SWIDTH 1000 0
DWIDTH 16 0
BBX 15 14 1 0
BITMAP
0040
07FE
F040
93F8
9208
93F8
9208
93F8
9208
93F8
F208
9FFE
020C
0404
ENDCHAR
STARTCHAR uni55D5
ENCODING 21973
SWIDTH 1000 0
DWIDTH 16 0
BBX 15 14 1 0
BITMAP
01FE
0100
F9FC
8900
89FE
8A92
8C8C
88A4
88CA
FBFE
8888
0048
0008
0018
ENDCHAR
STARTCHAR uni55D6
ENCODING 21974
SWIDTH 1000 0
DWIDTH 16 0
BBX 15 14 1 0
BITMAP
0040
0148
F25C
9248
9358
9248
93F8
9040
F3F8
9110
00A0
0040
01B0
0E0E
ENDCHAR
STARTCHAR uni55D9
ENCODING 21977
SWIDTH 1000 0
DWIDTH 16 0
BBX 15 14 1 0
BITMAP
0040
0FFE
F208
9110
9FFE
9802
9040
9FFE
9100
F1FC
9104
0104
0204
0438
ENDCHAR
STARTCHAR uni55DA
ENCODING 21978
SWIDTH 1000 0
DWIDTH 16 0
BBX 15 14 1 0
BITMAP
0100
0210
17F8
FA10
93F0
9200
93F0
9204
F3FE
9004
0554
0554
0004
0018
ENDCHAR
STARTCHAR uni55DB
ENCODING 21979
SWIDTH 1000 0
DWIDTH 16 0
BBX 15 14 1 0
BITMAP
0108
0090
03FE
F890
8BFC
8894
8BFE
8894
8BFC
F890
8998
0294
0492
0090
ENDCHAR
STARTCHAR uni55DC
ENCODING 21980
SWIDTH 1000 0
DWIDTH 16 0
BBX 15 14 1 0
BITMAP
0040
13F8
F850
97FE
9080
91F8
9282
947E
F3F8
9208
03F8
0208
03F8
0208
ENDCHAR
STARTCHAR uni55DD
ENCODING 21981
SWIDTH 1000 0
DWIDTH 16 0
BBX 14 14 1 0
BITMAP
07FC
0000
F3F8
9208
9208
93F8
9000
97FC
9514
94A4
F5F4
9444
0454
0448
ENDCHAR
STARTCHAR uni55DF
ENCODING 21983
SWIDTH 1000 0
DWIDTH 16 0
BBX 15 14 1 0
BITMAP
0108
0090
13FC
F840
93F8
9040
97FE
9080
9108
F3FC
9220
0420
0824
03FE
ENDCHAR
STARTCHAR uni55E1
ENCODING 21985
SWIDTH 1000 0
DWIDTH 16 0
BBX 15 14 1 0
BITMAP
00A0
0110
1248
FC86
9110
93F8
9004
97BE
F4A4
9294
04A4
0884
039C
0108
ENDCHAR
STARTCHAR uni55E2
ENCODING 21986
SWIDTH 1000 0
DWIDTH 16 0
BBX 15 14 1 0
BITMAP
01FC
0124
F954
898C
8904
89FC
8800
89FC
8954
8954
F954
8954
0154
07FE
ENDCHAR
STARTCHAR uni55E3
ENCODING 21987
SWIDTH 1000 0
DWIDTH 16 0
BBX 15 14 1 0
BITMAP
0404
7EFE
4404
7C04
00F4
FE04
AAF4
AA94
FE94
AAF4
AA94
AA04
821C
8608
ENDCHAR
STARTCHAR uni55E4
ENCODING 21988
SWIDTH 1000 0
DWIDTH 16 0
BBX 15 14 1 0
BITMAP
0040
0248
1248
FBF8
9080
97FE
9048
93FC
F248
93F8
0240
0048
0FFC
0004
ENDCHAR
STARTCHAR uni55E5
ENCODING 21989
SWIDTH 1000 0
DWIDTH 16 0
BBX 15 14 1 0
BITMAP
0048
03FC
1208
FBF8
9208
93F8
9080
97FE
F110
9248
0444
1BFA
0040
0040
ENDCHAR
STARTCHAR uni55E6
ENCODING 21990
SWIDTH 1000 0
DWIDTH 16 0
BBX 15 14 1 0
BITMAP
0040
03FC
1040
FBFE
9242
9494
9120
90C0
F108
97FC
0040
0248
0444
08C4
ENDCHAR
STARTCHAR uni55E7
ENCODING 21991
SWIDTH 1000 0
DWIDTH 16 0
BBX 15 14 1 1
BITMAP
1000
FE7C
1244
2244
CE7C
07C0
0820
1FF0
2008
5FF4
9292
1FF0
1290
12B0
ENDCHAR
STARTCHAR uni55E8
ENCODING 21992
SWIDTH 1000 0
DWIDTH 16 0
BBX 15 14 1 0
BITMAP
0880
0484
25FE
F200
A8FC
A4A4
A494
A1FE
E284
A4A4
1894
09FE
0804
0818
ENDCHAR
STARTCHAR uni55E9
ENCODING 21993
SWIDTH 1000 0
DWIDTH 16 0
BBX 15 14 1 0
BITMAP
0244
014C
F150
9040
93F8
9208
93F8
9208
93F8
F208
93F8
0110
0208
0C06
ENDCHAR
STARTCHAR uni55EF
ENCODING 21999
SWIDTH 1000 0
DWIDTH 16 0
BBX 15 14 1 0
BITMAP
0008
03FC
1248
FBF8
9248
92A8
9318
93F8
F000
9044
0522
0502
0908
00F8
ENDCHAR
STARTCHAR uni55F2
ENCODING 22002
SWIDTH 1000 0
DWIDTH 16 0
BBX 15 14 1 0
BITMAP
0118
02A4
F040
91B0
964E
90F0
9390
9060
93A0
9078
F388
9090
00E0
0700
ENDCHAR
STARTCHAR uni55F6
ENCODING 22006
SWIDTH 1000 0
DWIDTH 16 0
BBX 15 14 1 0
BITMAP
03F8
0248
13F8
FA48
93F8
9150
9FFE
9150
97FC
F040
93F8
0040
0040
0040
ENDCHAR
STARTCHAR uni55F7
ENCODING 22007
SWIDTH 1000 0
DWIDTH 16 0
BBX 15 14 1 0
BITMAP
0110
07D0
0110
F7DE
9124
9FC4
9224
93A4
F298
9498
04A4
09A4
1142
0082
ENDCHAR
STARTCHAR uni55F9
ENCODING 22009
SWIDTH 1000 0
DWIDTH 16 0
BBX 15 14 1 0
BITMAP
0410
02FE
F010
977C
9154
927C
9454
927C
9110
F1FE
9210
0410
0A00
11FE
ENDCHAR
STARTCHAR uni55FA
ENCODING 22010
SWIDTH 1000 0
DWIDTH 16 0
BBX 15 14 1 0
BITMAP
0040
0442
0442
F7FE
9120
9220
97FE
9A20
93FE
9220
F3FE
9220
03FE
0200
ENDCHAR
STARTCHAR uni55FC
ENCODING 22012
SWIDTH 1000 0
DWIDTH 16 0
BBX 15 14 1 0
BITMAP
0090
07FE
F890
8800
8BFC
8A04
8BFC
8A04
8BFC
F840
07FE
0090
0108
0606
ENDCHAR
STARTCHAR uni55FD
ENCODING 22013
SWIDTH 1000 0
DWIDTH 16 0
BBX 15 14 1 0
BITMAP
0210
0FD0
2210
F23E
AFC2
AA92
AF94
A210
E710
A6A8
0AA8
1244
2246
0284
ENDCHAR
STARTCHAR uni55FE
ENCODING 22014
SWIDTH 1000 0
DWIDTH 16 0
BBX 15 14 1 0
BITMAP
0420
0224
1FBE
F440
9524
97BE
9550
9510
F5FE
9510
0928
0928
1346
2284
ENDCHAR
STARTCHAR uni55FF
ENCODING 22015
SWIDTH 1000 0
DWIDTH 16 0
BBX 15 14 1 0
BITMAP
00F0
0108
0244
F5FA
9020
93FC
9204
93FC
9204
F3FC
9204
03FC
0108
0204
ENDCHAR
STARTCHAR uni5600
ENCODING 22016
SWIDTH 1000 0
DWIDTH 16 0
BBX 15 14 1 0
BITMAP
0080
0044
17FE
F910
90A4
97FE
9444
95F4
F444
95F4
0514
05F4
0514
040C
ENDCHAR
STARTCHAR uni5601
ENCODING 22017
SWIDTH 1000 0
DWIDTH 16 0
BBX 15 14 1 0
BITMAP
0028
0024
EFFE
A920
A9E4
A924
AFE8
A928
E928
1390
1550
212A
434A
0086
ENDCHAR
STARTCHAR uni5602
ENCODING 22018
SWIDTH 1000 0
DWIDTH 16 0
BBX 15 14 1 0
BITMAP
0040
F05E
9452
9452
F45E
0440
04C0
0540
F65E
9452
9452
F05E
0040
0040
ENDCHAR
STARTCHAR uni5604
ENCODING 22020
SWIDTH 1000 0
DWIDTH 16 0
BBX 15 14 1 0
BITMAP
0080
01FC
FBF4
8904
89FC
8900
89FC
8900
89FE
F822
8BFE
00AA
0126
0222
ENDCHAR
STARTCHAR uni5606
ENCODING 22022
SWIDTH 1000 0
DWIDTH 16 0
BBX 15 14 1 0
BITMAP
0110
07FC
1110
F9F0
93F8
9248
93F8
9040
F3F8
9040
07FC
00A0
0310
0C0E
ENDCHAR
STARTCHAR uni5608
ENCODING 22024
SWIDTH 1000 0
DWIDTH 16 0
BBX 15 14 1 0
BITMAP
00A0
17FE
F8A0
97FC
95F4
94A4
97FC
9000
F3F8
9208
03F8
0208
03F8
0208
ENDCHAR
STARTCHAR uni5609
ENCODING 22025
SWIDTH 1000 0
DWIDTH 16 0
BBX 15 14 1 0
BITMAP
0100
7FFC
0100
3FF8
1FF0
1010
1FF0
0820
FFFE
1000
7EFC
1284
22FC
CC84
ENDCHAR
STARTCHAR uni560C
ENCODING 22028
SWIDTH 1000 0
DWIDTH 16 0
BBX 15 14 1 0
BITMAP
07FE
00A0
F7FC
94A4
94A4
97FC
9000
93F8
9000
F7FE
9150
024C
0444
00C0
ENDCHAR
STARTCHAR uni560D
ENCODING 22029
SWIDTH 1000 0
DWIDTH 16 0
BBX 15 14 1 0
BITMAP
0040
13F8
FA48
97FE
9248
93F8
97FC
9444
F7FC
9110
0FFE
0120
00C0
0F3C
ENDCHAR
STARTCHAR uni560E
ENCODING 22030
SWIDTH 1000 0
DWIDTH 16 0
BBX 15 14 1 0
BITMAP
07FC
1080
FBF8
93E8
93E8
9208
93F8
9104
F1FE
9700
0090
0062
019A
0E06
ENDCHAR
STARTCHAR uni560F
ENCODING 22031
SWIDTH 1000 0
DWIDTH 16 0
BBX 15 14 1 0
BITMAP
2000
27BC
FC84
2484
27BC
2400
F400
97BC
9404
97A8
F428
9410
042E
04C4
ENDCHAR
STARTCHAR uni5610
ENCODING 22032
SWIDTH 1000 0
DWIDTH 16 0
BBX 15 14 1 0
BITMAP
0084
07FE
14A4
FA94
95A4
90CC
9130
964E
F0A4
9340
0090
0320
0040
0380
ENDCHAR
STARTCHAR uni5612
ENCODING 22034
SWIDTH 1000 0
DWIDTH 16 0
BBX 15 14 1 0
BITMAP
0208
0FBE
F208
9FBE
9208
9FBE
9208
9000
97FC
9004
FFFE
9004
07FC
0004
ENDCHAR
STARTCHAR uni5613
ENCODING 22035
SWIDTH 1000 0
DWIDTH 16 0
BBX 15 14 1 0
BITMAP
07FE
040A
F416
97FE
9412
95D2
9552
95D6
941A
F7D2
942A
0406
07FE
0402
ENDCHAR
STARTCHAR uni5614
ENCODING 22036
SWIDTH 1000 0
DWIDTH 16 0
BBX 15 14 1 0
BITMAP
0004
07FE
0400
F4F8
9488
94F8
9400
95DC
9554
F554
95DC
0400
07FE
0400
ENDCHAR
STARTCHAR uni5615
ENCODING 22037
SWIDTH 1000 0
DWIDTH 16 0
BBX 15 14 1 0
BITMAP
0FFE
0040
F278
9240
9FFE
9200
93F8
9200
93FE
F552
9552
0552
0002
000C
ENDCHAR
STARTCHAR uni5616
ENCODING 22038
SWIDTH 1000 0
DWIDTH 16 0
BBX 15 14 1 0
BITMAP
0040
07FC
1040
FBF8
9040
9FFE
93F8
9208
F3F8
9208
03F8
0208
03F8
060C
ENDCHAR
STARTCHAR uni5617
ENCODING 22039
SWIDTH 1000 0
DWIDTH 16 0
BBX 14 14 2 0
BITMAP
1240
FFFC
9FC4
9048
1FC0
0800
1FC0
2010
3FE0
1FE0
1020
1FA0
1020
1FE0
ENDCHAR
ENDFONT
